<?xml version="1.0" encoding="UTF-8"?>
<svg version="1.1" xmlns="http://www.w3.org/2000/svg" width="512" height="512">
<path d="M0 0 C0.9852072 -0.00644889 1.97041441 -0.01289778 2.98547637 -0.0195421 C4.07057467 -0.01644489 5.15567297 -0.01334769 6.27365303 -0.01015663 C7.99954885 -0.0169533 7.99954885 -0.0169533 9.76031125 -0.02388728 C12.95916695 -0.03438013 16.15788179 -0.03585326 19.3567493 -0.03349853 C22.80469366 -0.03309112 26.25260422 -0.04412215 29.70053291 -0.05361366 C36.45762357 -0.0702413 43.21467935 -0.075724 49.97178875 -0.07683842 C55.4631941 -0.07778806 60.95458791 -0.08189414 66.44598961 -0.08823967 C82.00812571 -0.10585689 97.5702342 -0.11507779 113.13238035 -0.11357872 C114.39136474 -0.11345885 114.39136474 -0.11345885 115.67578316 -0.11333656 C116.93630112 -0.11321392 116.93630112 -0.11321392 118.22228409 -0.1130888 C131.84373429 -0.11227576 145.46507395 -0.13141663 159.08649217 -0.1596133 C173.06600259 -0.18832335 187.04545907 -0.20215463 201.02499974 -0.20042574 C208.87622056 -0.19976119 216.72732551 -0.20528197 224.57851982 -0.22678185 C231.26294415 -0.24496899 237.94720007 -0.24936141 244.63163839 -0.235763 C248.04294545 -0.22922073 251.45392921 -0.22916085 254.86520576 -0.2464695 C258.56170539 -0.26182217 262.25734866 -0.25267886 265.95382881 -0.23720741 C267.03446566 -0.24749454 268.11510252 -0.25778167 269.22848594 -0.26838052 C273.71327408 -0.2267324 276.45999246 -0.20064929 280.38365555 2.10067368 C283.67569053 5.92368018 283.41998444 9.80115326 283.48120308 14.59589195 C283.49419945 15.34116142 283.50719582 16.08643089 283.52058601 16.85428429 C283.64789786 24.68793529 283.70417458 32.52266857 283.75561714 40.35712242 C283.78221792 44.05956334 283.83074288 47.76069164 283.89917183 51.46259117 C283.98194715 55.95312209 284.02392919 60.44241759 284.03868103 64.93367004 C284.05079766 66.63154013 284.07651938 68.32937829 284.11713028 70.02680588 C284.49213776 86.54566744 279.01584596 98.10641597 268.99072456 111.19476891 C259.78597735 123.33795466 257.06377729 134.14304963 258.24072456 149.25726891 C258.69347033 152.33682098 259.32221496 155.36253794 259.99072456 158.40180016 C264.53231302 179.505758 266.5808783 199.70795177 266.45556831 221.26117516 C266.45025723 222.27562265 266.44494614 223.29007015 266.43947411 224.33525848 C266.37454288 234.6728644 266.2215377 245.00558185 265.93416691 255.33942509 C265.83177227 259.28654264 265.76455762 263.23386429 265.70236588 267.18179703 C265.66362756 269.02253688 265.60777069 270.86301776 265.53257751 272.70262909 C264.98261588 286.16831573 267.68050731 295.45465934 274.17844772 307.24380207 C276.73707428 312.09348864 278.50599212 317.29686612 280.36572456 322.44476891 C280.78112495 323.58421959 281.19652534 324.72367027 281.62451363 325.89764977 C293.8120926 359.85582107 301.75991522 395.56454422 304.06933784 431.60492516 C304.18601584 433.4106086 304.31779913 435.21536509 304.46289253 437.01898766 C305.58690054 451.74271378 305.58690054 451.74271378 302.79150581 456.96430016 C300.43127372 459.24361 298.11791273 460.67594225 295.24072456 462.25726891 C294.07425301 462.97864834 292.91033674 463.70417041 291.74853706 464.43305016 C260.83950095 483.2770137 223.89641516 491.01926532 188.24072456 494.25726891 C187.09216988 494.36812828 185.94361519 494.47898766 184.76025581 494.59320641 C176.56038477 495.26666973 168.33996839 495.44612263 160.11572456 495.56976891 C159.02388863 495.59957848 157.93205269 495.62938805 156.80713081 495.66010094 C152.45011574 495.69197823 149.13927526 495.66076903 145.13525581 493.86273766 C142.2859724 489.94423861 141.77631019 485.98338636 141.05322456 481.25726891 C140.89305855 480.31552818 140.73289253 479.37378746 140.567873 478.40350914 C140.25226834 476.53575302 139.94522887 474.66652605 139.64746284 472.79584312 C139.1400409 469.6288723 138.5599055 466.47613589 137.99072456 463.31976891 C137.33730979 459.58516551 137.1744838 456.04955281 137.24072456 452.25726891 C136.58072456 452.25726891 135.92072456 452.25726891 135.24072456 452.25726891 C135.19028999 452.97922447 135.13985542 453.70118004 135.08789253 454.44501305 C134.52060075 461.93121699 133.58986168 469.28920659 132.36572456 476.69476891 C132.20459175 477.74342125 132.04345894 478.79207359 131.87744331 479.87250328 C131.62800972 481.39134117 131.62800972 481.39134117 131.37353706 482.94086266 C131.22803413 483.84377037 131.0825312 484.74667809 130.93261909 485.67694664 C129.73384666 490.14759795 128.09242365 492.68946951 124.24072456 495.25726891 C122.00195503 495.51605797 122.00195503 495.51605797 119.35791206 495.52289391 C117.87448311 495.52929893 117.87448311 495.52929893 116.36108589 495.53583336 C115.29011665 495.52640709 114.21914742 495.51698082 113.11572456 495.50726891 C111.99770454 495.49977623 110.87968452 495.49228355 109.72778511 495.48456383 C63.00397423 494.89834653 8.29145122 486.90567427 -29.55224419 457.05414391 C-32.50113514 453.31714227 -32.47134848 450.25943379 -32.32177544 445.69476891 C-32.30517876 444.80201256 -32.28858208 443.90925621 -32.27148247 442.98944664 C-30.70007844 393.65305968 -20.61028564 336.55403046 4.79908943 293.62438011 C6.52196746 289.60039249 6.58563667 286.19474305 6.45434761 281.90839195 C6.44211662 281.0880006 6.42988564 280.26760925 6.41728401 279.42235756 C6.3894692 277.64050502 6.35495326 275.85874721 6.31449127 274.07713699 C6.22943321 270.22760286 6.18419141 266.37788661 6.13628292 262.52773952 C6.09748456 259.44391808 6.05383085 256.36018773 6.01001167 253.27643394 C5.56306977 220.08971513 5.8573481 188.49040387 13.00981331 155.94194603 C16.03067489 141.52579368 14.87852254 128.3933916 6.97119331 115.80023766 C5.18425789 113.17428967 3.28880708 110.65985673 1.36572456 108.13226891 C-8.27772461 94.84676371 -11.97887929 83.95686946 -11.64599419 67.58930016 C-11.63866202 65.85295689 -11.63447774 64.11659781 -11.6332531 62.38023949 C-11.62258896 58.77694754 -11.58591266 55.17528488 -11.52758598 51.57245445 C-11.45342466 46.9613227 -11.42829698 42.35156756 -11.42016697 37.73989391 C-11.41158272 34.17013077 -11.38647096 30.60065 -11.35541534 27.0310173 C-11.34088619 25.32981917 -11.32937437 23.62859241 -11.3209877 21.92735291 C-11.30504212 19.55871077 -11.26901586 17.19124442 -11.22680473 14.82294273 C-11.2250222 14.12734749 -11.22323967 13.43175224 -11.22140312 12.71507835 C-11.11733626 8.41269039 -10.39425484 5.67699342 -7.75927544 2.25726891 C-4.53947749 0.11073694 -3.70454606 0.00612002 0 0 Z " fill="#484F69" transform="translate(116.75927543640137,6.742731094360352)"/>
<path d="M0 0 C2.76603314 2.93692071 3.66443467 5.72587515 4.578125 9.609375 C4.84850586 10.74125244 5.11888672 11.87312988 5.39746094 13.03930664 C5.67879883 14.26383545 5.96013672 15.48836426 6.25 16.75 C6.69907715 18.65543579 6.69907715 18.65543579 7.15722656 20.59936523 C9.7658934 31.71594815 12.21076843 42.87106716 14.60253906 54.03613281 C15.82732295 59.73378657 17.0847237 65.399455 18.5703125 71.03515625 C20.27572534 77.74629238 21.21878369 84.51675495 22.125 91.375 C22.37830078 93.19257813 22.37830078 93.19257813 22.63671875 95.046875 C24.71071928 110.36508366 25.13564846 125.44757637 25.0625 140.875 C25.05747112 142.73828004 25.05291069 144.6015614 25.04882812 146.46484375 C25.03794131 150.97659595 25.02075454 155.48828285 25 160 C15.76509049 159.59249654 7.15287154 158.74525199 -1.8125 156.375 C-3.3442688 155.97958008 -3.3442688 155.97958008 -4.90698242 155.57617188 C-35.6231187 147.3768813 -35.6231187 147.3768813 -44 139 C-46.58526622 101.99543939 -34.96281402 66.28419215 -22.71557617 31.81591797 C-21.93092009 29.6064722 -21.15169632 27.39516262 -20.37304688 25.18359375 C-10.39292466 -3.07938508 -10.39292466 -3.07938508 0 0 Z " fill="#9EAACD" transform="translate(168,326)"/>
<path d="M0 0 C4.19403056 1.37259182 5.0029662 2.4874537 7.4375 6.125 C8.77674116 9.05340689 9.84143614 12.05762946 10.8984375 15.09765625 C11.21148834 15.97538193 11.52453918 16.8531076 11.84707642 17.75743103 C12.50883597 19.61926921 13.16582655 21.48280842 13.81835938 23.34790039 C14.79232487 26.12987306 15.78143208 28.90605703 16.7734375 31.68164062 C22.45553712 47.68394463 27.48686289 63.85602676 31.6875 80.3125 C31.92984375 81.24384766 32.1721875 82.17519531 32.421875 83.13476562 C36.18954835 97.72426161 38.80960745 112.00202556 39.0625 127.125 C39.12050781 128.31222656 39.17851562 129.49945313 39.23828125 130.72265625 C39.36005422 139.03131961 39.36005422 139.03131961 36.93310547 141.90844727 C34.82437631 143.28569953 32.78397886 144.21393284 30.4375 145.125 C29.35927979 145.62749268 29.35927979 145.62749268 28.25927734 146.14013672 C25.9688802 147.19174099 23.65697205 148.13800579 21.3125 149.0625 C20.45575684 149.40168457 19.59901367 149.74086914 18.71630859 150.09033203 C3.17202024 156.06803974 -13.77779756 161.22716316 -30.5625 161.125 C-31.11290665 118.32029789 -26.60020888 79.92975104 -16.2890625 38.26953125 C-15.0990193 33.42758453 -13.99736354 28.57632891 -12.9609375 23.69921875 C-12.70376953 22.50965576 -12.44660156 21.32009277 -12.18164062 20.09448242 C-11.69894372 17.8439556 -11.2306027 15.59028326 -10.77929688 13.33325195 C-7.94724051 0.27885054 -7.94724051 0.27885054 0 0 Z " fill="#9EAACD" transform="translate(343.5625,324.875)"/>
<path d="M0 0 C1.05192787 -0.00287018 1.05192787 -0.00287018 2.12510681 -0.00579834 C3.60529947 -0.00715767 5.08550416 -0.00347882 6.56567383 0.00488281 C8.83506919 0.01560245 11.10367586 0.0049713 13.37304688 -0.0078125 C14.81119967 -0.00649117 16.24935197 -0.00392934 17.6875 0 C18.99855713 0.00225586 20.30961426 0.00451172 21.66040039 0.00683594 C24.77734375 0.265625 24.77734375 0.265625 26.77734375 2.265625 C27.03181934 4.67415524 27.03181934 4.67415524 27.03804016 7.76292419 C27.04512497 8.93090546 27.05220978 10.09888672 27.05950928 11.30226135 C27.05703186 12.59011032 27.05455444 13.87795929 27.05200195 15.20483398 C27.05634736 16.56970499 27.06152993 17.93457356 27.06748962 19.29943848 C27.08090975 23.01224035 27.08145495 26.72494061 27.07892632 30.43776202 C27.0778586 33.53430698 27.08273489 36.63083122 27.08753175 39.72737175 C27.09863745 47.03123553 27.09905844 54.33504788 27.09301758 61.63891602 C27.08697634 69.18023312 27.0992901 76.72136372 27.12058765 84.262649 C27.13818645 90.7314846 27.14420772 97.20026075 27.1409499 103.66911942 C27.13913407 107.53524185 27.14180287 111.40123126 27.15566444 115.26733208 C27.16821026 118.90268273 27.16632983 122.53774207 27.15325356 126.17308807 C27.14974786 128.14655308 27.16108974 130.12002684 27.17282104 132.09346008 C27.16580673 133.26426117 27.15879242 134.43506226 27.15156555 135.64134216 C27.15173329 136.66101295 27.15190104 137.68068373 27.15207386 138.73125362 C26.77734375 141.265625 26.77734375 141.265625 25.42192364 143.10542393 C23.16448905 144.69797535 21.47239117 144.48414236 18.77734375 144.265625 C3.88287811 119.51085668 -7.3146705 92.74410875 -11.84765625 64.078125 C-11.96882812 63.34916016 -12.09 62.62019531 -12.21484375 61.86914062 C-13.53299663 53.76679871 -14.37906871 45.75060816 -14.4609375 37.5390625 C-14.46900925 36.74714508 -14.47708099 35.95522766 -14.48539734 35.13931274 C-14.49910941 33.48059194 -14.50988795 31.82184444 -14.51782227 30.16308594 C-14.52940345 28.4777796 -14.54995083 26.79251164 -14.5793457 25.10742188 C-14.62212306 22.64688721 -14.63819502 20.18742319 -14.6484375 17.7265625 C-14.66594559 16.98159515 -14.68345367 16.23662781 -14.70149231 15.46908569 C-14.67890414 9.97802249 -13.37528404 6.78281239 -10.22265625 2.265625 C-6.47898025 -0.230159 -4.47145113 0.00768715 0 0 Z " fill="#9EAACD" transform="translate(220.22265625,197.734375)"/>
<path d="M0 0 C2.15223925 -0.01931342 4.30057114 -0.08127855 6.4519043 -0.14453125 C17.99755377 -0.32240281 17.99755377 -0.32240281 22.41479492 3.32421875 C26.11445976 7.18934265 26.12476024 10.92774483 26.15698242 16.10546875 C26.16117187 16.76018158 26.16536133 17.41489441 26.16967773 18.08944702 C26.17948526 20.21984821 26.17946159 22.35004863 26.17651367 24.48046875 C26.17624176 25.20598938 26.17596985 25.93151001 26.1756897 26.67901611 C26.15600677 38.06267394 25.65244279 49.21132217 23.98901367 60.48046875 C23.84423584 61.57125732 23.84423584 61.57125732 23.6965332 62.68408203 C20.06927601 89.98083034 9.86150589 120.7610191 -6.01098633 143.48046875 C-9.01098633 144.48046875 -9.01098633 144.48046875 -12.01098633 144.48046875 C-13.67509747 143.33198643 -13.67509747 143.33198643 -15.01098633 141.48046875 C-15.38571644 138.94609737 -15.38571644 138.94609737 -15.38520813 135.85618591 C-15.39222244 134.68538483 -15.39923676 133.51458374 -15.40646362 132.30830383 C-15.39881989 131.0224791 -15.39117615 129.73665436 -15.38330078 128.41186523 C-15.38572851 127.04522423 -15.38944764 125.678585 -15.3943634 124.31195068 C-15.4037779 120.59920789 -15.39434293 116.88672846 -15.38103127 113.17400622 C-15.36972716 109.29252243 -15.37382342 105.4110518 -15.3757782 101.52955627 C-15.3766614 95.0119292 -15.3655745 88.4944061 -15.34716797 81.97680664 C-15.32599104 74.43491067 -15.32249218 66.89316693 -15.32872993 59.35124725 C-15.33441844 52.10304653 -15.32878457 44.85489958 -15.31755638 37.60670662 C-15.31290448 34.51861645 -15.31203908 31.43055909 -15.31414223 28.34246635 C-15.31602164 24.70878207 -15.3079482 21.07525341 -15.29208183 17.44160461 C-15.2857945 15.46678142 -15.2893529 13.49193465 -15.29315186 11.5171051 C-15.28606705 10.34912384 -15.27898224 9.18114258 -15.27168274 7.97776794 C-15.26962987 6.95847419 -15.267577 5.93918043 -15.26546192 4.88899899 C-14.5299825 -2.0720789 -5.34605236 0.02903819 0 0 Z " fill="#9EAACD" transform="translate(274.010986328125,197.51953125)"/>
<path d="M0 0 C4.47291432 1.69128201 6.32056292 5.26565729 8.9453125 9.12890625 C9.5115332 9.93803467 10.07775391 10.74716309 10.66113281 11.58081055 C12.39531155 14.06635352 14.10916849 16.56496684 15.8203125 19.06640625 C16.81166553 20.49927562 17.80380573 21.93160081 18.796875 23.36328125 C20.62368719 26.00260925 22.43747404 28.65020764 24.2421875 31.3046875 C25.93068449 33.78331449 27.64799359 36.23662002 29.3984375 38.671875 C40.33274072 53.92070173 39.25790008 65.8391485 37.98046875 84.28515625 C37.89405624 85.58610229 37.80764374 86.88704834 37.71861267 88.22741699 C37.49129812 91.64821487 37.25844359 95.06861269 37.02435303 98.48895264 C36.78938314 101.9377107 36.56005519 105.38684358 36.33007812 108.8359375 C35.46415632 121.78560397 35.46415632 121.78560397 35.05715942 127.55883789 C34.89146123 130.01273397 34.74304082 132.46783007 34.6076355 134.92358398 C34.53400787 136.17147705 34.46038025 137.41937012 34.38452148 138.70507812 C34.32368881 139.82974487 34.26285614 140.95441162 34.20018005 142.11315918 C33.83311614 144.96686545 33.4057365 146.68956147 31.8203125 149.06640625 C28.55232701 151.24506325 27.61126212 151.78849189 23.8203125 151.06640625 C18.9556552 146.32451633 17.46093242 141.67800209 15.8203125 135.19140625 C15.31540904 133.3146711 14.80888061 131.43837242 14.30078125 129.5625 C14.05376465 128.63550293 13.80674805 127.70850586 13.55224609 126.75341797 C12.50037804 122.89189036 11.33408599 119.07118377 10.1328125 115.25390625 C9.75769531 114.05121094 9.38257813 112.84851563 8.99609375 111.609375 C8.18674675 109.17057856 7.28646796 106.76071326 6.31401062 104.38224792 C4.70303545 100.09122478 4.13093098 96.01692684 3.74536133 91.4699707 C3.66689468 90.65087723 3.58842804 89.83178375 3.50758362 88.98786926 C3.25323956 86.30270027 3.0149504 83.61638507 2.77734375 80.9296875 C2.60307545 79.04404867 2.4279872 77.15848546 2.25212097 75.272995 C1.88646441 71.32720887 1.52834009 67.38083723 1.17602539 63.43383789 C0.7271187 58.40764449 0.2632404 53.38297934 -0.20591259 48.35863972 C-0.56843171 44.46484598 -0.92473061 40.5705028 -1.27904701 36.67595482 C-1.44782916 34.82490962 -1.61805097 32.97399505 -1.7898159 31.12322426 C-3.7730764 9.63598093 -3.7730764 9.63598093 -3.1796875 1.06640625 C-2.1796875 0.06640625 -2.1796875 0.06640625 0 0 Z " fill="#FC014F" transform="translate(199.1796875,339.93359375)"/>
<path d="M0 0 C2.475 0.495 2.475 0.495 5 1 C5.21303281 11.28848474 4.57404365 21.33126388 3.5390625 31.5546875 C3.38638084 33.11055384 3.23424211 34.66647354 3.08261108 36.22244263 C2.76557048 39.46170593 2.44417741 42.70049428 2.11914062 45.93896484 C1.70742388 50.04151155 1.30341543 54.14476775 0.90232277 58.2483654 C0.51317973 62.22574767 0.11994942 66.20272315 -0.2734375 70.1796875 C-0.34561871 70.91309231 -0.41779991 71.64649712 -0.49216843 72.40212631 C-1.25836723 80.16048168 -2.07167382 87.9126973 -2.99511719 95.65405273 C-3.14422546 96.91354233 -3.29333374 98.17303192 -3.44696045 99.47068787 C-4.30390264 104.93940432 -5.98764108 109.9999866 -7.875 115.1875 C-8.59613358 117.25352908 -9.31619585 119.31993242 -10.03515625 121.38671875 C-10.37691895 122.35528809 -10.71868164 123.32385742 -11.07080078 124.32177734 C-12.24013886 127.6921501 -13.28998429 131.08233076 -14.3125 134.5 C-18.40869495 147.9743255 -18.40869495 147.9743255 -22 151 C-24.4375 151.4375 -24.4375 151.4375 -27 151 C-30.32812598 148.22656168 -31.86069685 146.34489472 -32.31007385 142.00640869 C-32.3966777 140.72070984 -32.48328156 139.43501099 -32.57250977 138.11035156 C-32.62142365 137.40102982 -32.67033752 136.69170807 -32.72073364 135.96089172 C-32.88200114 133.60440991 -33.0369015 131.24755921 -33.19140625 128.890625 C-33.3018356 127.24548744 -33.41251127 125.60036639 -33.52342224 123.95526123 C-33.75567101 120.49525834 -33.98475079 117.03506342 -34.21166992 113.57470703 C-34.50033477 109.17690206 -34.79694052 104.77967726 -35.09605503 100.38257217 C-35.32678664 96.9766233 -35.5530337 93.57038709 -35.77802849 90.16405487 C-35.88547962 88.54553777 -35.99429329 86.92711045 -36.10458565 85.30878448 C-38.34393232 52.31155132 -38.34393232 52.31155132 -27.25 37.8125 C-26.09804347 36.26466831 -24.94842276 34.71509627 -23.80078125 33.1640625 C-23.19057129 32.34196289 -22.58036133 31.51986328 -21.95166016 30.67285156 C-17.64094624 24.76921184 -13.5293377 18.72314903 -9.38183594 12.7043457 C-8.73891602 11.77452881 -8.09599609 10.84471191 -7.43359375 9.88671875 C-6.86697021 9.06389404 -6.30034668 8.24106934 -5.71655273 7.39331055 C-3.89568185 4.85455399 -1.97135467 2.42315153 0 0 Z " fill="#FC004F" transform="translate(305,340)"/>
<path d="M0 0 C1.00796127 -0.00430527 1.00796127 -0.00430527 2.0362854 -0.00869751 C3.45681603 -0.01073699 4.87737481 -0.00521507 6.29785156 0.00732422 C8.46223543 0.02333154 10.62473793 0.00749998 12.7890625 -0.01171875 C14.17187909 -0.00973531 15.55469452 -0.00588955 16.9375 0 C18.19095215 0.00338379 19.4444043 0.00676758 20.73583984 0.01025391 C25.18908701 0.52386648 27.71711611 1.87022902 30.71530151 5.17974854 C32.39468386 7.86757364 32.49245966 9.46966221 32.52148438 12.62255859 C32.53739624 13.66399017 32.55330811 14.70542175 32.56970215 15.77841187 C32.56990356 16.8982547 32.57010498 18.01809753 32.5703125 19.171875 C32.58173279 20.90662582 32.58173279 20.90662582 32.59338379 22.67642212 C32.60418778 25.1224756 32.6070367 27.56857523 32.60253906 30.01464844 C32.60156788 33.75273869 32.64316666 37.48876922 32.6875 41.2265625 C32.69270784 43.60416239 32.69539518 45.98176941 32.6953125 48.359375 C32.7199054 50.03306656 32.7199054 50.03306656 32.74499512 51.74057007 C32.66808419 60.40029058 32.66808419 60.40029058 29.75195312 64.08837891 C24.36603043 68.78270467 17.56826867 67.656256 10.79541016 67.69360352 C8.60907148 67.71087817 6.42422219 67.75479443 4.23828125 67.79882812 C2.84896943 67.8089506 1.4596448 67.8174681 0.0703125 67.82421875 C-1.19361328 67.83880127 -2.45753906 67.85338379 -3.75976562 67.8684082 C-6.8984375 67.3984375 -6.8984375 67.3984375 -8.57034302 65.7387085 C-10.23801774 62.80005404 -10.27894206 60.85575912 -10.28662109 57.48413086 C-10.29607758 56.29287094 -10.30553406 55.10161102 -10.3152771 53.87425232 C-10.30920441 52.59188187 -10.30313171 51.30951141 -10.296875 49.98828125 C-10.29974518 48.66929337 -10.30261536 47.35030548 -10.30557251 45.99134827 C-10.3099898 43.20302769 -10.30358338 40.41499593 -10.28955078 37.62670898 C-10.27244208 34.05312895 -10.28231368 30.48022405 -10.30026817 26.90666866 C-10.3137135 23.49631866 -10.30430151 20.08615044 -10.296875 16.67578125 C-10.30294769 15.39138657 -10.30902039 14.10699188 -10.3152771 12.78367615 C-10.30109238 11.00151451 -10.30109238 11.00151451 -10.28662109 9.18334961 C-10.28423431 8.13618271 -10.28184753 7.08901581 -10.27938843 6.01011658 C-9.8984375 3.3984375 -9.8984375 3.3984375 -8.56835938 1.56114197 C-5.84855489 -0.3325567 -3.2613058 0.00882002 0 0 Z " fill="#9EAACD" transform="translate(268.8984375,122.6015625)"/>
<path d="M0 0 C2.18423185 -0.01721586 4.3669505 -0.06110433 6.55078125 -0.10522461 C7.94139513 -0.11535175 9.33202186 -0.12386779 10.72265625 -0.13061523 C12.62023682 -0.15248901 12.62023682 -0.15248901 14.55615234 -0.17480469 C18.49842461 0.39212151 19.40346126 1.20341913 21.82421875 4.29516602 C22.32542419 6.98913574 22.32542419 6.98913574 22.32592773 10.10180664 C22.33530869 11.26981812 22.34468964 12.43782959 22.35435486 13.64123535 C22.34312088 14.89859497 22.3318869 16.15595459 22.3203125 17.45141602 C22.32176773 18.74583618 22.32322296 20.04025635 22.32472229 21.37390137 C22.32610525 24.11104712 22.3135669 26.84766821 22.29077148 29.5847168 C22.26238612 33.08873181 22.26512504 36.59187539 22.2778616 40.0959549 C22.28649901 43.44369954 22.27136938 46.79118606 22.2578125 50.13891602 C22.26074814 51.39627563 22.26368378 52.65363525 22.26670837 53.94909668 C22.24768211 55.70111389 22.24768211 55.70111389 22.22827148 57.48852539 C22.2228685 58.51570679 22.21746552 59.54288818 22.2118988 60.60119629 C21.76522587 63.70510467 21.03321614 65.09045829 18.82421875 67.29516602 C15.64135742 67.82861328 15.64135742 67.82861328 11.7421875 67.86157227 C11.05038895 67.86777084 10.35859039 67.87396942 9.64582825 67.88035583 C8.1824382 67.88745452 6.71896741 67.88427888 5.25561523 67.87158203 C3.02889894 67.85777256 0.80643544 67.8917035 -1.41992188 67.92993164 C-2.8450531 67.9308835 -4.27018954 67.92902043 -5.6953125 67.92407227 C-6.98542236 67.92479736 -8.27553223 67.92552246 -9.60473633 67.92626953 C-14.25969038 67.10360896 -15.85960104 65.59949047 -19.17578125 62.29516602 C-20.42027399 59.80618053 -20.329678 58.08318915 -20.36865234 55.2980957 C-20.38471527 54.25651306 -20.4007782 53.21493042 -20.41732788 52.14178467 C-20.46175164 47.37114063 -20.50284959 42.60063651 -20.52587891 37.82983398 C-20.54243397 35.31378934 -20.56971765 32.79779164 -20.60791016 30.28198242 C-20.66268451 26.65592017 -20.68455583 23.03096132 -20.69921875 19.40454102 C-20.72188812 18.28247253 -20.7445575 17.16040405 -20.76791382 16.0043335 C-20.74434695 7.28725846 -20.74434695 7.28725846 -17.76806641 3.60083008 C-12.56368424 -1.02811936 -6.6256163 0.03642899 0 0 Z " fill="#9EAACD" transform="translate(225.17578125,122.704833984375)"/>
<path d="M0 0 C0.74121094 0.25007812 1.48242188 0.50015625 2.24609375 0.7578125 C7.19322208 15.92900605 8.13169465 37.20555746 1.24609375 51.7578125 C-3.31686683 59.94317911 -10.01484171 66.89216936 -16.15576172 73.92138672 C-18.27663854 76.35848349 -20.37372522 78.8154333 -22.46972656 81.27392578 C-23.97164611 83.03253877 -25.48119008 84.78434181 -26.9921875 86.53515625 C-28.72768201 88.54866397 -30.4254396 90.57857548 -32.109375 92.63671875 C-32.79644531 93.46042969 -33.48351562 94.28414063 -34.19140625 95.1328125 C-34.76761719 95.84179688 -35.34382813 96.55078125 -35.9375 97.28125 C-37.75390625 98.7578125 -37.75390625 98.7578125 -40.3515625 99.109375 C-42.75390625 98.7578125 -42.75390625 98.7578125 -44.75390625 96.7578125 C-44.95690763 93.78145404 -45.03678009 90.92082393 -45.00390625 87.9453125 C-44.99786377 87.08671631 -44.99182129 86.22812012 -44.9855957 85.34350586 C-44.87749151 78.34163032 -44.18952418 71.61988562 -42.75390625 64.7578125 C-42.46193359 63.28828125 -42.46193359 63.28828125 -42.1640625 61.7890625 C-37.77009134 42.0291922 -27.18304147 25.51212478 -13.17480469 11.25390625 C-11.7744894 9.77948493 -10.46494531 8.2609413 -9.16796875 6.6953125 C-8.39195312 5.7671875 -7.6159375 4.8390625 -6.81640625 3.8828125 C-5.81287109 2.64917969 -5.81287109 2.64917969 -4.7890625 1.390625 C-2.75390625 -0.2421875 -2.75390625 -0.2421875 0 0 Z " fill="#9EA9CC" transform="translate(356.75390625,190.2421875)"/>
<path d="M0 0 C3.90751898 0.28629269 5.82513001 1.33681623 8.453125 4.17578125 C9.06800781 4.83288086 9.68289062 5.48998047 10.31640625 6.16699219 C11.27353516 7.22901855 11.27353516 7.22901855 12.25 8.3125 C13.24580078 9.39966309 13.24580078 9.39966309 14.26171875 10.50878906 C34.32933073 32.67900171 46.16412128 57.76320884 46.1875 87.875 C46.19974609 88.72835937 46.21199219 89.58171875 46.22460938 90.4609375 C46.22654297 91.275625 46.22847656 92.0903125 46.23046875 92.9296875 C46.23457764 93.66429199 46.23868652 94.39889648 46.24291992 95.15576172 C46 97 46 97 44 99 C41.734375 99.48828125 41.734375 99.48828125 39 99 C36.84994485 97.11119456 35.09669587 95.33932565 33.25 93.1875 C32.72559326 92.59799561 32.20118652 92.00849121 31.66088867 91.40112305 C27.69650877 86.91001158 23.89537759 82.28681121 20.1484375 77.61328125 C17.99210174 74.99039285 15.73996285 72.49498961 13.4375 70 C2.48121927 57.87530472 -4.20544993 46.4269527 -4.1875 29.8125 C-4.18669434 29.03455078 -4.18588867 28.25660156 -4.18505859 27.45507812 C-4.12521944 21.60257398 -3.74230842 15.81923948 -3.125 10 C-3.04660889 9.22889893 -2.96821777 8.45779785 -2.88745117 7.66333008 C-2.25030079 2.25030079 -2.25030079 2.25030079 0 0 Z " fill="#9EAACC" transform="translate(148,190)"/>
<path d="M0 0 C0.65725571 -0.00686325 1.31451141 -0.0137265 1.99168396 -0.02079773 C4.16402805 -0.03909689 6.33565202 -0.03522403 8.50805664 -0.02954102 C10.01876562 -0.03410157 11.52947252 -0.03940677 13.04017639 -0.04542542 C16.20688299 -0.05436275 19.3733375 -0.05192675 22.54003906 -0.04199219 C26.59679669 -0.03050514 30.65268354 -0.05070571 34.70932674 -0.07990932 C37.82948834 -0.09826311 40.94944099 -0.09798053 44.06964302 -0.0922718 C45.565163 -0.09211847 47.06069703 -0.09817316 48.5561657 -0.11056328 C50.64867488 -0.12545616 52.73957224 -0.11481162 54.83203125 -0.09765625 C56.6171537 -0.097407 56.6171537 -0.097407 58.43833923 -0.09715271 C62.08420011 0.50347217 63.25320613 1.51462444 65.48071289 4.40405273 C67.57723846 12.25517952 63.93386133 20.4897993 60.48071289 27.40405273 C52.57411431 40.88037825 52.57411431 40.88037825 47.48071289 43.40405273 C42.28980501 43.18904472 38.04349852 41.60265973 33.29321289 39.59155273 C31.96210245 39.04373701 30.63005888 38.49818351 29.29711914 37.95483398 C28.64630371 37.68880371 27.99548828 37.42277344 27.32495117 37.14868164 C18.7246146 33.67621321 10.09773456 31.54131299 0.9777832 29.97387695 C-2.40036242 29.34038773 -5.06391965 28.66716953 -8.05444336 26.93920898 C-10.45983084 22.77628505 -10.05543305 18.55428278 -9.95678711 13.84155273 C-9.96387695 12.88313477 -9.9709668 11.9247168 -9.97827148 10.93725586 C-9.91484232 3.97468551 -9.91484232 3.97468551 -8.40148926 1.79150391 C-5.6255557 -0.25475466 -3.42244746 0.01554835 0 0 Z " fill="#9EAACD" transform="translate(268.519287109375,24.595947265625)"/>
<path d="M0 0 C0.65900803 -0.00700928 1.31801605 -0.01401855 1.99699402 -0.02124023 C4.16891986 -0.03880391 6.33953623 -0.02720638 8.51147461 -0.01367188 C10.02315012 -0.01636698 11.53482395 -0.02024955 13.04649353 -0.02526855 C16.21150246 -0.03116105 19.37605931 -0.02260805 22.54101562 -0.00390625 C26.59900089 0.01890343 30.65592913 0.00574702 34.71387577 -0.01819611 C37.83401976 -0.03264458 40.95391274 -0.02805298 44.07406425 -0.01768494 C45.5703996 -0.01501599 47.06675772 -0.01829335 48.56306648 -0.02760315 C50.65333646 -0.0377562 52.74188933 -0.02229024 54.83203125 0 C56.02131729 0.00318237 57.21060333 0.00636475 58.43592834 0.00964355 C61.35131836 0.51757812 61.35131836 0.51757812 63.23451233 2.40977478 C64.52817786 4.85137382 64.73807911 6.4245232 64.74975586 9.17773438 C64.75362305 10.05365234 64.75749023 10.92957031 64.76147461 11.83203125 C64.74987305 12.73888672 64.73827148 13.64574219 64.72631836 14.58007812 C64.73791992 15.49080078 64.74952148 16.40152344 64.76147461 17.33984375 C64.75760742 18.21447266 64.75374023 19.08910156 64.74975586 19.99023438 C64.74637207 20.78695557 64.74298828 21.58367676 64.73950195 22.40454102 C64.2453381 25.09447064 63.54359771 25.90525412 61.35131836 27.51757812 C59.10571289 28.34545898 59.10571289 28.34545898 56.48413086 28.98242188 C55.52240967 29.22283203 54.56068848 29.46324219 53.56982422 29.7109375 C52.03853882 30.07928711 52.03853882 30.07928711 50.47631836 30.45507812 C48.37560239 30.98321736 46.27533727 31.51315324 44.17553711 32.04492188 C42.66032471 32.42559814 42.66032471 32.42559814 41.11450195 32.81396484 C31.81999938 35.18070423 23.13738109 38.31853071 14.44506836 42.34570312 C11.38062455 43.5064773 9.56982809 44.06208312 6.35131836 43.51757812 C-1.12218114 38.01314436 -9.19363272 24.80308766 -10.64868164 15.51757812 C-10.81274886 13.68863205 -10.9132728 11.85324328 -10.96118164 10.01757812 C-10.99856445 9.07914063 -11.03594727 8.14070313 -11.07446289 7.17382812 C-10.06089913 0.85067805 -5.7159254 0.01528484 0 0 Z " fill="#9EAACD" transform="translate(182.648681640625,24.482421875)"/>
<path d="M0 0 C2.03340849 1.54705992 2.89341967 2.43807285 3.3742218 4.97302246 C3.37359238 5.72120239 3.37296295 6.46938232 3.37231445 7.24023438 C3.38165764 8.51670837 3.38165764 8.51670837 3.39118958 9.81896973 C3.38197983 10.73464722 3.37277008 11.65032471 3.36328125 12.59375 C3.36402901 14.0083551 3.36402901 14.0083551 3.36479187 15.45153809 C3.3624514 17.44541531 3.35272445 19.43929549 3.33618164 21.43310547 C3.31259093 24.48822397 3.31562071 27.54246984 3.32226562 30.59765625 C3.31668882 32.53385938 3.30957892 34.47005883 3.30078125 36.40625 C3.30214836 37.77976624 3.30214836 37.77976624 3.30354309 39.18103027 C3.29401108 40.03201294 3.28447906 40.88299561 3.2746582 41.75976562 C3.27005081 42.50794556 3.26544342 43.25612549 3.26069641 44.02697754 C3 46 3 46 1 49 C-0.80134583 49.39440918 -0.80134583 49.39440918 -3.00317383 49.41992188 C-3.82775589 49.43583374 -4.65233795 49.45174561 -5.50190735 49.46813965 C-6.84094368 49.46844177 -6.84094368 49.46844177 -8.20703125 49.46875 C-9.58334969 49.48017029 -9.58334969 49.48017029 -10.98747253 49.49182129 C-12.9318062 49.50264029 -14.87619806 49.50546811 -16.82055664 49.50097656 C-19.79087026 49.50000706 -22.75857726 49.54154749 -25.72851562 49.5859375 C-27.61718211 49.59114654 -29.50585758 49.59383266 -31.39453125 49.59375 C-32.28114944 49.61014526 -33.16776764 49.62654053 -34.08125305 49.64343262 C-38.549699 49.59357789 -40.39897665 49.47851119 -44.00146484 46.61035156 C-48.51678287 40.7127483 -51.95888855 34.63899678 -51.3984375 27.01953125 C-50.05709764 20.22077922 -44.5433047 16.7376965 -39.17578125 13.01953125 C-28.19428135 6.03621581 -13.5290488 -1.41899506 0 0 Z " fill="#9EAACD" transform="translate(244,64)"/>
<path d="M0 0 C15.16447702 2.89311566 29.5593127 9.85643214 40.64453125 20.6953125 C43.21186955 25.0063379 43.48338763 28.7923416 42.64453125 33.6953125 C38.04195984 45.73970391 38.04195984 45.73970391 32.64453125 48.6953125 C29.47606799 49.14395534 26.33237321 49.11551124 23.13671875 49.09375 C22.214888 49.09662018 21.29305725 49.09949036 20.34329224 49.10244751 C18.39828882 49.10448623 16.45326481 49.09896979 14.50830078 49.08642578 C11.52330037 49.07033282 8.5396465 49.08629974 5.5546875 49.10546875 C3.66536158 49.103487 1.77603651 49.09964475 -0.11328125 49.09375 C-1.45702316 49.10285904 -1.45702316 49.10285904 -2.82791138 49.1121521 C-4.06962601 49.09796738 -4.06962601 49.09796738 -5.33642578 49.08349609 C-6.43085495 49.07991592 -6.43085495 49.07991592 -7.5473938 49.07626343 C-9.35546875 48.6953125 -9.35546875 48.6953125 -11.35546875 45.6953125 C-11.61616516 43.72229004 -11.61616516 43.72229004 -11.63012695 41.45507812 C-11.64442497 40.17860413 -11.64442497 40.17860413 -11.65901184 38.87634277 C-11.65810043 37.96066528 -11.65718903 37.04498779 -11.65625 36.1015625 C-11.66267769 34.6869574 -11.66267769 34.6869574 -11.66923523 33.24377441 C-11.67497807 31.24992679 -11.67547913 29.25605821 -11.67114258 27.26220703 C-11.66798084 24.20699473 -11.69144851 21.15274892 -11.71679688 18.09765625 C-11.71906964 16.16145956 -11.71977347 14.22526026 -11.71875 12.2890625 C-11.72795975 11.37338501 -11.73716949 10.45770752 -11.74665833 9.51428223 C-11.74042953 8.66329956 -11.73420074 7.81231689 -11.7277832 6.93554688 C-11.72841263 6.18736694 -11.72904205 5.43918701 -11.72969055 4.66833496 C-10.5207247 -1.70573722 -5.0945238 -0.57906316 0 0 Z " fill="#9EAACD" transform="translate(270.35546875,64.3046875)"/>
<path d="M0 0 C1.32 0 2.64 0 4 0 C3.99363525 0.91998779 3.98727051 1.83997559 3.98071289 2.7878418 C3.94542956 19.91736348 3.92974582 35.7187486 10.64941406 51.72753906 C12.35959057 55.87128562 13.95768466 60.05376641 15.5546875 64.2421875 C16.20380328 65.94210905 16.85305676 67.64197802 17.50244141 69.34179688 C17.83093079 70.20168213 18.15942017 71.06156738 18.49786377 71.94750977 C19.81848111 75.39354969 21.15197112 78.83453958 22.48556519 82.27557373 C26.55259269 92.77505965 30.53114504 103.28509244 34 114 C34.35449219 115.03769531 34.70898438 116.07539063 35.07421875 117.14453125 C37.91410843 126.53801251 37.25904199 136.29072249 37 146 C34.63427734 145.80981445 34.63427734 145.80981445 32 145 C30.75244141 142.88745117 30.75244141 142.88745117 29.8515625 140.04296875 C29.49416992 138.96885742 29.13677734 137.89474609 28.76855469 136.78808594 C28.39118164 135.59989258 28.01380859 134.41169922 27.625 133.1875 C26.75559243 130.61006462 25.88016717 128.03583192 24.9921875 125.46484375 C24.75802124 124.78394684 24.52385498 124.10304993 24.28259277 123.40151978 C21.43369213 115.21727793 18.10953037 107.23525692 14.75 99.25 C14.43338409 98.49569702 14.11676819 97.74139404 13.79055786 96.9642334 C9.14461439 85.91326134 4.37748857 74.91570681 -0.4375 63.9375 C-0.72913025 63.27231354 -1.0207605 62.60712708 -1.32122803 61.92178345 C-4.83834688 53.90028033 -4.83834688 53.90028033 -8.38232422 45.890625 C-9.55771263 43.24430646 -10.71828386 40.59201865 -11.875 37.9375 C-12.20298584 37.21232178 -12.53097168 36.48714355 -12.86889648 35.73999023 C-14.78087748 31.30613998 -15.63451308 27.80807757 -15 23 C-13.71190821 20.4867898 -12.48571675 18.40079721 -10.875 16.125 C-10.46483643 15.52220215 -10.05467285 14.9194043 -9.63208008 14.29833984 C-8.8102276 13.09093688 -7.98293114 11.88721932 -7.14990234 10.6875 C-5.11032619 7.69438952 -3.26235307 4.57445702 -1.38671875 1.4765625 C-0.70029297 0.74566406 -0.70029297 0.74566406 0 0 Z " fill="#9DA9CB" transform="translate(361,250)"/>
<path d="M0 0 C3.99199258 0.69545073 5.31331961 2.30943787 7.6550293 5.60864258 C8.07824463 6.23279053 8.50145996 6.85693848 8.9375 7.5 C9.37553955 8.13639404 9.8135791 8.77278809 10.26489258 9.4284668 C11.52427442 11.27644986 12.76314634 13.13689793 14 15 C14.59296875 15.86238281 15.1859375 16.72476562 15.796875 17.61328125 C16.48523438 18.70189453 16.48523438 18.70189453 17.1875 19.8125 C17.57292969 20.41707031 17.95835937 21.02164062 18.35546875 21.64453125 C20.68606357 30.16179595 16.05935042 38.01081935 12.48651123 45.49237061 C10.75315181 49.12971215 9.07079364 52.79065483 7.3828125 56.44921875 C7.02547028 57.22150818 6.66812805 57.99379761 6.29995728 58.78948975 C2.16729656 67.74993693 -1.75815157 76.79713444 -5.625 85.875 C-6.15626999 87.12153351 -6.15626999 87.12153351 -6.69827271 88.39324951 C-13.6171231 104.68444054 -19.86549159 121.19968011 -25.84936523 137.85424805 C-26.85082715 140.59217224 -27.89963107 143.30059307 -29 146 C-30.65 145.67 -32.3 145.34 -34 145 C-34.83693361 130.53964711 -31.77498296 117.57593341 -26.95703125 104.01953125 C-26.65766663 103.17102097 -26.358302 102.32251068 -26.04986572 101.44828796 C-21.97578188 89.99811924 -17.59957539 78.66005518 -13.25 67.3125 C-11.97129792 63.97350552 -10.69346185 60.63418949 -9.41790771 57.29399109 C-8.63290366 55.23858639 -7.84612135 53.18385956 -7.05718994 51.12995911 C-6.02366325 48.42512376 -5.00726697 45.71471065 -4 43 C-3.69990524 42.20867172 -3.39981049 41.41734344 -3.09062195 40.60203552 C-1.26520963 35.54177025 -0.53745715 31.04957975 -0.48828125 25.68359375 C-0.47033005 24.94166275 -0.45237885 24.19973175 -0.43388367 23.43531799 C-0.38039433 21.10276714 -0.34608622 18.77041331 -0.3125 16.4375 C-0.27927239 14.8404677 -0.24477784 13.24346123 -0.20898438 11.64648438 C-0.12470507 7.76446676 -0.05760577 3.88250128 0 0 Z " fill="#9DA8CB" transform="translate(144,250)"/>
<path d="M0 0 C0.99 0.33 1.98 0.66 3 1 C3.10026352 5.60402353 3.17211133 10.20738632 3.21972656 14.81225586 C3.23961365 16.37259007 3.26673352 17.93285209 3.30175781 19.49291992 C3.56647955 31.6039392 3.18738263 44.09220418 -4.95703125 53.890625 C-9.74287224 58.8320287 -14.80097663 63.49711705 -20 68 C-20.72960937 68.63292969 -21.45921875 69.26585937 -22.2109375 69.91796875 C-22.80132812 70.27503906 -23.39171875 70.63210937 -24 71 C-24.99 70.67 -25.98 70.34 -27 70 C-27.10012648 65.78660063 -27.17204874 61.57386186 -27.21972656 57.35961914 C-27.23963609 55.93111076 -27.26677429 54.50268162 -27.30175781 53.07446289 C-27.77465437 33.24757934 -20.19906448 22.17600311 -7 8 C-4.64698252 5.3502432 -2.31882383 2.67970039 0 0 Z " fill="#9DA9CC" transform="translate(352,92)"/>
<path d="M0 0 C3.94432704 1.56302004 6.41632097 4.28143133 9.1875 7.375 C9.66509766 7.90303223 10.14269531 8.43106445 10.63476562 8.97509766 C20.50848288 20.05188736 29.32405155 30.95178802 29.1953125 46.46484375 C29.1924826 47.14301651 29.18965271 47.82118927 29.18673706 48.51991272 C29.17565416 50.65929766 29.1505736 52.7982443 29.125 54.9375 C29.11495476 56.39908244 29.10583163 57.86067153 29.09765625 59.32226562 C29.07575425 62.88164979 29.04130866 66.44078203 29 70 C23.84873454 70 21.83763516 67.75825246 18.1875 64.5 C17.56311035 63.94973145 16.9387207 63.39946289 16.29541016 62.83251953 C8.52059462 55.89427333 3.31550851 50.03565211 0 40 C-0.495 38.515 -0.495 38.515 -1 37 C-1.09696456 34.2802357 -1.13997298 31.58685028 -1.1328125 28.8671875 C-1.13376923 28.0747464 -1.13472595 27.2823053 -1.13571167 26.46585083 C-1.13639159 24.79315105 -1.13455042 23.12044861 -1.13037109 21.44775391 C-1.12500599 18.87787002 -1.13032968 16.30815979 -1.13671875 13.73828125 C-1.13605821 12.11458295 -1.13477756 10.49088475 -1.1328125 8.8671875 C-1.13483673 8.09430389 -1.13686096 7.32142029 -1.13894653 6.52511597 C-1.11496066 1.11496066 -1.11496066 1.11496066 0 0 Z " fill="#9DA9CC" transform="translate(152,92)"/>
<path d="M0 0 C4.2362474 0.14058343 6.86074546 3.29898494 9.75 6.0625 C10.27787109 6.56056152 10.80574219 7.05862305 11.34960938 7.57177734 C12.41134401 8.57693355 13.46999159 9.5853615 14.52539062 10.59716797 C15.80562986 11.81509092 17.1116188 13.00583572 18.421875 14.19140625 C19.10765625 14.82949219 19.7934375 15.46757812 20.5 16.125 C21.38171875 16.93324219 21.38171875 16.93324219 22.28125 17.7578125 C27.85200507 25.0251157 28.56866315 31.99455978 28.3125 40.9375 C28.30283203 41.97712891 28.29316406 43.01675781 28.28320312 44.08789062 C28.16988913 51.66022175 28.16988913 51.66022175 27 54 C24.8359375 54.3125 24.8359375 54.3125 22 54 C19.3515625 51.875 19.3515625 51.875 16.625 49 C16.14603271 48.49960205 15.66706543 47.9992041 15.17358398 47.48364258 C13.76642716 46.00308535 12.38031579 44.50556571 11 43 C10.29746094 42.24074219 9.59492188 41.48148438 8.87109375 40.69921875 C0.68880141 31.59796485 -2.35009733 24.44519085 -2.25 12.25 C-2.25773438 11.29222656 -2.26546875 10.33445313 -2.2734375 9.34765625 C-2.27085937 8.43371094 -2.26828125 7.51976562 -2.265625 6.578125 C-2.26336914 5.74700195 -2.26111328 4.91587891 -2.25878906 4.05957031 C-2 2 -2 2 0 0 Z " fill="#9DA9CC" transform="translate(153,154)"/>
<path d="M0 0 C2.32881085 2.32881085 1.28082563 7.87901923 1.3125 11 C1.34150391 11.92167969 1.37050781 12.84335938 1.40039062 13.79296875 C1.47493077 21.92357864 -0.45719681 28.92421888 -6.1875 34.9375 C-6.785625 35.58074219 -7.38375 36.22398437 -8 36.88671875 C-8.66 37.58410156 -9.32 38.28148437 -10 39 C-11.5651777 40.74760551 -13.12760194 42.49768031 -14.6875 44.25 C-16.11502283 45.84233453 -17.55202996 47.42623589 -19 49 C-19.69222656 49.7528125 -20.38445312 50.505625 -21.09765625 51.28125 C-23 53 -23 53 -25.75 53.25 C-26.4925 53.1675 -27.235 53.085 -28 53 C-29.90335092 49.19329817 -29.22832971 44.56278422 -29.25 40.375 C-29.270625 39.40175781 -29.29125 38.42851562 -29.3125 37.42578125 C-29.35404885 29.70808267 -28.44767156 23.00071119 -22.9375 17.125 C-22.33164062 16.47402344 -21.72578125 15.82304687 -21.1015625 15.15234375 C-20.40804688 14.44207031 -19.71453125 13.73179687 -19 13 C-17.74316406 11.70255859 -17.74316406 11.70255859 -16.4609375 10.37890625 C-5.646993 -0.61048573 -5.646993 -0.61048573 0 0 Z " fill="#9DA9CC" transform="translate(354,155)"/>
</svg>
