<?xml version="1.0" encoding="UTF-8"?>
<svg version="1.1" xmlns="http://www.w3.org/2000/svg" width="512" height="512">
<path d="M0 0 C2.45809415 4.16484447 2.79241772 9.19063459 3.47265625 13.9140625 C3.6646183 15.19124649 3.6646183 15.19124649 3.86045837 16.49423218 C4.26687857 19.2036691 4.66517186 21.91421611 5.0625 24.625 C5.46458332 27.34272752 5.86841569 30.06017121 6.2752533 32.77719116 C6.52761424 34.46507322 6.77703753 36.15339768 7.02320862 37.8421936 C7.49315052 41.00473448 7.98669592 43.96008777 9 47 C11.0155565 48.4033574 12.98761821 49.6371982 15.11328125 50.8515625 C16.06322716 51.40894356 16.06322716 51.40894356 17.03236389 51.97758484 C19.12122268 53.20131226 21.2168822 54.41289049 23.3125 55.625 C25.49748439 56.90213963 27.6804801 58.18263134 29.86334229 59.46339417 C31.35605941 60.33906985 32.84935252 61.21376437 34.34320068 62.08750916 C41.73618849 66.41566082 49.06164145 70.85150317 56.375 75.3125 C61.23283994 78.27250731 61.23283994 78.27250731 66.09326172 81.22827148 C67.9851087 82.38139878 69.87242712 83.54199979 71.75439453 84.71118164 C76.46489166 87.6100516 80.92097836 89.94545351 86.125 91.8125 C99.08950692 96.74174832 110.75585767 103.6056734 121 113 C121.94746094 113.86625 122.89492188 114.7325 123.87109375 115.625 C142.74774821 133.65643113 149.58552965 158.78895707 150.1875 184.3125 C150.42812951 203.43578674 150.42812951 203.43578674 148.77001953 212.6953125 C147.53540187 219.67419492 147.53540187 219.67419492 149.8125 226.3046875 C151.57249572 228.37053613 153.2907388 230.2716089 155.20703125 232.171875 C167.99547614 245.12129332 176.15325542 266.45686357 180 284 C180.25604004 285.1358252 180.51208008 286.27165039 180.77587891 287.44189453 C183.20586427 299.05452176 183.59091346 310.56767832 183.61083984 322.40576172 C183.62513674 325.65608755 183.69297302 328.9027673 183.76171875 332.15234375 C183.77409663 334.23956653 183.78332698 336.3268109 183.7890625 338.4140625 C183.81578033 339.37454498 183.84249817 340.33502747 183.87002563 341.32461548 C183.81857049 346.41482552 183.32952653 349.26239204 179.68505859 352.95849609 C178.477855 353.99742387 177.2516239 355.01503856 176 356 C175.32453125 356.60328125 174.6490625 357.2065625 173.953125 357.828125 C173.39109375 358.29734375 172.8290625 358.7665625 172.25 359.25 C166.88732392 363.87905372 161.97000055 368.95904771 157 374 C151.38470736 379.69545657 145.77127455 385.31776399 139.68457031 390.51611328 C136.63745216 393.20022693 133.98341268 396.26010373 131.2734375 399.27734375 C129 401 129 401 125.87890625 401.44140625 C123 401 123 401 120.5625 398 C111.26818404 381.06035962 103.75032843 361.12008506 103.98046875 341.5625 C104.08010873 330.34480347 101.05006125 324.77407646 93.42773438 316.61621094 C91.03992382 313.91318326 89.04718654 310.96617904 87 308 C74.77632821 322.74746035 74.77632821 322.74746035 67 340 C66.83008545 340.57258545 66.6601709 341.1451709 66.48510742 341.73510742 C63.57564472 355.31894512 67.61357398 370.14442282 70 383.5 C74.64659086 409.50453659 74.64659086 409.50453659 74 423 C73.95285873 425.01374652 73.90582035 427.02749911 73.86343384 429.04135132 C73.80178987 431.74700551 73.7158924 434.45159327 73.62768555 437.15649414 C73.56130761 439.22465162 73.50224831 441.2929453 73.44335938 443.36132812 C73.40146484 444.67939453 73.35957031 445.99746094 73.31640625 447.35546875 C73.27974854 448.53778076 73.24309082 449.72009277 73.20532227 450.93823242 C72.86636011 455.99283924 72.86636011 455.99283924 72 458 C70.0925293 459.4128418 70.0925293 459.4128418 67.57421875 460.69921875 C66.64262939 461.18173096 65.71104004 461.66424316 64.7512207 462.16137695 C63.74019287 462.66499756 62.72916504 463.16861816 61.6875 463.6875 C60.64875732 464.21496826 59.61001465 464.74243652 58.53979492 465.28588867 C30.85584181 479.21963174 1.83053136 490.57677602 -29 495 C-29.89460937 495.13148438 -30.78921875 495.26296875 -31.7109375 495.3984375 C-76.45067877 500.89800702 -125.51072781 481.99762075 -163 459 C-170.38952579 451.61047421 -167.34211556 427.58932408 -167.34449768 417.6156311 C-167.13459823 403.62291742 -164.57761031 389.94423116 -161.89672852 376.24487305 C-158.32563441 357.91799957 -156.24810729 341.39136584 -167 325 C-169.25839511 321.89073067 -171.55978908 318.83412877 -173.9140625 315.796875 C-175.79657584 313.27275599 -177.43596454 310.72959054 -179 308 C-180.62685072 309.78307149 -182.21604271 311.58794564 -183.78125 313.42578125 C-185.35917004 315.25650186 -186.9906512 317.0416406 -188.65625 318.79296875 C-196.24245356 327.16156323 -196.97709621 333.70692134 -196.95166016 344.72998047 C-197.31225592 361.663412 -203.68214974 388.68214974 -216 401 C-219.58210073 401.40637277 -221.35149143 401.49139567 -224.2734375 399.27734375 C-224.96695313 398.50519531 -225.66046875 397.73304688 -226.375 396.9375 C-229.1713234 393.93976637 -231.93618618 391.0908744 -235.0625 388.4375 C-238.55653675 385.44162294 -241.77610076 382.24298539 -245.00390625 378.96484375 C-246.92107177 377.07769256 -248.89575322 375.31314625 -250.9375 373.5625 C-254.74544329 370.29109667 -258.24564064 366.77163109 -261.76953125 363.19921875 C-264.40334881 360.60230231 -267.15361548 358.18420656 -269.98046875 355.80078125 C-270.64691406 355.20652344 -271.31335938 354.61226563 -272 354 C-273.01739258 353.19151611 -274.03478516 352.38303223 -275.08300781 351.55004883 C-278.52218865 348.07092882 -278.70874147 345.12487627 -278.75672913 340.36239624 C-278.73517258 339.38428986 -278.71361603 338.40618347 -278.69140625 337.3984375 C-278.69003159 336.36675446 -278.68865692 335.33507141 -278.6872406 334.27212524 C-278.67818893 332.08495761 -278.65457629 329.89780844 -278.61743164 327.7109375 C-278.5634742 324.43416234 -278.55589784 321.15998086 -278.55664062 317.8828125 C-278.40304689 287.39062658 -272.77714235 258.17206287 -253 234 C-251.13604975 232.44499178 -249.26120778 230.90293368 -247.375 229.375 C-244.09762158 226.25946742 -242.7326837 224.18006542 -242.59375 219.71875 C-242.73543933 215.57742199 -243.21377252 211.48256056 -243.73193359 207.37353516 C-246.58232212 182.13539555 -242.26126896 147.91103895 -227 127 C-224.13546393 123.52799375 -221.10920759 120.25279444 -218 117 C-217.47019531 116.39542969 -216.94039062 115.79085937 -216.39453125 115.16796875 C-206.37434821 104.16895035 -191.46264163 96.8865837 -177.93774414 91.12084961 C-171.39970789 88.32826529 -165.32418787 84.89211749 -159.1875 81.3125 C-158.06819092 80.6632959 -156.94888184 80.0140918 -155.7956543 79.34521484 C-146.037497 73.66907987 -136.36346671 67.85135942 -126.74926758 61.93481445 C-121.87496902 58.93786945 -117.01122666 55.95773357 -111.97265625 53.2421875 C-111.26262451 52.85144043 -110.55259277 52.46069336 -109.82104492 52.05810547 C-108.05710212 51.09901274 -106.27551333 50.17255193 -104.4921875 49.25 C-101.81284889 46.83103599 -101.59588276 46.27162928 -100.93408203 42.91577148 C-100.77336212 42.11090302 -100.61264221 41.30603455 -100.447052 40.47677612 C-99.7637261 36.69098551 -99.13883296 32.9011551 -98.5625 29.09765625 C-98.30499898 27.44982109 -98.04717751 25.80203597 -97.7890625 24.15429688 C-97.39065471 21.59158573 -96.99483184 19.02855284 -96.60449219 16.46459961 C-96.22276603 13.96609295 -95.83092597 11.46934341 -95.4375 8.97265625 C-95.322854 8.20188248 -95.20820801 7.4311087 -95.09008789 6.63697815 C-94.22702519 1.22702519 -94.22702519 1.22702519 -92 -1 C-65.30923112 -8.89864292 -25.29008801 -13.70570122 0 0 Z " fill="#4A4E69" transform="translate(302,12)"/>
<path d="M0 0 C1.80200195 1.43359375 1.80200195 1.43359375 3.42578125 3.4375 C4.02213379 4.17097656 4.61848633 4.90445312 5.23291016 5.66015625 C8.02224506 9.35357787 10.63160102 13.14233384 13.1875 17 C18.74422478 25.25688622 24.52953749 33.29943942 30.62548828 41.16699219 C31.5736609 42.43144689 32.48171107 43.72664596 33.35498047 45.04394531 C37.17267203 50.64990316 41.24228918 53.35745387 47.25 56.375 C48.17224365 56.85904297 49.0944873 57.34308594 50.04467773 57.84179688 C52.72770351 59.24806649 55.41893148 60.63738241 58.11224365 62.02380371 C64.01452198 65.07598902 69.88609609 68.18744508 75.7623291 71.28936768 C78.03339216 72.48467988 80.30876201 73.67143658 82.58496094 74.85693359 C84.00595542 75.602356 85.42685795 76.34795373 86.84765625 77.09375 C87.49579788 77.42875519 88.14393951 77.76376038 88.8117218 78.10891724 C98.27177721 83.09852939 98.27177721 83.09852939 100.125 87.9375 C100 91 100 91 98.125 93.5625 C95.64795104 95.49459819 93.55675062 96.82181984 90.8125 98.25 C85.07221694 101.2968391 80.61434831 105.47024808 76 110 C75.05640625 110.90685547 75.05640625 110.90685547 74.09375 111.83203125 C56.4036241 130.28604895 53.5527377 158.34921082 54.01391602 182.64575195 C54.04657172 184.1861496 54.08077611 185.72651512 54.11645508 187.2668457 C54.38205871 199.70573109 53.18204816 207.61807631 45.625 217.8125 C44.53769706 219.31541935 43.45180863 220.81936286 42.3671875 222.32421875 C41.80870117 223.09556152 41.25021484 223.8669043 40.67480469 224.66162109 C37.96920657 228.439204 35.36083126 232.28159094 32.75 236.125 C27.16302326 244.32545917 21.50831196 252.4772629 15.83251953 260.61645508 C11.27561956 267.15430219 6.74706599 273.71058149 2.27294922 280.30541992 C0.62928569 282.71367644 -0.93302796 284.93302796 -3 287 C-7.55555556 286.44444444 -7.55555556 286.44444444 -9 285 C-9.10587566 282.74667296 -9.13969835 280.48996202 -9.14717102 278.23416138 C-9.15084771 277.51827941 -9.1545244 276.80239744 -9.1583125 276.06482208 C-9.16939274 273.64753706 -9.1732006 271.23029495 -9.17700195 268.81298828 C-9.18326372 267.08686688 -9.18991025 265.36074684 -9.19691467 263.6346283 C-9.21436001 258.92955823 -9.22488767 254.22449837 -9.2331202 249.51940393 C-9.23826661 246.57867791 -9.24434274 243.63795507 -9.25063133 240.69723129 C-9.26969976 231.49376024 -9.28392309 222.29029726 -9.2922433 213.08681023 C-9.30199987 202.46950071 -9.32827106 191.85240056 -9.36874419 181.23516476 C-9.39895378 173.02782013 -9.41371707 164.8205353 -9.41702431 156.61313617 C-9.41937078 151.71271102 -9.42827742 146.8125091 -9.45348549 141.91214371 C-9.47685364 137.29430307 -9.48096444 132.67683117 -9.47072411 128.05894661 C-9.47023063 126.37036853 -9.47649519 124.68177178 -9.49028015 122.99324989 C-9.59686517 109.15489248 -7.68041259 98.46179118 2 88 C6.3902439 84 6.3902439 84 9 84 C9 83.01 9 82.02 9 81 C8.13181641 80.62488281 8.13181641 80.62488281 7.24609375 80.2421875 C-1.62217341 75.33765018 -5.81813839 65.42483156 -8.54582214 56.14257812 C-9.05896397 53.72183823 -9.14891363 51.49417748 -9.17700195 49.01953125 C-9.18983719 48.03170654 -9.20267242 47.04388184 -9.21589661 46.02612305 C-9.22328354 44.96562744 -9.23067047 43.90513184 -9.23828125 42.8125 C-9.246353 41.71784424 -9.25442474 40.62318848 -9.26274109 39.49536133 C-9.27656078 37.18214494 -9.28729237 34.86890833 -9.29516602 32.55566406 C-9.31243524 29.01328336 -9.35634768 25.47182257 -9.40039062 21.9296875 C-9.41051301 19.68229853 -9.41903053 17.43490163 -9.42578125 15.1875 C-9.44328934 14.12700439 -9.46079742 13.06650879 -9.47883606 11.97387695 C-9.45735337 4.72019639 -9.45735337 4.72019639 -7.28588867 1.30078125 C-4.51985666 -0.27322479 -3.13021387 -0.59050106 0 0 Z " fill="#FE004F" transform="translate(267,20)"/>
<path d="M0 0 C2.99535064 0.81691381 3.89137803 1.33042812 5.75 3.75 C6.13768005 6.01086426 6.13768005 6.01086426 6.15405273 8.68945312 C6.16673691 9.69480103 6.17942108 10.70014893 6.19248962 11.73596191 C6.18955399 12.82340698 6.18661835 13.91085205 6.18359375 15.03125 C6.1888356 16.15511108 6.19407745 17.27897217 6.19947815 18.43688965 C6.20590902 20.82087376 6.20454767 23.20488956 6.19604492 25.58886719 C6.18759739 29.20827223 6.21618209 32.826066 6.24804688 36.4453125 C6.24966071 38.76562453 6.24907788 41.08593933 6.24609375 43.40625 C6.25732773 44.47750122 6.26856171 45.54875244 6.28013611 46.65246582 C6.17240575 58.48742361 2.16765238 68.95437187 -5.9375 77.625 C-6.700625 78.32625 -7.46375 79.0275 -8.25 79.75 C-8.91 80.41 -9.57 81.07 -10.25 81.75 C-10.25 82.74 -10.25 83.73 -10.25 84.75 C-8.68050419 86.34564005 -8.68050419 86.34564005 -6.625 87.875 C-0.4521127 93.05190726 3.55628896 98.9845557 5.75 106.75 C5.92807099 109.24628936 6.0025288 111.75096891 6.00396729 114.25360107 C6.00708727 114.98827236 6.01020725 115.72294365 6.01342177 116.47987771 C6.02137005 118.93035276 6.0150907 121.380578 6.00878906 123.83105469 C6.01150024 125.59222051 6.01506189 127.35338519 6.01940918 129.11454773 C6.02851768 133.88899618 6.02499597 138.66335809 6.01865101 143.43780804 C6.01358626 148.43235698 6.01828349 153.42689852 6.02142334 158.42144775 C6.02506024 166.80425345 6.0202697 175.18702388 6.01074219 183.56982422 C5.99984398 193.27087813 6.00339423 202.97184806 6.014395 212.67289996 C6.02345881 220.99825599 6.02475803 229.32358668 6.01951766 237.64894605 C6.01639479 242.62326514 6.01599759 247.59754469 6.02259064 252.57186127 C6.0283508 257.24384324 6.02439174 261.91571637 6.01280212 266.58768654 C6.010149 268.30583579 6.01093168 270.02399414 6.01532745 271.74213982 C6.0207584 274.07966302 6.01397915 276.41683306 6.00396729 278.7543335 C6.00321323 280.06470455 6.00245918 281.37507561 6.00168228 282.72515488 C5.75 285.75 5.75 285.75 3.75 287.75 C1.46875 287.8359375 1.46875 287.8359375 -1.25 286.75 C-3.39901065 284.50720856 -5.04492252 281.96349288 -6.75 279.375 C-7.26916992 278.6133252 -7.78833984 277.85165039 -8.32324219 277.06689453 C-9.4241487 275.4491754 -10.51873182 273.82713754 -11.60742188 272.20117188 C-13.6890803 269.09477315 -15.80420479 266.01204265 -17.92016602 262.92895508 C-19.53845342 260.56892135 -21.15003585 258.20439138 -22.76171875 255.83984375 C-26.5732918 250.26201205 -30.44421636 244.72607456 -34.3125 239.1875 C-40.72498433 229.99888854 -47.00647698 220.73171835 -53.17529297 211.37792969 C-54.19567357 209.83229183 -55.22265496 208.29101756 -56.25 206.75 C-57.54571303 199.19167402 -57.26535347 191.63648251 -57.15240479 183.99612427 C-56.80504684 156.31850376 -60.6123679 129.29363156 -80.42578125 108.296875 C-85.23941021 103.95595372 -90.59550751 100.89220815 -96.25 97.75 C-101.12572254 94.99855491 -101.12572254 94.99855491 -102.25 92.75 C-102.625 89.375 -102.625 89.375 -102.25 85.75 C-98.66399653 82.32632591 -94.46922669 80.10331908 -90.09765625 77.84375 C-89.40894943 77.48219315 -88.72024261 77.12063629 -88.01066589 76.74812317 C-86.54013325 75.97664194 -85.0684038 75.20743833 -83.59558105 74.44033813 C-81.29374425 73.24022125 -78.99636904 72.03195804 -76.70019531 70.82104492 C-71.00604446 67.81886098 -65.3105948 64.81922566 -59.59912109 61.85009766 C-56.55919326 60.26690578 -53.5287378 58.66696109 -50.5 57.0625 C-49.63383057 56.6190625 -48.76766113 56.175625 -47.87524414 55.71875 C-42.45541067 52.82554991 -38.86847905 49.70307844 -35.25 44.75 C-34.79641113 44.13600342 -34.34282227 43.52200684 -33.87548828 42.8894043 C-32.45398155 40.92218993 -31.06760703 38.93394949 -29.6875 36.9375 C-28.64145395 35.44082654 -27.59454829 33.94475359 -26.546875 32.44921875 C-26.00869141 31.68013184 -25.47050781 30.91104492 -24.91601562 30.11865234 C-20.55655796 23.92060746 -16.10831216 17.78708315 -11.63769531 11.66894531 C-10.43146511 10.00093522 -9.25587463 8.310851 -8.0859375 6.6171875 C-4.04069893 0.93246898 -4.04069893 0.93246898 0 0 Z " fill="#FE004F" transform="translate(245.25,19.25)"/>
<path d="M0 0 C3.2405979 2.74170476 5.46709229 5.70506683 7.7421875 9.23828125 C8.70062839 10.67787933 9.66034199 12.11663061 10.62109375 13.5546875 C11.13816895 14.33473145 11.65524414 15.11477539 12.18798828 15.91845703 C15.28846734 20.54798886 18.49057059 25.10708108 21.6796875 29.67578125 C22.35902344 30.65200439 23.03835937 31.62822754 23.73828125 32.6340332 C27.63509822 38.23340124 31.54627534 43.82239678 35.47119141 49.40209961 C37.20292922 51.86983793 38.92452212 54.34439013 40.64453125 56.8203125 C42.72144246 59.80770172 44.83804901 62.75828472 46.99609375 65.6875 C54.59007209 76.1600161 54.59007209 76.1600161 54.5546875 81.17578125 C52.89291785 87.29928859 48.08420643 91.89842487 43.8671875 96.42578125 C43.3117627 97.02793457 42.75633789 97.63008789 42.18408203 98.25048828 C39.16866365 101.51546993 36.13464539 104.76218978 33.0859375 107.99609375 C29.13402733 112.19387047 25.34372977 116.5086863 21.61279297 120.90332031 C15.55122833 128.04076531 9.42093825 135.07844429 3.03662109 141.92993164 C-0.2940235 145.50513405 -3.54869811 149.13182606 -6.73046875 152.83984375 C-7.19324219 153.36320313 -7.65601563 153.8865625 -8.1328125 154.42578125 C-8.62652344 154.99039063 -9.12023437 155.555 -9.62890625 156.13671875 C-11.1328125 157.42578125 -11.1328125 157.42578125 -14.1328125 157.42578125 C-16.25001089 154.24998366 -16.59820283 152.44045665 -17.2578125 148.73828125 C-20.69927774 133.6156888 -29.91290134 120.71023424 -37.90820312 107.64453125 C-49.60296882 88.5284188 -58.98228069 69.84302679 -62.1328125 47.42578125 C-62.31328125 46.16378906 -62.49375 44.90179688 -62.6796875 43.6015625 C-63.25471565 38.83943057 -63.4287627 34.09407358 -63.5078125 29.30078125 C-63.54519531 28.43324219 -63.58257812 27.56570313 -63.62109375 26.671875 C-63.68036681 22.34494146 -63.38321338 19.88740825 -61.28515625 16.01953125 C-57.50119228 12.21023418 -52.37484557 11.31411171 -47.3203125 10.05078125 C-45.16800566 9.47344608 -43.01699505 8.89126069 -40.8671875 8.3046875 C-39.20719727 7.85440186 -39.20719727 7.85440186 -37.51367188 7.39501953 C-30.94232016 5.51111815 -24.50111992 3.21410715 -18.06518555 0.91455078 C-6.29537397 -3.16338617 -6.29537397 -3.16338617 0 0 Z " fill="#FD004F" transform="translate(185.1328125,232.57421875)"/>
<path d="M0 0 C2.66801362 0.88534836 5.33751681 1.76609176 8.0078125 2.64453125 C8.98781219 2.96830246 8.98781219 2.96830246 9.98760986 3.2986145 C15.60690433 5.13872761 21.27308757 6.75040471 26.97998047 8.29956055 C30.99235598 9.53020734 33.22268498 10.24091843 35.6328125 13.73828125 C37.23044284 18.17446863 37.09541234 21.7234471 36.75 26.375 C36.69287842 27.25140137 36.63575684 28.12780273 36.5769043 29.03076172 C34.31386566 60.15521669 23.04428977 84.42319805 6.53881836 110.68579102 C-1.88132178 124.11188098 -8.28176993 136.75664159 -12.125 152.1875 C-16.60443739 152.55441637 -16.60443739 152.55441637 -18.8984375 150.9375 C-19.42695313 150.36 -19.95546875 149.7825 -20.5 149.1875 C-21.098125 148.54425781 -21.69625 147.90101563 -22.3125 147.23828125 C-22.910625 146.56152344 -23.50875 145.88476562 -24.125 145.1875 C-24.681875 144.56230469 -25.23875 143.93710937 -25.8125 143.29296875 C-26.96589818 141.98204628 -28.11275671 140.66534858 -29.25390625 139.34375 C-34.47881384 133.32256213 -39.88000949 127.45400704 -45.25 121.5625 C-48.05257381 118.48440434 -50.83467875 115.3944813 -53.5625 112.25 C-56.48617794 108.88605056 -59.48371392 105.59327288 -62.5 102.3125 C-66.05248712 98.44722296 -69.60099623 94.57882664 -73.125 90.6875 C-73.82625 89.9140625 -74.5275 89.140625 -75.25 88.34375 C-79.29202881 83.69541687 -80.82435484 81.15032073 -80.61962891 74.90332031 C-79.6988552 69.84770001 -76.79491021 66.14535119 -73.8125 62.0625 C-72.85126221 60.68747314 -72.85126221 60.68747314 -71.87060547 59.28466797 C-70.57302817 57.43121695 -69.26616423 55.58422974 -67.94970703 53.74414062 C-65.93108094 50.91579538 -63.97022687 48.05266901 -62.01855469 45.17797852 C-58.46966778 39.9591477 -54.84893268 34.78945103 -51.23828125 29.61328125 C-50.55411133 28.63182129 -49.86994141 27.65036133 -49.16503906 26.63916016 C-47.7715866 24.64153312 -46.37642383 22.64509796 -44.97949219 20.64990234 C-41.94618442 16.30487428 -38.94215161 11.95473825 -36.08984375 7.48828125 C-35.64455322 6.79484619 -35.1992627 6.10141113 -34.74047852 5.38696289 C-33.94556466 4.13772315 -33.16232916 2.88092838 -32.39428711 1.61499023 C-24.40120394 -10.93608638 -11.2759852 -3.77166904 0 0 Z " fill="#FE004F" transform="translate(351.125,236.8125)"/>
<path d="M0 0 C5.0686817 1.52060451 7.3545266 4.19660476 10.75 8.125 C11.30429687 8.74890625 11.85859375 9.3728125 12.4296875 10.015625 C13.58533123 11.3257096 14.73349053 12.64242542 15.875 13.96484375 C19.43974364 18.07172549 23.10607148 22.08845965 26.75 26.125 C28.99796977 28.62187992 31.24508007 31.11953151 33.4921875 33.6171875 C35.01708244 35.31092894 36.54315402 37.00361169 38.0703125 38.6953125 C41.46872932 42.46237115 44.8581661 46.23415586 48.1875 50.0625 C50.99822525 53.29059512 53.865799 56.46238443 56.75 59.625 C73.02677122 77.48733189 73.02677122 77.48733189 72.69921875 86.54296875 C72.66151367 87.62102783 72.62380859 88.69908691 72.58496094 89.80981445 C72.51196777 91.5436438 72.51196777 91.5436438 72.4375 93.3125 C72.38754883 94.50254639 72.33759766 95.69259277 72.28613281 96.91870117 C72.11941505 100.65480668 71.93661187 104.38983923 71.75 108.125 C71.69473145 109.31899414 71.63946289 110.51298828 71.58251953 111.74316406 C71.41576198 115.14350652 71.21407951 118.53984281 71 121.9375 C70.95061279 122.97350342 70.90122559 124.00950684 70.8503418 125.0769043 C70.39906343 131.40898597 69.62772821 134.8944564 64.75 139.125 C60.32852362 141.18957368 55.95216525 141.50429286 51.125 141.9375 C33.96756556 143.84103528 22.35511257 153.56972409 9.87573242 164.73242188 C9.26834229 165.27189453 8.66095215 165.81136719 8.03515625 166.3671875 C7.49769775 166.8504248 6.96023926 167.33366211 6.40649414 167.83154297 C3.93663131 169.76011088 1.87580089 171.22734554 -1.3125 170.9375 C-3.68264562 169.94356796 -4.69291761 169.18928431 -6.25 167.125 C-6.62752342 164.20298767 -6.62752342 164.20298767 -6.63095093 160.55834961 C-6.6356309 159.88820045 -6.64031087 159.21805128 -6.64513266 158.52759457 C-6.65711888 156.2773109 -6.64761176 154.02763217 -6.63818359 151.77734375 C-6.6422477 150.16602217 -6.64758868 148.55470338 -6.65411377 146.94338989 C-6.66781237 142.56327126 -6.66247828 138.18336416 -6.65297651 133.80324173 C-6.64539306 129.22420929 -6.65242186 124.64519524 -6.65713501 120.06616211 C-6.6625964 112.37578064 -6.6553909 104.68548555 -6.64111328 96.99511719 C-6.62478602 88.09787671 -6.63007426 79.20084246 -6.6465925 70.30360699 C-6.66019645 62.67127305 -6.66213238 55.03900127 -6.65427649 47.40665913 C-6.64959396 42.84528026 -6.648991 38.2839984 -6.65888596 33.72262573 C-6.66753751 29.43474526 -6.66156705 25.14713125 -6.64420319 20.85927963 C-6.64022862 19.28346067 -6.64138891 17.70761938 -6.64799118 16.13180923 C-6.65615888 13.98478453 -6.64594424 11.83861991 -6.63095093 9.69165039 C-6.62981985 8.48891983 -6.62868877 7.28618927 -6.62752342 6.04701233 C-6.25 3.125 -6.25 3.125 -4.92931557 1.22239685 C-3.25 0.125 -3.25 0.125 0 0 Z " fill="#FD004F" transform="translate(264.25,320.875)"/>
<path d="M0 0 C1.42839731 2.85679461 1.13589705 5.28952154 1.14717102 8.48435974 C1.15084771 9.15773803 1.1545244 9.83111632 1.1583125 10.52490002 C1.16936717 12.79191688 1.17319613 15.05888793 1.17700195 17.32592773 C1.18326511 18.94695177 1.18991178 20.56797436 1.19691467 22.18899536 C1.21433469 26.6000897 1.22487852 31.0111732 1.2331202 35.42229342 C1.23826678 38.17585423 1.24434258 40.92941164 1.25063133 43.68297005 C1.26968367 52.29161631 1.28391638 60.90025397 1.2922433 69.50891727 C1.30202584 79.45900662 1.32837159 89.40887411 1.36874419 99.35888523 C1.39885411 107.04213799 1.41370717 114.72532695 1.41702431 122.40863758 C1.41938011 127.00139611 1.42840916 131.59391763 1.45348549 136.18661308 C1.47668274 140.50486672 1.48103341 144.82272587 1.47072411 149.14102554 C1.47022664 150.72814937 1.47660891 152.31529208 1.49028015 153.9023571 C1.50787068 156.06493591 1.50095859 158.22607902 1.48774719 160.38865662 C1.49013555 161.60006034 1.4925239 162.81146406 1.49498463 164.05957699 C1 167 1 167 -0.88424397 168.91125584 C-3 170 -3 170 -5.33984375 170.03125 C-9.05504959 168.59099399 -11.66194747 166.14680461 -14.5625 163.5 C-15.80901174 162.40246001 -17.05774434 161.30743759 -18.30859375 160.21484375 C-18.92976074 159.67069824 -19.55092773 159.12655273 -20.19091797 158.56591797 C-31.78541407 148.52987235 -44.07553331 141.59293542 -59.5625 140.625 C-64.80174604 140.19626835 -67.81889348 139.22293627 -72 136 C-74.48930186 131.83314929 -75.42640419 128.4794896 -75.73046875 123.66015625 C-75.81167969 122.44279785 -75.89289063 121.22543945 -75.9765625 119.97119141 C-76.04617187 118.68132324 -76.11578125 117.39145508 -76.1875 116.0625 C-76.22536621 115.40159363 -76.26323242 114.74068726 -76.30224609 114.05975342 C-76.57024136 109.37450066 -76.79055264 104.68821808 -77 100 C-77.08822021 98.25614014 -77.08822021 98.25614014 -77.17822266 96.47705078 C-77.32416291 93.35948889 -77.4226164 90.24493096 -77.5 87.125 C-77.54278076 86.21242432 -77.58556152 85.29984863 -77.62963867 84.35961914 C-77.69984435 77.49556485 -75.59496939 73.96902321 -71 69 C-70.44135254 68.37367676 -69.88270508 67.74735352 -69.30712891 67.10205078 C-67.58657803 65.20654529 -65.83156486 63.35023457 -64.0625 61.5 C-62.81942059 60.18443594 -61.57722182 58.86803918 -60.3359375 57.55078125 C-59.46146973 56.62386475 -59.46146973 56.62386475 -58.56933594 55.67822266 C-56.19017251 53.13398348 -53.90249538 50.51718136 -51.62890625 47.87890625 C-47.39028533 42.98975358 -43.00840736 38.22407526 -38.671875 33.421875 C-35.29614978 29.67872391 -31.92862565 25.93203528 -28.625 22.125 C-25.15900914 18.14073013 -21.58611878 14.25819029 -17.99462891 10.38720703 C-15.68001887 7.88118201 -13.44177728 5.34007638 -11.2890625 2.6953125 C-7.54792795 -1.70977767 -5.51911629 -1.10382326 0 0 Z " fill="#FD004F" transform="translate(250,322)"/>
<path d="M0 0 C8.06433201 5.14967069 15.03468491 11.00060414 18.6875 20.125 C18.47387695 22.16162109 18.47387695 22.16162109 17.6875 24.125 C16.09619141 25.14233398 16.09619141 25.14233398 14.0390625 25.87109375 C13.28625 26.14832275 12.5334375 26.42555176 11.7578125 26.71118164 C10.95085937 26.9921167 10.14390625 27.27305176 9.3125 27.5625 C7.65806591 28.17234496 6.00441558 28.78432046 4.3515625 29.3984375 C3.54750977 29.69331055 2.74345703 29.98818359 1.91503906 30.29199219 C-11.6002109 35.34613871 -25.02622869 41.80394203 -31.625 55.375 C-33.12403494 59.08999962 -33.93442205 62.83343338 -34.75 66.75 C-36.84524797 76.24478159 -41.04600516 80.19433086 -48.62890625 86.01953125 C-53.0582432 89.49465878 -57.15132518 93.33717692 -61.3125 97.125 C-62.78747427 98.44220962 -64.26630932 99.75511626 -65.75 101.0625 C-66.36746094 101.60777344 -66.98492187 102.15304688 -67.62109375 102.71484375 C-69.94047279 104.64855237 -71.74371997 106.02291128 -74.75 106.5625 C-77.3125 106.125 -77.3125 106.125 -79.5 104.25 C-81.97069412 99.99018255 -82.63269137 95.96237509 -83.3125 91.125 C-83.42464844 90.39796875 -83.53679687 89.6709375 -83.65234375 88.921875 C-86.72049194 64.88104263 -83.5451458 39.35190536 -68.4375 19.6875 C-67.08776589 18.14419937 -65.71216728 16.62316239 -64.3125 15.125 C-63.57515625 14.29742187 -62.8378125 13.46984375 -62.078125 12.6171875 C-55.60046759 5.69498498 -48.40269295 0.91088523 -40.3125 -3.875 C-39.59320313 -4.35324219 -38.87390625 -4.83148438 -38.1328125 -5.32421875 C-25.96932595 -12.76326095 -11.13067072 -6.32154123 0 0 Z " fill="#9EAACD" transform="translate(149.3125,120.875)"/>
<path d="M0 0 C19.66292381 11.15732118 32.67590992 26.99845807 39.90820312 48.54833984 C40.32070313 49.76521484 40.73320312 50.98208984 41.15820312 52.23583984 C44.81848215 68.40207222 45.33871321 89.74312394 39.90820312 105.54833984 C37.90071668 108.25408245 36.79561872 109.34166162 33.50976562 110.10693359 C29.84966259 109.32105562 27.84155084 107.17932799 25.28320312 104.61083984 C24.22177256 103.59013878 23.15792274 102.57194816 22.09179688 101.55615234 C21.29298096 100.79093262 21.29298096 100.79093262 20.47802734 100.01025391 C18.19396365 97.88319739 15.78145974 95.93584299 13.34570312 93.98583984 C-5.02298276 79.08294375 -5.02298276 79.08294375 -7.02929688 67.11083984 C-8.58992191 57.8359057 -12.91443066 50.65896631 -20.29101562 44.80224609 C-27.9424973 39.5411201 -36.38109103 36.47835248 -45.03759766 33.30322266 C-47.73482935 32.31203649 -50.41633551 31.28427898 -53.09179688 30.23583984 C-54.20554687 29.80851562 -54.20554687 29.80851562 -55.34179688 29.37255859 C-57.09179688 28.54833984 -57.09179688 28.54833984 -59.09179688 26.54833984 C-59.42996851 21.13759364 -57.62207137 18.58998046 -54.09179688 14.54833984 C-39.28548535 -0.76773514 -20.42931872 -10.83894316 0 0 Z " fill="#9EAACD" transform="translate(401.091796875,117.45166015625)"/>
<path d="M0 0 C4.74382395 3.42709715 5.19552664 7.81716699 6.1875 13.25 C6.35185547 14.07113281 6.51621094 14.89226562 6.68554688 15.73828125 C8.57374492 25.38567368 9.15731815 34.55028165 9.125 44.375 C9.12886719 45.54289062 9.13273437 46.71078125 9.13671875 47.9140625 C9.11443421 67.79187553 9.11443421 67.79187553 5 73 C2.5969597 74.19891744 0.46925862 75.08134131 -2.0546875 75.91015625 C-2.75818329 76.15685562 -3.46167908 76.40355499 -4.18649292 76.6577301 C-5.68647101 77.18257286 -7.18897985 77.70022951 -8.69372559 78.21124268 C-10.9693586 78.98952049 -13.23204353 79.79730007 -15.49316406 80.61669922 C-19.26370303 81.98175705 -23.04409742 83.31574733 -26.83105469 84.63452148 C-28.38021906 85.17679497 -29.92738915 85.7247947 -31.47265625 86.27807617 C-33.75079316 87.09315667 -36.03455181 87.89018465 -38.3203125 88.68359375 C-39.00473419 88.93241806 -39.68915588 89.18124237 -40.39431763 89.43760681 C-44.63553095 90.88239295 -47.6885279 91.32532086 -52 90 C-54.09115194 88.38804733 -54.90391799 87.52102568 -55.38768005 84.89772034 C-55.39308304 84.08786179 -55.39848602 83.27800323 -55.40405273 82.44360352 C-55.41673691 81.52156631 -55.42942108 80.59952911 -55.44248962 79.64955139 C-55.43955399 78.65273849 -55.43661835 77.6559256 -55.43359375 76.62890625 C-55.4388356 75.59620102 -55.44407745 74.56349579 -55.44947815 73.49949646 C-55.45590851 71.30802305 -55.45454831 69.11651517 -55.44604492 66.92504883 C-55.43761127 63.60628712 -55.46615877 60.2892913 -55.49804688 56.97070312 C-55.55341472 40.78272094 -54.36185608 28.48816181 -43 16 C-35.82005044 9.41521381 -26.98347339 6.30819973 -18 3 C-16.95714844 2.57203125 -15.91429687 2.1440625 -14.83984375 1.703125 C-9.55934678 -0.41778988 -5.64953035 -1.8447446 0 0 Z " fill="#FD004F" transform="translate(174,152)"/>
<path d="M0 0 C6.65502737 0.42341806 12.61038753 2.80544834 18.8125 5.125 C19.84181641 5.49109375 20.87113281 5.8571875 21.93164062 6.234375 C34.79718007 11.01928151 44.54887577 18.14067979 50.375 30.8125 C52.22005407 35.21656384 53.1204414 39.10411502 53.19287109 43.88867188 C53.20893402 44.85647583 53.22499695 45.82427979 53.24154663 46.82141113 C53.28611559 51.21996189 53.32701543 55.61836635 53.35009766 60.01708984 C53.36669995 62.33913159 53.39404545 64.66112137 53.43212891 66.98291016 C53.48676191 70.33262603 53.50874628 73.68114929 53.5234375 77.03125 C53.54610687 78.06987183 53.56877625 79.10849365 53.59213257 80.17858887 C53.57130631 87.25068471 53.57130631 87.25068471 50.90478516 90.74804688 C44.53192342 93.49472993 37.59351088 90.06942361 31.33984375 87.98046875 C30.43174454 87.68062576 29.52364532 87.38078278 28.58802795 87.07185364 C26.67673077 86.43856784 24.76646152 85.80217211 22.85717773 85.1628418 C19.94673638 84.19058549 17.03132553 83.23445372 14.11523438 82.27929688 C12.25228025 81.65982745 10.38963901 81.0394161 8.52734375 80.41796875 C7.66157211 80.13551804 6.79580048 79.85306732 5.90379333 79.5620575 C-0.17123425 77.50620218 -5.46174082 75.65217099 -8.8125 69.875 C-14.69829624 53.29090353 -11.08550551 31.81401941 -8 15 C-7.84893799 14.17290527 -7.69787598 13.34581055 -7.54223633 12.49365234 C-7.38263428 11.69523926 -7.22303223 10.89682617 -7.05859375 10.07421875 C-6.91736084 9.36225342 -6.77612793 8.65028809 -6.63061523 7.91674805 C-5.60049454 4.78570758 -3.48953166 3.04269264 -1 1 C-0.67 0.67 -0.34 0.34 0 0 Z " fill="#FD004F" transform="translate(337,151)"/>
<path d="M0 0 C1.875 0.75 1.875 0.75 2.875 2.75 C2.96013577 4.3419703 2.98217101 5.93752155 2.97265625 7.53173828 C2.96935303 8.52682404 2.9660498 9.52190979 2.96264648 10.54714966 C2.95434814 11.6272934 2.9460498 12.70743713 2.9375 13.8203125 C2.93371338 14.93050751 2.92992676 16.04070251 2.92602539 17.18453979 C2.90965737 21.9453376 2.88167426 26.70605043 2.85449219 31.46679688 C2.83633918 34.938798 2.82428138 38.41078482 2.8125 41.8828125 C2.80420166 42.95081085 2.79590332 44.0188092 2.78735352 45.11917114 C2.76893641 50.77271838 3.05512464 56.15698503 3.875 61.75 C5.3622159 84.47270855 -5.8153409 102.9263669 -20.125 119.75 C-31.83089989 132.74883968 -31.83089989 132.74883968 -38.125 135.75 C-41.9375 135.4375 -41.9375 135.4375 -45.125 134.75 C-46.87064105 128.00885423 -44.92558488 123.44031804 -42.375 117.125 C-37.44844318 104.72063371 -34.85511547 93.02126456 -34.1875 79.6875 C-32.34027155 50.66562184 -24.40330637 24.12522305 -5.125 1.75 C-2.125 -0.25 -2.125 -0.25 0 0 Z " fill="#9DA9CC" transform="translate(113.125,210.25)"/>
<path d="M0 0 C11.14150736 4.81260377 19.68933386 25.92601145 24.11230469 36.59179688 C29.62462377 50.96475034 31.24354007 65.82564476 32.36328125 81.0546875 C33.55799555 96.45104096 37.005716 109.8039723 43.0625 124.0234375 C44.07521256 127.14776348 44.22092844 129.59076606 43.98046875 132.85546875 C42.91796875 134.79296875 42.91796875 134.79296875 40.98046875 135.85546875 C35.15757185 135.63850985 32.05585059 133.86165129 28.04296875 129.85546875 C27.52428223 129.35563477 27.0055957 128.85580078 26.47119141 128.34082031 C24.95498004 126.86367928 23.46449792 125.36486152 21.98046875 123.85546875 C21.25472656 123.1284375 20.52898437 122.40140625 19.78125 121.65234375 C5.88074831 106.877774 -6.5275282 86.56326211 -6.22265625 65.93359375 C-6.01953125 62.85546875 -6.01953125 62.85546875 -5.52880859 60.00952148 C-4.70681087 54.91873116 -4.59177706 49.81542438 -4.39453125 44.66796875 C-4.34731934 43.49427734 -4.30010742 42.32058594 -4.25146484 41.11132812 C-3.91945182 31.15887401 -4.21900223 21.28543622 -4.87646484 11.35083008 C-4.93656738 10.27986084 -4.99666992 9.2088916 -5.05859375 8.10546875 C-5.12256348 7.161875 -5.1865332 6.21828125 -5.25244141 5.24609375 C-5.01953125 2.85546875 -5.01953125 2.85546875 -3.64331055 1.01831055 C-2.01953125 -0.14453125 -2.01953125 -0.14453125 0 0 Z " fill="#9DA9CC" transform="translate(398.01953125,210.14453125)"/>
<path d="M0 0 C0.928125 0.33 1.85625 0.66 2.8125 1 C4.1249822 4.60841784 3.50857073 6.40487517 1.93359375 9.83984375 C1.29804565 11.28943481 1.29804565 11.28943481 0.6496582 12.76831055 C0.187771 13.81414307 -0.27411621 14.85997559 -0.75 15.9375 C-4.84076718 25.56504985 -7.49022762 34.90577384 -9.375 45.1875 C-11.58433311 57.12117533 -14.2277021 66.76034406 -21.8125 76.4375 C-24.33587469 79.68183888 -25.36859765 83.31212373 -26.5625 87.1875 C-29.54152548 96.7627699 -34.24240002 108.53025895 -43.1875 114 C-47 114.125 -47 114.125 -50.1875 113 C-57.70981221 101.71653169 -53.21418839 79.96840596 -50.7265625 67.43896484 C-44.8865989 41.01630343 -28.85150715 17.02898021 -6.75 1.36328125 C-4.12473922 -0.0333895 -2.90194852 -0.40369848 0 0 Z " fill="#9DA9CC" transform="translate(85.1875,228)"/>
<path d="M0 0 C8.15565985 0.32854554 12.21746038 4.73389829 18 10 C19.35158203 11.19302734 19.35158203 11.19302734 20.73046875 12.41015625 C39.94408204 30.34840704 53.18590032 57.60694034 54.10498047 84.01660156 C54.18584817 87.51149281 54.22774172 91.00425404 54.25 94.5 C54.25942627 95.64710449 54.26885254 96.79420898 54.27856445 97.97607422 C54.27429443 99.06678223 54.27002441 100.15749023 54.265625 101.28125 C54.26336914 102.26158203 54.26111328 103.24191406 54.25878906 104.25195312 C53.97850264 107.22827763 53.37027462 109.34630719 52 112 C49 114 49 114 46.6875 113.9375 C38.27300237 111.00221013 34.62268237 103.27268434 30.875 95.73828125 C29.04200352 91.75008188 27.57313765 87.72525951 26.1875 83.5625 C24.76509495 79.52579317 23.03370381 76.38420156 20.5 72.9375 C14.31500273 64.45785555 12.47702008 55.89050982 10.56738281 45.74438477 C7.06946161 25.46417878 7.06946161 25.46417878 -2 8 C-2.1875 5.0625 -2.1875 5.0625 -2 2 C-1.34 1.34 -0.68 0.68 0 0 Z " fill="#9DA9CC" transform="translate(423,228)"/>
<path d="M0 0 C2.39090895 2.39090895 2.6075671 3.77388791 3.3671875 7.0390625 C3.61098145 8.08175293 3.85477539 9.12444336 4.10595703 10.19873047 C4.35974121 11.32939941 4.61352539 12.46006836 4.875 13.625 C5.14038574 14.79562988 5.40577148 15.96625977 5.67919922 17.17236328 C8.24372614 28.71662243 10.2396141 40.30954995 12 52 C12.18336914 53.19641113 12.36673828 54.39282227 12.55566406 55.62548828 C13.13046111 59.39473692 13.69282798 63.16560829 14.25 66.9375 C14.42547363 68.10458496 14.60094727 69.27166992 14.78173828 70.47412109 C16.61746549 83.24270602 16.61746549 83.24270602 16 89 C13.34211484 92.27940584 11.71684992 92.89678011 7.5546875 93.49609375 C6.34039062 93.47675781 5.12609375 93.45742188 3.875 93.4375 C2.65554687 93.43621094 1.43609375 93.43492187 0.1796875 93.43359375 C-3 93 -3 93 -4.82421875 91.93359375 C-15.71143864 74.0293617 -7.99263242 43.41775061 -4.5 24.6875 C-4.06473658 22.27829585 -3.63113292 19.86879122 -3.19921875 17.45898438 C-2.15185699 11.63573172 -1.08431582 5.81647889 0 0 Z " fill="#9CA8CB" transform="translate(154,367)"/>
<path d="M0 0 C2.37739655 3.56609482 2.80715667 6.78921113 3.4375 10.9296875 C3.56310303 11.71586456 3.68870605 12.50204163 3.81811523 13.31204224 C4.21900933 15.831988 4.60961576 18.35340696 5 20.875 C5.26235023 22.53396036 5.52536432 24.19281587 5.7890625 25.8515625 C6.30127983 29.08102738 6.80644551 32.31146982 7.30566406 35.54296875 C7.73021908 38.28818096 8.17031472 41.0288182 8.62402344 43.76953125 C9.63940407 49.97403182 10.32908688 55.96120551 10.25 62.25 C10.24468262 63.042854 10.23936523 63.83570801 10.23388672 64.65258789 C10.14567403 70.27977578 9.75494391 75.84583574 9.125 81.4375 C9.04668945 82.14100586 8.96837891 82.84451172 8.88769531 83.56933594 C8.44219855 87.04625897 7.95784804 90.04872536 6 93 C3.06077067 94.46961466 0.39591028 94.20919862 -2.875 94.25 C-4.72738281 94.28867187 -4.72738281 94.28867187 -6.6171875 94.328125 C-10.32049758 93.96891247 -11.45988761 93.64233226 -14 91 C-15.78777243 80.10097309 -13.18396333 68.10497144 -11.5 57.3125 C-11.37083191 56.46091309 -11.24166382 55.60932617 -11.10858154 54.73193359 C-8.29906565 36.28813682 -4.3418575 18.13695706 0 0 Z " fill="#9DA9CB" transform="translate(354,366)"/>
</svg>
