<?xml version="1.0" encoding="UTF-8"?>
<svg version="1.1" xmlns="http://www.w3.org/2000/svg" width="512" height="512" viewBox="0 0 1024 1024">
<path d="M0 0 C3.23706568 4.27593065 4.73864323 7.88432321 5.859375 13.109375 C6.16909489 14.50456022 6.47882853 15.89974239 6.78857422 17.29492188 C6.94485291 18.02122803 7.10113159 18.74753418 7.262146 19.49584961 C8.09496249 23.34391403 8.97921631 27.17996756 9.8671875 31.015625 C10.04528961 31.78519531 10.22339172 32.55476563 10.40689087 33.34765625 C16.02111465 57.32072016 24.5998696 80.70302121 35 103 C35.66 103 36.32 103 37 103 C37.05414062 103.76570313 37.10828125 104.53140625 37.1640625 105.3203125 C38.37025694 110.6298226 40.83701897 115.08304076 43.375 119.875 C44.18203369 121.40930664 44.18203369 121.40930664 45.00537109 122.97460938 C49.37352431 131.12986056 54.2798124 138.69396557 59.69287109 146.18212891 C76.66675074 169.78831267 90.01119788 195.56497406 100.0625 222.8125 C100.41672531 223.76647171 100.41672531 223.76647171 100.77810669 224.73971558 C103.27469373 231.50617155 105.47230968 238.06595681 106.54077148 245.21362305 C106.7680896 246.09787964 106.7680896 246.09787964 107 247 C107.66 247.33 108.32 247.66 109 248 C109.54711914 250.11279297 109.54711914 250.11279297 109.97265625 252.8671875 C110.61487167 256.75556693 111.31880069 260.60008435 112.18359375 264.4453125 C119.94735344 299.32859282 123.34052192 337.69746841 116 373 C115.86078125 373.7204248 115.7215625 374.44084961 115.578125 375.18310547 C114.59934409 380.18689632 113.38866298 385.09483169 112 390 C111.7736084 390.80228027 111.5472168 391.60456055 111.31396484 392.43115234 C107.06901513 407.06011766 101.47667862 423.78358306 91.1640625 435.328125 C88.85662332 437.72875284 88.85662332 437.72875284 88.625 440.23828125 C88.74875 440.92277344 88.8725 441.60726563 89 442.3125 C89.103125 442.98925781 89.20625 443.66601562 89.3125 444.36328125 C90.01042216 447.21561251 90.01042216 447.21561251 91.375 450.734375 C93.80875934 457.92120134 94.79721435 465.46833533 96 472.9375 C96.13006439 473.73511749 96.26012878 474.53273499 96.39413452 475.35452271 C112.37022697 573.57640721 112.37022697 573.57640721 93.6796875 606.3125 C84.76067367 618.14475955 67.83051235 621.31398357 54.0390625 623.4609375 C51.3515455 623.7595505 48.70257859 623.91065856 46 624 C44.83726562 624.0515625 43.67453125 624.103125 42.4765625 624.15625 C33.60632863 624.36871069 25.2189645 623.49068078 16.47485352 621.97949219 C15.25366821 621.77114746 15.25366821 621.77114746 14.0078125 621.55859375 C12.91944092 621.36221313 12.91944092 621.36221313 11.80908203 621.16186523 C9.8995642 620.83140813 9.8995642 620.83140813 8 622 C7.48566406 621.35417969 7.48566406 621.35417969 6.9609375 620.6953125 C4.19292815 618.30225263 0.98194391 617.21541767 -2.375 615.875 C-28.59234557 604.77271153 -47.33590982 581.60206829 -57.99072266 555.62646484 C-62.23913869 544.57071747 -65.99797544 533.2259145 -69.1953125 521.8203125 C-69.88364871 519.07882913 -69.88364871 519.07882913 -71 517 C-71.19466091 515.52147828 -71.34418177 514.03685059 -71.46875 512.55078125 C-71.80128187 508.92735291 -72.2059347 505.33286267 -72.71875 501.73046875 C-74.05374729 492.31446822 -75.23376312 482.94161875 -75.6875 473.4375 C-75.72866943 472.58607422 -75.76983887 471.73464844 -75.81225586 470.85742188 C-75.98975612 466.33861424 -75.98274109 461.87723172 -75.7734375 457.359375 C-75.31018824 446.1712326 -76.11829514 438.76660282 -81.76953125 429.06640625 C-85.69290671 422.26780786 -87.85018927 414.64087494 -90.27441406 407.2109375 C-90.87758503 405.37301142 -91.50941753 403.54452134 -92.1484375 401.71875 C-96.01481632 390.21240664 -100 376.1960003 -100 364 C-100.99 364 -101.98 364 -103 364 C-103.061875 363.16984375 -103.12375 362.3396875 -103.1875 361.484375 C-104.23608234 356.98756998 -106.36162952 353.98036271 -109 350.25 C-113.97487437 343.05025126 -113.97487437 343.05025126 -115 341 C-115.09498779 341.95962646 -115.18997559 342.91925293 -115.2878418 343.90795898 C-117.24816883 363.49399707 -119.48657879 382.80646277 -124 402 C-124.32822754 403.42578369 -124.32822754 403.42578369 -124.66308594 404.88037109 C-141.42395361 476.65532041 -183.5033952 539.50736439 -246.1875 578.5625 C-251.72904483 582 -251.72904483 582 -254 582 C-253.77183594 583.0209375 -253.54367187 584.041875 -253.30859375 585.09375 C-245.29691012 624.1816099 -255.5641796 673.21255713 -277.2109375 706.51171875 C-281.2221834 712.09067866 -284.3112558 715.93733913 -291 718 C-299.00087268 719.02804509 -305.75839501 714.48448241 -312 710 C-316.06642015 706.65415185 -319.86902536 703.03497663 -323.62548828 699.34814453 C-324.7569866 698.23835168 -325.90555739 697.14599237 -327.05859375 696.05859375 C-342.21471966 681.53251464 -354.73568456 662.73775765 -364 644 C-364 643.34 -364 642.68 -364 642 C-364.66 641.67 -365.32 641.34 -366 641 C-366.94279982 638.93257734 -367.79386691 636.82306804 -368.6015625 634.69921875 C-368.8428891 634.06643509 -369.0842157 633.43365143 -369.33285522 632.7816925 C-369.84223678 631.44049172 -370.34805179 630.09793183 -370.85058594 628.75415039 C-371.61937172 626.70251998 -372.40253774 624.65681552 -373.1875 622.61132812 C-373.68056522 621.30762329 -374.17278061 620.00359666 -374.6640625 618.69921875 C-375.11217285 617.51158936 -375.5602832 616.32395996 -376.02197266 615.1003418 C-377 612 -377 612 -377 608 C-377.66 607.67 -378.32 607.34 -379 607 C-379.56030273 605.09057617 -379.56030273 605.09057617 -379.99609375 602.60546875 C-380.16093262 601.69974121 -380.32577148 600.79401367 -380.49560547 599.86083984 C-380.74528076 598.44472412 -380.74528076 598.44472412 -381 597 C-381.3422353 595.22471509 -381.68725782 593.44996507 -382.03515625 591.67578125 C-382.37808601 589.8881132 -382.7205326 588.10035239 -383.0625 586.3125 C-383.32256836 584.96575195 -383.32256836 584.96575195 -383.58789062 583.59179688 C-384.32329636 579.74570939 -385.01108125 575.92150136 -385.55859375 572.04296875 C-385.91360321 568.96458393 -385.91360321 568.96458393 -387 566 C-387.16623612 563.28939718 -387.28178139 560.59998592 -387.3515625 557.88671875 C-387.37471527 557.08071732 -387.39786804 556.27471588 -387.42172241 555.44429016 C-387.46937038 553.73204823 -387.51460344 552.01973766 -387.55761719 550.30737305 C-387.62377317 547.7351998 -387.70198818 545.16359516 -387.78125 542.59179688 C-388.02271142 533.96627885 -387.98028491 525.52715971 -387.24023438 516.92407227 C-386.94286118 513.30452064 -386.90045257 509.7556477 -386.9375 506.125 C-386.94652344 504.95195313 -386.95554687 503.77890625 -386.96484375 502.5703125 C-386.97644531 501.72210937 -386.98804688 500.87390625 -387 500 C-386.67 500 -386.34 500 -386 500 C-385.88519287 499.26289795 -385.77038574 498.5257959 -385.65209961 497.76635742 C-385.09420077 494.2377222 -384.51940313 490.71225927 -383.9375 487.1875 C-383.83072937 486.53940369 -383.72395874 485.89130737 -383.61395264 485.22357178 C-381.99356301 475.50929566 -379.79613155 466.11358777 -377.125 456.625 C-374.54226057 447.32834619 -372.40477676 438.55165003 -375 429 C-375.66 428.67 -376.32 428.34 -377 428 C-378 427 -378 427 -378.0625 423.4375 C-378.041875 422.303125 -378.02125 421.16875 -378 420 C-377.67 420 -377.34 420 -377 420 C-376.9906543 419.09572266 -376.98130859 418.19144531 -376.97167969 417.25976562 C-376.56743373 385.98222548 -374.83854556 351.23918359 -357.99609375 323.7265625 C-351.65271897 312.87703304 -352.95587294 303.20014747 -354.31640625 290.96484375 C-359.22400163 245.79661416 -346.21128342 199.37664225 -318 164 C-316.90945313 162.60007812 -316.90945313 162.60007812 -315.796875 161.171875 C-313.76164315 158.71189911 -311.51373 156.96193561 -309 155 C-307.85144531 153.84757812 -307.85144531 153.84757812 -306.6796875 152.671875 C-298.89865617 144.9135289 -290.33976044 138.67199106 -281.03125 132.91015625 C-278.08150091 131.11412486 -278.08150091 131.11412486 -275.78125 129.30859375 C-274 128 -274 128 -271 127 C-269.09671779 126.08441273 -267.20510191 125.14448133 -265.3203125 124.19140625 C-263.60026001 123.32515625 -263.60026001 123.32515625 -261.84545898 122.44140625 C-261.23838104 122.13477051 -260.6313031 121.82813477 -260.00582886 121.51220703 C-250.53437071 116.72968237 -241.03905026 112.01738526 -231.4375 107.5 C-224.48479779 104.22670293 -217.66273967 100.83848702 -211 97 C-211 96.34 -211 95.68 -211 95 C-210.12359863 94.89236328 -209.24719727 94.78472656 -208.34423828 94.67382812 C-204.89259008 93.97835805 -202.55397162 92.92979425 -199.4921875 91.21875 C-198.43676758 90.63246826 -197.38134766 90.04618652 -196.29394531 89.44213867 C-195.16569336 88.80123291 -194.03744141 88.16032715 -192.875 87.5 C-191.68334427 86.82969879 -190.49161102 86.15953536 -189.29980469 85.48950195 C-171.39541713 75.37520163 -153.73617246 64.76022056 -136.74267578 53.17578125 C-127.25402219 46.77379811 -117.5434237 40.68759131 -107.875 34.5625 C-107.09350586 34.06637207 -106.31201172 33.57024414 -105.50683594 33.05908203 C-102.06691782 30.88669735 -98.62139494 28.7637133 -95.0703125 26.77734375 C-92.01011601 25.18192342 -92.01011601 25.18192342 -90 23 C-88.34460032 22.30582847 -86.67601917 21.64279231 -85 21 C-83.25919502 20.16306809 -81.52772585 19.30651748 -79.8046875 18.43359375 C-78.84175781 17.94826172 -77.87882812 17.46292969 -76.88671875 16.96289062 C-75.89285156 16.45951172 -74.89898438 15.95613281 -73.875 15.4375 C-71.89416986 14.43433827 -69.91243852 13.43295349 -67.9296875 12.43359375 C-67.05554199 11.99072021 -66.18139648 11.54784668 -65.28076172 11.09155273 C-63 10 -63 10 -60 9 C-60.33 8.34 -60.66 7.68 -61 7 C-60.22140625 7.07089844 -59.4428125 7.14179687 -58.640625 7.21484375 C-53.64191568 6.91985554 -49.42277904 5.28280986 -44.75 3.5625 C-43.83992188 3.23701172 -42.92984375 2.91152344 -41.9921875 2.57617188 C-37.42163739 0.96481796 -37.42163739 0.96481796 -33 -1 C-29.35474995 -1.78550843 -25.67745968 -2.38542454 -22 -3 C-20.9171875 -3.19142578 -20.9171875 -3.19142578 -19.8125 -3.38671875 C-12.98479516 -4.44666486 -5.54295671 -4.59273556 0 0 Z " fill="#153071" transform="translate(675,113)"/>
<path d="M0 0 C43.07948101 33.10704954 61.85256843 93.87463646 69.19580078 145.39453125 C70.71466558 157.51537315 71.01298877 169.66449538 71.02392578 181.86328125 C71.02493286 182.65086823 71.02593994 183.4384552 71.02697754 184.24990845 C71.01586696 197.16088817 70.27445907 209.66660793 67.77392578 222.36328125 C67.63470703 223.10449219 67.49548828 223.84570312 67.35205078 224.609375 C63.55954856 244.3093171 56.19741711 267.36172175 41.83642578 282.03125 C39.32416058 283.65375461 38.27153813 283.76187153 35.33642578 283.30078125 C33.46535308 282.70570002 31.61292541 282.05111488 29.77392578 281.36328125 C28.50214253 280.96216474 27.22856086 280.56672341 25.95361328 280.17578125 C0.01494751 271.94509689 -21.63678543 255.83470302 -41.22607422 237.36328125 C-42.00982422 236.63367188 -42.79357422 235.9040625 -43.60107422 235.15234375 C-50.21427459 228.79894768 -55.70729565 221.658243 -61.22607422 214.36328125 C-61.90412109 213.48027344 -62.58216797 212.59726562 -63.28076172 211.6875 C-72.89800024 198.85786437 -81.0141305 185.12951166 -88.41357422 170.92578125 C-88.97842529 169.84151855 -89.54327637 168.75725586 -90.12524414 167.64013672 C-94.43570006 159.22952349 -94.43570006 159.22952349 -95.22607422 155.36328125 C-87.66834411 152.18068576 -79.99024295 149.61104945 -72.16357422 147.17578125 C-69.92181966 146.47673951 -67.6808835 145.77506584 -65.44091797 145.0703125 C-64.46243896 144.76585205 -63.48395996 144.4613916 -62.47583008 144.14770508 C-60.28430318 143.56647114 -60.28430318 143.56647114 -59.22607422 142.36328125 C-81.8456668 136.09250311 -104.69911228 139.35847288 -127.22607422 144.36328125 C-125.78956426 139.92510869 -124.31729975 135.51521845 -122.61279297 131.171875 C-115.33002147 112.55182996 -110.67512935 93.20062778 -108.22607422 73.36328125 C-108.13181152 72.64358154 -108.03754883 71.92388184 -107.94042969 71.18237305 C-106.9962489 63.11967722 -106.98459295 55.03229458 -106.97607422 46.92578125 C-106.9747348 46.17238464 -106.97339539 45.41898804 -106.97201538 44.64276123 C-106.97785728 29.47678763 -108.47951125 15.33809136 -112.77294922 0.7109375 C-113.29002283 -1.96803869 -113.50306559 -3.20483877 -112.22607422 -5.63671875 C-109.47998047 -7.1640625 -109.47998047 -7.1640625 -105.78857422 -8.57421875 C-105.13058838 -8.82582764 -104.47260254 -9.07743652 -103.79467773 -9.33666992 C-69.21520776 -22.1733246 -30.64799177 -22.35235979 0 0 Z " fill="#CCE5FD" transform="translate(704.22607421875,261.63671875)"/>
<path d="M0 0 C2.65726299 70.86034651 -19.46244614 146.4543256 -68 199 C-83.74236141 215.83043639 -103.26122863 229.91514014 -124 240 C-143.89020713 212.51535015 -163.26054735 184.88400787 -157.61889648 149.48364258 C-150.47826745 108.60769736 -139.84893302 58.18493293 -104.0390625 32.91015625 C-80.87978523 18.01388038 -53.59047704 11.97657981 -27.1875 5.5 C-26.07545197 5.2265274 -24.96340393 4.95305481 -23.81765747 4.67129517 C-20.62347981 3.88886905 -17.4274935 3.11445198 -14.23046875 2.34375 C-13.25856598 2.10665817 -12.28666321 1.86956635 -11.28530884 1.62528992 C-9.93401382 1.30320305 -9.93401382 1.30320305 -8.55541992 0.97460938 C-7.76922775 0.7855603 -6.98303558 0.59651123 -6.17301941 0.4017334 C-4 0 -4 0 0 0 Z " fill="#CBE4FD" transform="translate(537,437)"/>
<path d="M0 0 C2.08327853 1.73606544 3.50547549 3.21413039 4.875 5.5625 C7.81181504 38.61501836 -17.38693017 74.35859876 -37.04296875 98.109375 C-43.37539957 105.65993711 -50.05844722 112.69689185 -57.125 119.5625 C-60.7124435 123.0905759 -60.7124435 123.0905759 -63.9375 126.9375 C-66.36729334 129.85325201 -69.03769129 132.15125324 -71.91796875 134.609375 C-74.25257303 136.67539649 -76.43785865 138.84136164 -78.625 141.0625 C-81.97937407 144.45701188 -85.42585054 147.65504603 -89.04296875 150.765625 C-98.31714168 158.76960164 -107.26138945 167.16404267 -116.2734375 175.4609375 C-117.30717072 176.41158986 -118.34102369 177.36211203 -119.375 178.3125 C-120.13598999 179.01270264 -120.13598999 179.01270264 -120.91235352 179.72705078 C-123.54545149 182.14226993 -126.21081968 184.50394992 -128.9375 186.8125 C-133.0519036 190.38120376 -136.89286574 194.22077374 -140.75 198.0625 C-141.38397705 198.69188477 -142.0179541 199.32126953 -142.67114258 199.96972656 C-146.69857192 204.01031572 -150.4615465 208.18890013 -154.125 212.5625 C-156.74167527 209.94582473 -156.78542055 208.11495495 -157.45703125 204.484375 C-157.69583008 203.19700439 -157.93462891 201.90963379 -158.18066406 200.58325195 C-158.43391867 199.15984127 -158.68616839 197.73625149 -158.9375 196.3125 C-159.06717163 195.59009125 -159.19684326 194.8676825 -159.33044434 194.12338257 C-162.5662267 176.02443135 -164.96833291 157.81792445 -167.125 139.5625 C-167.25922363 138.43682617 -167.39344727 137.31115234 -167.53173828 136.15136719 C-171.96746049 97.78330587 -170.66498729 56.25463018 -146.125 24.5625 C-145.18720703 23.34820312 -145.18720703 23.34820312 -144.23046875 22.109375 C-130.41848363 5.47683713 -111.63333243 -2.31596746 -90.44335938 -4.35058594 C-86.00643767 -4.74739529 -81.56734915 -5.10722925 -77.125 -5.4375 C-81.71008403 -0.81302521 -81.71008403 -0.81302521 -83.9765625 1.23828125 C-88.64757076 5.54918975 -92.28265381 10.35305718 -95.875 15.5625 C-96.33471191 16.22677002 -96.79442383 16.89104004 -97.26806641 17.57543945 C-100.30447537 22.07367982 -102.78578543 26.66545267 -105.125 31.5625 C-104.49754883 30.90677002 -104.49754883 30.90677002 -103.85742188 30.23779297 C-99.70407088 25.97980328 -95.40299228 22.22439345 -90.625 18.6875 C-89.932854 18.17356689 -89.24070801 17.65963379 -88.52758789 17.13012695 C-63.26816118 -1.34447022 -29.38486138 -19.87799446 0 0 Z " fill="#EA0024" transform="translate(559.125,248.4375)"/>
<path d="M0 0 C6.89815111 4.26292682 10.17777649 8.95042881 13.75 16.125 C14.77751507 18.09830347 15.80885872 20.06961744 16.84375 22.0390625 C17.62298828 23.53034668 17.62298828 23.53034668 18.41796875 25.05175781 C20.87413985 29.62902975 23.5479224 34.06479764 26.25 38.5 C27.24761089 40.14700517 28.24501277 41.79413697 29.2421875 43.44140625 C29.71108398 44.21500488 30.17998047 44.98860352 30.66308594 45.78564453 C51.69229731 80.61671596 58.07422063 114.36036443 48.55859375 154.3125 C44.66535734 169.51903706 39.4332252 184.65628924 31 198 C9.05836187 185.74989815 -5.79801339 155.30719049 -12.47265625 132.04296875 C-12.92828685 130.3435375 -13.37510027 128.64171457 -13.8125 126.9375 C-14.0074707 126.1837207 -14.20244141 125.42994141 -14.40332031 124.65332031 C-17.73138595 110.74822772 -18.41047668 96.73044776 -18.375 82.5 C-18.37445618 81.67228088 -18.37391235 80.84456177 -18.37335205 79.99176025 C-18.28985582 52.21423416 -12.62273765 24.92353513 0 0 Z " fill="#CBE4FD" transform="translate(350,611)"/>
<path d="M0 0 C-6.49947543 37.25638903 -16.65195373 72.27782402 -48.48046875 95.8359375 C-56.91880414 101.47851578 -74.34640275 113.07290535 -84.921875 111.76171875 C-87.57402023 110.78959785 -89.61458862 109.35682592 -91.9375 107.75 C-117.75259628 91.08628706 -151.73716394 93.91614653 -180.578125 99.54248047 C-183.70846215 100.1338365 -186.84213197 100.58333686 -190 101 C-187.1967824 98.77682786 -184.42766857 97.1168399 -181.203125 95.57421875 C-180.25711426 95.11499023 -179.31110352 94.65576172 -178.33642578 94.18261719 C-177.31790527 93.68922852 -176.29938477 93.19583984 -175.25 92.6875 C-162.46190578 86.38331935 -150.2056102 79.35784087 -138 72 C-136.96649414 71.38141113 -135.93298828 70.76282227 -134.86816406 70.12548828 C-121.00954167 61.8141538 -107.53489217 53.0713095 -94.20483398 43.94897461 C-17.30771019 -8.65385509 -17.30771019 -8.65385509 0 0 Z " fill="#D6ECFD" transform="translate(661,125)"/>
<path d="M0 0 C0.99 0.495 0.99 0.495 2 1 C1.47792969 1.51304687 0.95585937 2.02609375 0.41796875 2.5546875 C-27.18780679 31.27242948 -32.94881508 70.95100591 -32.2890625 109.1328125 C-32.00167426 121.84179708 -30.65977435 134.40362123 -29 147 C-28.83951172 148.24072266 -28.67902344 149.48144531 -28.51367188 150.75976562 C-26.86864138 163.3716661 -25.04093247 175.9486681 -23.01049805 188.50390625 C-21.29177337 199.25461895 -19.60323702 210.08901796 -20 221 C-36.17540473 217.42203029 -50.62531083 207.21567463 -59.8125 193.5 C-77.962343 164.48174915 -75.95615123 123.33741553 -68.78125 91.27734375 C-63.05253691 67.83628022 -52.89382381 46.21903136 -37 28 C-36.14148438 26.94232422 -36.14148438 26.94232422 -35.265625 25.86328125 C-26.04472183 14.68842479 -13.24674752 5.78039892 0 0 Z " fill="#D6EBFD" transform="translate(410,255)"/>
<path d="M0 0 C6.89375775 6.89375775 5.30381801 25.99488224 5.3125 35.125 C4.99583429 70.71256176 -1.87036555 116.50309652 -27.37890625 143.51953125 C-32.40195556 147.48795765 -38.80416473 149.01205444 -44.8125 150.9375 C-46.23788553 151.40450689 -47.66325952 151.871549 -49.08862305 152.33862305 C-67.3696108 158.26403636 -85.90584067 163.38162964 -104.41023254 168.55522156 C-109.2431365 169.91287592 -114.05880422 171.31038949 -118.85693359 172.78662109 C-119.78378464 173.07119675 -120.71063568 173.3557724 -121.66557312 173.64897156 C-123.41881285 174.19093084 -125.17008753 174.73930131 -126.91902161 175.29499817 C-132.78135136 177.10932432 -132.78135136 177.10932432 -135 176 C-132.50217427 173.64351776 -130.00133185 171.29025984 -127.5 168.9375 C-126.80390625 168.28072266 -126.1078125 167.62394531 -125.390625 166.94726562 C-121.96731168 163.72998505 -118.5205638 160.55628002 -114.97265625 157.4765625 C-110.85763248 153.90330812 -106.89124687 150.1875029 -102.9375 146.4375 C-94.2213362 138.19035469 -94.2213362 138.19035469 -90.40625 134.69140625 C-82.24424029 127.19432136 -74.34450244 119.45154213 -66.5 111.625 C-65.72135086 110.85023315 -65.72135086 110.85023315 -64.92697144 110.05981445 C-59.58239089 104.73630349 -54.32059746 99.38628163 -49.41357422 93.64990234 C-47.60755747 91.54194705 -45.70776732 89.52767123 -43.8125 87.5 C-21.95807877 63.12676412 -4.36946329 32.84631023 0 0 Z " fill="#D6EBFD" transform="translate(577,267)"/>
<path d="M0 0 C2.24399574 2.88513738 4.13177537 5.86138263 6 9 C15.6613049 24.17916313 28.71307156 34.78906692 44.9453125 42.3046875 C45.91476807 42.759646 46.88422363 43.21460449 47.88305664 43.68334961 C50.25282427 44.79449759 52.62509957 45.89987669 55 47 C46.33333333 79 37.66666667 111 29 143 C27.72514003 142.37716792 26.45194177 141.75093386 25.17944336 141.12329102 C24.47025253 140.77492691 23.76106171 140.42656281 23.03038025 140.06764221 C7.87154171 132.09661515 -2.53717145 116.13041825 -8.31640625 100.421875 C-9.36641831 96.96574674 -10.23445273 93.52957586 -11 90 C-11.22429687 88.97390625 -11.44859375 87.9478125 -11.6796875 86.890625 C-16.97117232 57.17132669 -10.79566659 27.68770961 0 0 Z " fill="#D1E8FD" transform="translate(330,447)"/>
<path d="M0 0 C1.17578125 1.93920898 1.17578125 1.93920898 2.3125 4.49609375 C2.74240234 5.43831787 3.17230469 6.38054199 3.61523438 7.35131836 C4.07220703 8.3697583 4.52917969 9.38819824 5 10.4375 C9.96476368 21.14339312 15.53291238 31.13861 22 41 C22.680625 42.04559082 22.680625 42.04559082 23.375 43.11230469 C29.62948415 52.6583888 36.46004505 61.44209194 44 70 C44.93779297 71.10408203 44.93779297 71.10408203 45.89453125 72.23046875 C64.45280874 94.00493484 89.86893761 112.46746456 117 122 C117 122.33 117 122.66 117 123 C94.13305801 121.20221837 72.10317731 112.83091552 51.99658203 102.06835938 C50.63181768 101.33808195 49.26276766 100.61577245 47.89013672 99.90039062 C30.17923438 90.66130262 13.85979321 79.34829509 -1 66 C-1.52029785 65.53464844 -2.0405957 65.06929688 -2.57666016 64.58984375 C-13.9943028 54.35405785 -24.33575471 43.58806244 -34 31.6875 C-34.48629883 31.09573975 -34.97259766 30.50397949 -35.47363281 29.89428711 C-39.77238378 24.54952586 -43.39646215 18.82976195 -47 13 C-46.20005615 12.75354736 -45.4001123 12.50709473 -44.57592773 12.25317383 C-41.53677656 11.31594729 -38.49804554 10.37737493 -35.45965576 9.43768311 C-34.11557662 9.02213867 -32.77137963 8.6069752 -31.42706299 8.19219971 C-22.74540319 5.51220563 -14.10494592 2.75778053 -5.5546875 -0.3203125 C-3 -1 -3 -1 0 0 Z " fill="#3A6DC8" transform="translate(610,418)"/>
<path d="M0 0 C0.93392578 0.23783203 0.93392578 0.23783203 1.88671875 0.48046875 C5.25523829 1.33082026 8.62718042 2.16691668 12 3 C12.79857422 3.19819336 13.59714844 3.39638672 14.41992188 3.60058594 C31.37108241 7.79054548 47.5502469 10.29979871 65 11 C69.17474107 31.51693223 72.83463766 52.0636627 74 73 C67.34293195 72.43743087 61.5311093 70.73265707 55.25 68.5 C53.74796021 67.97031616 53.74796021 67.97031616 52.21557617 67.42993164 C42.9661997 64.10161558 33.98383247 60.31464621 25.14306641 56.02001953 C23.19106964 55.09094201 21.22276276 54.24021436 19.23046875 53.40234375 C14.84100176 51.32703348 11.83420809 49.68275787 9.63671875 45.25 C8.74757163 42.088588 8.09975348 38.94789492 7.53076172 35.71533203 C6.48424882 30.36146063 5.06739196 25.08794643 3.74478149 19.79669189 C2.94835189 16.60281909 2.16379878 13.4066479 1.390625 10.20703125 C1.12282227 9.1085083 0.85501953 8.00998535 0.57910156 6.87817383 C0 4 0 4 0 0 Z " fill="#C9E2FC" transform="translate(681,552)"/>
<path d="M0 0 C0.58563721 0.25579834 1.17127441 0.51159668 1.7746582 0.77514648 C20.11001998 8.72986176 38.75783022 15.56762063 58 21 C58.02511996 26.38533201 58.04305388 31.77062833 58.05493164 37.15600586 C58.05989441 38.97990515 58.0666668 40.8038006 58.07543945 42.62768555 C58.13084069 54.46073851 57.85824054 66.19653172 57 78 C52.27616205 77.40274352 48.19066244 76.03059833 43.84375 74.1640625 C43.17839233 73.88404388 42.51303467 73.60402527 41.82751465 73.31552124 C40.4278401 72.72508613 39.02945878 72.13157682 37.63232422 71.53515625 C35.50891925 70.62880707 33.38185705 69.73155458 31.25390625 68.8359375 C29.88779775 68.25833984 28.52190499 67.68023162 27.15625 67.1015625 C26.52795288 66.83582428 25.89965576 66.57008606 25.25231934 66.29629517 C23.4953128 65.54528236 21.74743625 64.77301925 20 64 C18.93765137 63.70134033 17.87530273 63.40268066 16.78076172 63.0949707 C12.01427051 59.5039908 11.62160971 54.00220951 10.3515625 48.37890625 C10.04930756 47.12746323 9.74705261 45.8760202 9.43563843 44.58665466 C8.63407533 41.26413878 7.86336035 37.93517115 7.09814453 34.60412598 C6.46884133 31.88867294 5.81765802 29.1786993 5.16524696 26.46872044 C3.81685838 20.86433372 2.48552995 15.25574163 1.18994141 9.63891602 C0.84402451 8.14691429 0.84402451 8.14691429 0.49111938 6.62477112 C0 4 0 4 0 0 Z " fill="#C9E3FD" transform="translate(698,622)"/>
<path d="M0 0 C3.16911929 2.67614518 6.3101156 5.34385362 9.31640625 8.203125 C14.53916647 13.14680643 19.94167362 17.64314431 25.75 21.875 C26.41417435 22.3590329 27.07834869 22.8430658 27.76264954 23.34176636 C31.93064937 26.24210986 35.91240877 28.4766358 40.6730957 30.26513672 C55.63981567 36.12301898 55.63981567 36.12301898 59.70513916 42.80096436 C62.91389048 50.64734616 64.14184388 58.91756238 65.4375 67.25 C65.90168556 69.75040853 66.37492843 72.24915339 66.85742188 74.74609375 C68.01007759 80.81549471 69.04931175 86.89588022 70 93 C69.01 93.495 69.01 93.495 68 94 C65.33485247 92.98687885 62.81942203 91.90851443 60.25 90.6875 C59.48937256 90.32648193 58.72874512 89.96546387 57.94506836 89.59350586 C46.25552667 83.85668915 36.39108322 75.96653154 27 67 C26.40058594 66.46375 25.80117188 65.9275 25.18359375 65.375 C10.75320187 51.98252494 0.82072409 33.65829597 0 14 C-0.13493928 9.33021592 -0.13134831 4.67016214 0 0 Z " fill="#CBE4FD" transform="translate(618,571)"/>
<path d="M0 0 C1.71577528 3.14333389 2.70442463 6.21683734 3.62890625 9.671875 C3.93699219 10.79932129 4.24507812 11.92676758 4.5625 13.08837891 C5.0575 14.90088135 5.0575 14.90088135 5.5625 16.75 C10.73227293 35.22335373 17.37089291 52.9823846 25.37109375 70.41796875 C26.66201097 73.25674834 27.87642229 76.09224863 29 79 C25.95955576 78.01231078 22.96077134 76.98460326 19.984375 75.81640625 C-0.10983366 68.02626014 -23.95042891 65.82992991 -45 71 C-42.38964489 68.36556412 -39.76214683 65.76505494 -37.0546875 63.23046875 C-28.68606774 55.29070632 -22.03738192 46.82106697 -16 37 C-15.63036133 36.39994141 -15.26072266 35.79988281 -14.87988281 35.18164062 C-8.23979306 24.15358373 -4.13900897 12.13920758 0 0 Z " fill="#D4EAFC" transform="translate(670,162)"/>
<path d="M0 0 C0.66 0 1.32 0 2 0 C3.375 1.43359375 3.375 1.43359375 5 3.4375 C11.78001876 11.33374136 19.6426101 17.65236557 27.9375 23.875 C28.74566162 24.4827124 29.55382324 25.0904248 30.38647461 25.71655273 C34.53316225 28.75042757 38.62112145 31.41868092 43.2421875 33.67578125 C57.30315249 40.55374709 57.30315249 40.55374709 60.13720703 48.32348633 C61.06913008 51.58589085 61.79277341 54.85682641 62.42871094 58.18896484 C63.06448212 61.31728511 63.86402 64.37504395 64.6953125 67.45703125 C65.82187036 71.67341558 66.94621525 75.88877696 67.99609375 80.125 C68.21450928 80.99382812 68.4329248 81.86265625 68.65795898 82.7578125 C69 85 69 85 68 88 C39.58022214 73.92768952 16.20795017 51.63191839 5.68066406 21.13037109 C3.4600675 14.18025431 1.72390084 7.08630037 0 0 Z " fill="#CDE5FC" transform="translate(600,500)"/>
<path d="M0 0 C3.0004893 2.84152298 5.34722596 5.78747922 7.6875 9.1875 C14.1826702 18.33132204 14.1826702 18.33132204 23 25 C22.40675614 29.3266445 21.34964377 33.06527554 19.7421875 37.12109375 C19.28481201 38.2915625 18.82743652 39.46203125 18.35620117 40.66796875 C18.11437103 41.2820459 17.87254089 41.89612305 17.62338257 42.52880859 C6.98989117 69.64869956 -0.14560042 97.09337481 -4 126 C-4.33 126 -4.66 126 -5 126 C-5.65427137 122.5640523 -6.29679914 119.12600185 -6.9375 115.6875 C-7.11990234 114.73037109 -7.30230469 113.77324219 -7.49023438 112.78710938 C-9.85941993 99.99350739 -10.240842 87.41128202 -10.25 74.4375 C-10.25067474 73.57617462 -10.25134949 72.71484924 -10.25204468 71.8274231 C-10.22200722 47.58157623 -8.16509442 23.0278239 0 0 Z " fill="#CFE6FC" transform="translate(315,574)"/>
<path d="M0 0 C3.19863423 3.1483939 6.24050755 6.3662113 9.1875 9.75 C22.80704966 24.83832462 38.84441098 35.30839048 57.55932617 43.08349609 C64.60431348 46.17311663 64.60431348 46.17311663 66.5234375 50.18359375 C66.68070313 51.44300781 66.83796875 52.70242188 67 54 C67.34607078 55.65331758 67.70365239 57.30425133 68.0703125 58.953125 C68.4248927 60.71814645 68.77640526 62.48378667 69.125 64.25 C69.30675781 65.1471875 69.48851562 66.044375 69.67578125 66.96875 C69.93294922 68.26039063 69.93294922 68.26039063 70.1953125 69.578125 C70.35016113 70.35575195 70.50500977 71.13337891 70.66455078 71.93457031 C71 74 71 74 71 77 C51.37090235 75.8453472 34.67376314 62.44532483 21.8125 48.625 C9.65794697 34.44468814 3.59899997 18.06206194 0 0 Z " fill="#CBE4FC" transform="translate(626,637)"/>
<path d="M0 0 C3.23706568 4.27593065 4.73864323 7.88432321 5.859375 13.109375 C6.16909489 14.50456022 6.47882853 15.89974239 6.78857422 17.29492188 C6.94485291 18.02122803 7.10113159 18.74753418 7.262146 19.49584961 C8.09496249 23.34391403 8.97921631 27.17996756 9.8671875 31.015625 C10.04528961 31.78519531 10.22339172 32.55476563 10.40689087 33.34765625 C16.02111465 57.32072016 24.5998696 80.70302121 35 103 C35.66 103 36.32 103 37 103 C37.05414062 103.76570313 37.10828125 104.53140625 37.1640625 105.3203125 C38.37025694 110.6298226 40.83701897 115.08304076 43.375 119.875 C44.18203369 121.40930664 44.18203369 121.40930664 45.00537109 122.97460938 C49.37352431 131.12986056 54.2798124 138.69396557 59.69287109 146.18212891 C76.66675074 169.78831267 90.01119788 195.56497406 100.0625 222.8125 C100.41672531 223.76647171 100.41672531 223.76647171 100.77810669 224.73971558 C103.27469373 231.50617155 105.47230968 238.06595681 106.54077148 245.21362305 C106.7680896 246.09787964 106.7680896 246.09787964 107 247 C107.66 247.33 108.32 247.66 109 248 C109.54052734 250.07983398 109.54052734 250.07983398 109.9609375 252.80859375 C110.63525243 256.89341147 111.38976676 260.93112319 112.2890625 264.97265625 C112.50820313 265.97490234 112.72734375 266.97714844 112.953125 268.00976562 C113.40222499 270.05029844 113.85799385 272.08937456 114.3203125 274.12695312 C115.70356905 280.52039784 116.30883115 286.46126788 116 293 C114.37021102 290.07099443 113.6310367 287.58634152 113.17578125 284.2734375 C112.96961182 282.87013184 112.96961182 282.87013184 112.75927734 281.43847656 C112.61184082 280.4275293 112.4644043 279.41658203 112.3125 278.375 C105.04029105 232.39902124 86.23755711 189.20027472 60 151 C34.07030976 113.03501958 15.06797206 70.35013627 5.78515625 25.16796875 C5.57189697 24.14026367 5.3586377 23.11255859 5.13891602 22.05371094 C4.7217727 20.01916095 4.31675016 17.98207753 3.92553711 15.94238281 C2.54989256 9.1975104 1.18266409 4.16999824 -4.75 0.125 C-25.05662717 -6.9042171 -55.58091868 9.14163662 -73.50439453 17.765625 C-92.60512951 27.21322 -110.68205472 38.63676591 -128.33203125 50.5390625 C-143.70049278 60.89035735 -159.44422875 70.68745451 -175.3125 80.25 C-176.11212158 80.73331787 -176.91174316 81.21663574 -177.7355957 81.71459961 C-187.98921812 87.86424624 -198.5709712 93.38332763 -209.1875 98.875 C-209.78048889 99.18191772 -210.37347778 99.48883545 -210.98443604 99.80505371 C-233.10898075 111.25270506 -233.10898075 111.25270506 -243.859375 116.28125 C-287.41757998 136.66428238 -320.2471356 161.04587854 -340 206 C-340.66322266 207.50820313 -340.66322266 207.50820313 -341.33984375 209.046875 C-349.80127002 230.38733965 -352.19937599 254.33503322 -352.13037109 277.08276367 C-352.12498029 279.19522179 -352.13036845 281.30746989 -352.13671875 283.41992188 C-352.14071377 291.31460887 -351.70911813 298.90458417 -350.62109375 306.72265625 C-350.07664967 313.66142225 -352.45874441 318.57741655 -355.65307617 324.53344727 C-366.73127506 345.28720406 -370.57537183 367.98561774 -374 391 C-374.33 391 -374.66 391 -375 391 C-375.2609021 382.80060795 -374.66454556 375.21591497 -373 367.1875 C-372.77997314 366.11508057 -372.55994629 365.04266113 -372.33325195 363.93774414 C-369.01855501 348.61415532 -363.9894132 333.7704669 -356.52612305 319.95678711 C-353.58798069 314.51625335 -352.77896126 310.45261298 -353.33984375 304.31640625 C-353.43330078 303.22263672 -353.52675781 302.12886719 -353.62304688 301.00195312 C-353.72681641 299.86693359 -353.83058594 298.73191406 -353.9375 297.5625 C-358.3114466 249.39264942 -348.46790406 202.20641996 -318 164 C-317.27296875 163.06671875 -316.5459375 162.1334375 -315.796875 161.171875 C-313.76164315 158.71189911 -311.51373 156.96193561 -309 155 C-307.85144531 153.84757812 -307.85144531 153.84757812 -306.6796875 152.671875 C-298.89865617 144.9135289 -290.33976044 138.67199106 -281.03125 132.91015625 C-278.08150091 131.11412486 -278.08150091 131.11412486 -275.78125 129.30859375 C-274 128 -274 128 -271 127 C-269.09671779 126.08441273 -267.20510191 125.14448133 -265.3203125 124.19140625 C-263.60026001 123.32515625 -263.60026001 123.32515625 -261.84545898 122.44140625 C-261.23838104 122.13477051 -260.6313031 121.82813477 -260.00582886 121.51220703 C-250.53437071 116.72968237 -241.03905026 112.01738526 -231.4375 107.5 C-224.48479779 104.22670293 -217.66273967 100.83848702 -211 97 C-211 96.34 -211 95.68 -211 95 C-210.12359863 94.89236328 -209.24719727 94.78472656 -208.34423828 94.67382812 C-204.89259008 93.97835805 -202.55397162 92.92979425 -199.4921875 91.21875 C-198.43676758 90.63246826 -197.38134766 90.04618652 -196.29394531 89.44213867 C-195.16569336 88.80123291 -194.03744141 88.16032715 -192.875 87.5 C-191.68334427 86.82969879 -190.49161102 86.15953536 -189.29980469 85.48950195 C-171.39541713 75.37520163 -153.73617246 64.76022056 -136.74267578 53.17578125 C-127.25402219 46.77379811 -117.5434237 40.68759131 -107.875 34.5625 C-107.09350586 34.06637207 -106.31201172 33.57024414 -105.50683594 33.05908203 C-102.06691782 30.88669735 -98.62139494 28.7637133 -95.0703125 26.77734375 C-92.01011601 25.18192342 -92.01011601 25.18192342 -90 23 C-88.34460032 22.30582847 -86.67601917 21.64279231 -85 21 C-83.25919502 20.16306809 -81.52772585 19.30651748 -79.8046875 18.43359375 C-78.84175781 17.94826172 -77.87882812 17.46292969 -76.88671875 16.96289062 C-75.89285156 16.45951172 -74.89898438 15.95613281 -73.875 15.4375 C-71.89416986 14.43433827 -69.91243852 13.43295349 -67.9296875 12.43359375 C-67.05554199 11.99072021 -66.18139648 11.54784668 -65.28076172 11.09155273 C-63 10 -63 10 -60 9 C-60.33 8.34 -60.66 7.68 -61 7 C-60.22140625 7.07089844 -59.4428125 7.14179687 -58.640625 7.21484375 C-53.64191568 6.91985554 -49.42277904 5.28280986 -44.75 3.5625 C-43.83992188 3.23701172 -42.92984375 2.91152344 -41.9921875 2.57617188 C-37.42163739 0.96481796 -37.42163739 0.96481796 -33 -1 C-29.35474995 -1.78550843 -25.67745968 -2.38542454 -22 -3 C-20.9171875 -3.19142578 -20.9171875 -3.19142578 -19.8125 -3.38671875 C-12.98479516 -4.44666486 -5.54295671 -4.59273556 0 0 Z " fill="#172344" transform="translate(675,113)"/>
<path d="M0 0 C3.9128521 6.95482953 3.16136949 15.81919564 3.203125 23.609375 C3.21009399 24.49068085 3.21706299 25.37198669 3.22424316 26.27999878 C3.24151783 29.10338178 3.24796112 31.92656638 3.25 34.75 C3.25100708 35.71331238 3.25201416 36.67662476 3.25305176 37.66912842 C3.2431469 51.65391183 2.85632214 65.2631835 0 79 C-0.13921875 79.7204248 -0.2784375 80.44084961 -0.421875 81.18310547 C-1.40065591 86.18689632 -2.61133702 91.09483169 -4 96 C-4.2263916 96.80228027 -4.4527832 97.60456055 -4.68603516 98.43115234 C-8.93098487 113.06011766 -14.52332138 129.78358306 -24.8359375 141.328125 C-27.14337668 143.72875284 -27.14337668 143.72875284 -27.375 146.23828125 C-27.25125 146.92277344 -27.1275 147.60726562 -27 148.3125 C-26.896875 148.98925781 -26.79375 149.66601562 -26.6875 150.36328125 C-25.99491689 153.20415741 -25.99491689 153.20415741 -24.6328125 156.65625 C-22.05320418 164.25167633 -21.12872894 172.29089062 -19.875 180.1875 C-19.60875818 181.83018934 -19.34183627 183.4727686 -19.07421875 185.11523438 C-18.58417513 188.12849306 -18.09802804 191.14231974 -17.61669922 194.15698242 C-17.23521093 196.53426156 -16.84048564 198.90950935 -16.42456055 201.28100586 C-15.89481842 204.67360967 -15.90512776 207.94354296 -15.9375 211.375 C-15.94652344 212.62023437 -15.95554687 213.86546875 -15.96484375 215.1484375 C-15.97644531 216.08945312 -15.98804688 217.03046875 -16 218 C-16.33 218 -16.66 218 -17 218 C-17.16604736 216.7310791 -17.16604736 216.7310791 -17.33544922 215.43652344 C-17.75501284 212.23806029 -18.17646719 209.03985302 -18.59912109 205.84179688 C-18.78019413 204.46884667 -18.96055618 203.09580247 -19.14013672 201.72265625 C-21.10547425 185.76773203 -21.10547425 185.76773203 -24.4375 170.0625 C-25.55117028 165.76045388 -26.61782829 161.45338184 -27.625 157.125 C-27.86476563 156.09632813 -28.10453125 155.06765625 -28.3515625 154.0078125 C-28.56554687 153.01523437 -28.77953125 152.02265625 -29 151 C-29.27457031 150.01515625 -29.54914062 149.0303125 -29.83203125 148.015625 C-30.05890731 143.94240837 -28.36669056 141.77716556 -26.0625 138.625 C-7.62945357 111.55980483 0.23008834 78.4794254 0.09765625 45.99609375 C0.09553383 44.0175515 0.09553383 44.0175515 0.09336853 41.9990387 C0.08958243 38.52210534 0.07978636 35.04521493 0.06866455 31.56829834 C0.0583656 28.00842876 0.05385288 24.44855212 0.04882812 20.88867188 C0.03815988 13.92576381 0.02113145 6.96288397 0 0 Z " fill="#162345" transform="translate(791,407)"/>
<path d="M0 0 C1.48999952 2.71969563 2.29639538 4.97224569 2.68359375 8.04296875 C6.01142606 31.08568641 13.46194761 54.72414164 25 75 C25.43957031 75.88429688 25.87914062 76.76859375 26.33203125 77.6796875 C29.61263267 84.20124561 33.72212944 90.13795406 37.875 96.125 C38.4520166 96.96063477 39.0290332 97.79626953 39.62353516 98.65722656 C43.71847554 104.47110159 48.21047255 109.7515843 53 115 C54.19118635 116.37180769 55.37923322 117.74635539 56.5625 119.125 C57.70455489 120.42000867 58.85023225 121.71183428 60 123 C60.495 123.56203125 60.99 124.1240625 61.5 124.703125 C65.30076396 128.76994243 69.57267277 132.05217666 74.0625 135.3125 C74.65232666 135.74546387 75.24215332 136.17842773 75.84985352 136.62451172 C81.68014129 140.75677602 87.71006084 143.20332969 95 142 C97.56956364 140.88279842 99.65266755 139.5648883 102 138 C100.8742387 141.37728391 100.49503032 141.65740451 97.5 143.25 C92.67195254 145.45001454 89.05040372 145.59822903 84 144 C74.66410675 139.9089906 67.55009331 133.39071758 60.37451172 126.34814453 C59.2430134 125.23835168 58.09444261 124.14599237 56.94140625 123.05859375 C41.78528034 108.53251464 29.26431544 89.73775765 20 71 C20 70.34 20 69.68 20 69 C19.34 68.67 18.68 68.34 18 68 C17.05720018 65.93257734 16.20613309 63.82306804 15.3984375 61.69921875 C15.1571109 61.06643509 14.9157843 60.43365143 14.66714478 59.7816925 C14.15776322 58.44049172 13.65194821 57.09793183 13.14941406 55.75415039 C12.38062828 53.70251998 11.59746226 51.65681552 10.8125 49.61132812 C10.31943478 48.30762329 9.82721939 47.00359666 9.3359375 45.69921875 C8.88782715 44.51158936 8.4397168 43.32395996 7.97802734 42.1003418 C7 39 7 39 7 35 C6.34 34.67 5.68 34.34 5 34 C4.47265625 32.20703125 4.47265625 32.20703125 4.0625 29.8125 C3.29211957 25.50453262 2.36723285 21.26240873 1.375 17 C0.11917544 11.23204197 -0.36615218 5.88555721 0 0 Z " fill="#15203F" transform="translate(291,686)"/>
<path d="M0 0 C1.19343306 3.44462572 0.81379015 5.34501167 -0.44921875 8.7265625 C-0.7961377 9.66234131 -1.14305664 10.59812012 -1.50048828 11.56225586 C-1.89220215 12.57296143 -2.28391602 13.58366699 -2.6875 14.625 C-3.29827393 16.21550171 -3.29827393 16.21550171 -3.92138672 17.83813477 C-15.34526465 47.07083102 -29.89936328 74.10524162 -49.75 98.5 C-50.30042969 99.18835938 -50.85085938 99.87671875 -51.41796875 100.5859375 C-54.04312808 103.8217454 -56.45106823 106.72592721 -60 109 C-58.40124128 105.22192771 -55.88190859 102.46111978 -53.1875 99.4375 C-28.33213248 70.70263495 -12.69075656 35.41514252 0 0 Z " fill="#17213F" transform="translate(543,537)"/>
<path d="M0 0 C0.33 0 0.66 0 1 0 C1.01981934 0.75917725 1.03963867 1.51835449 1.06005859 2.30053711 C1.56239813 21.85429413 1.56239813 21.85429413 3.59765625 41.2890625 C4.6295421 50.80645627 3.3244947 58.74659032 0.80834961 67.94970703 C-3.24757979 82.843321 -6.04075463 97.67647118 -8 113 C-8.33 113 -8.66 113 -9 113 C-9.42188788 103.65305757 -8.17615661 95.01181332 -6.3125 85.875 C-6.04119537 84.49486826 -5.77028425 83.11465911 -5.49975586 81.734375 C-4.03325143 74.37367278 -2.29581872 67.16940559 -0.0625 60 C2.33223681 52.25162736 2.71771764 44.99705629 1 37 C0.34 36.67 -0.32 36.34 -1 36 C-2 35 -2 35 -2.0625 31.4375 C-2.041875 30.303125 -2.02125 29.16875 -2 28 C-1.67 28 -1.34 28 -1 28 C-0.67 18.76 -0.34 9.52 0 0 Z " fill="#172243" transform="translate(299,505)"/>
<path d="M0 0 C0 0.66 0 1.32 0 2 C-5.28 3.98 -10.56 5.96 -16 8 C-15.65066406 9.83304687 -15.30132813 11.66609375 -14.94140625 13.5546875 C-14.48154836 15.99474975 -14.0219254 18.43485628 -13.5625 20.875 C-13.21735352 22.68097656 -13.21735352 22.68097656 -12.86523438 24.5234375 C-10.6461967 36.35830511 -9.81338214 47.7207703 -9.81469727 59.74365234 C-9.81247732 62.02329299 -9.79416345 64.30247371 -9.77539062 66.58203125 C-9.77246195 68.03385253 -9.77047364 69.48567608 -9.76953125 70.9375 C-9.76542236 72.24589844 -9.76131348 73.55429687 -9.75708008 74.90234375 C-10 78 -10 78 -12 80 C-12.01458252 78.91807373 -12.02916504 77.83614746 -12.04418945 76.72143555 C-12.10329646 72.60769732 -12.18049123 68.49444446 -12.26245117 64.38110352 C-12.29518348 62.61946642 -12.32336547 60.85773739 -12.34643555 59.09594727 C-12.56035603 43.17025037 -14.04421517 27.68760029 -18.546875 12.34765625 C-19.31217171 8.38262759 -19.31217171 8.38262759 -18 6 C-15.51352083 4.70631871 -13.23688773 3.70154274 -10.625 2.75 C-9.59632813 2.3478125 -9.59632813 2.3478125 -8.546875 1.9375 C-5.56963359 0.8022095 -3.21028808 0 0 0 Z " fill="#F5FAFD" transform="translate(610,250)"/>
<path d="M0 0 C0.33 0 0.66 0 1 0 C1.45267937 11.36728191 0.28994352 21.87840055 -2 33 C-2.23348145 34.16958252 -2.23348145 34.16958252 -2.47167969 35.36279297 C-5.95412009 52.32665684 -12.67320664 81.78213776 -28 92 C-26.68563682 89.33386854 -25.30832881 86.71846836 -23.86328125 84.12109375 C-9.60460149 58.12393831 -1.70913797 29.6483118 0 0 Z " fill="#14203F" transform="translate(421,732)"/>
<path d="M0 0 C0.66 0.33 1.32 0.66 2 1 C1.236875 1.886875 0.47375 2.77375 -0.3125 3.6875 C-1.88958811 5.5729573 -3.18311829 7.31050492 -4.4375 9.4375 C-6.58349034 12.95692416 -9.26455343 15.92815547 -12 19 C-10.515 18.7525 -10.515 18.7525 -9 18.5 C2.42977263 17.10415166 13.72180084 17.8370577 25 20 C25 20.33 25 20.66 25 21 C24.00258789 20.98952637 23.00517578 20.97905273 21.97753906 20.96826172 C18.22025244 20.93162283 14.46298105 20.9089426 10.70556641 20.89013672 C9.08997936 20.88017784 7.47440985 20.86660582 5.85888672 20.84912109 C-3.63974005 20.74901157 -12.66351792 20.96123594 -22 23 C-19.27781663 20.27272844 -16.54934073 17.5523692 -13.80859375 14.84375 C-12.68486393 13.72919883 -11.56116645 12.61461505 -10.4375 11.5 C-9.87353516 10.94441406 -9.30957031 10.38882813 -8.72851562 9.81640625 C-5.58774819 6.69400588 -2.69298228 3.5291895 0 0 Z " fill="#ECF5FB" transform="translate(647,210)"/>
<path d="M0 0 C-0.33 0.66 -0.66 1.32 -1 2 C-2.85986328 2.59082031 -2.85986328 2.59082031 -5.3203125 3.078125 C-6.23659424 3.26632812 -7.15287598 3.45453125 -8.09692383 3.6484375 C-9.09618896 3.84695313 -10.0954541 4.04546875 -11.125 4.25 C-23.20080662 6.75984759 -35.09894432 9.76983586 -47 13 C-47.87720703 13.23783203 -48.75441406 13.47566406 -49.65820312 13.72070312 C-52.12752181 14.39279214 -54.59548295 15.06951425 -57.0625 15.75 C-57.78219971 15.94851563 -58.50189941 16.14703125 -59.2434082 16.3515625 C-62.29436566 17.20377303 -65.27431887 18.10167294 -68.24609375 19.203125 C-71.15714128 20.04547067 -72.19501838 19.8437049 -75 19 C-59.39025754 13.19829593 -43.53608745 8.9540913 -27.375 5 C-26.36684235 4.75108002 -25.35868469 4.50216003 -24.31997681 4.24569702 C-21.41068863 3.52996692 -18.49898253 2.82526597 -15.5859375 2.125 C-14.70861465 1.90975174 -13.83129181 1.69450348 -12.92738342 1.47273254 C-8.52278179 0.43181818 -4.56317509 -0.25242701 0 0 Z " fill="#EBF2F8" transform="translate(535,438)"/>
<path d="M0 0 C0.99 0 1.98 0 3 0 C3.02511996 5.38533201 3.04305388 10.77062833 3.05493164 16.15600586 C3.05989441 17.97990515 3.0666668 19.8038006 3.07543945 21.62768555 C3.13084069 33.46073851 2.85824054 45.19653172 2 57 C-1.84222828 56.40871098 -4.93681018 55.77515318 -8.375 53.9375 C-9.06335938 53.57527344 -9.75171875 53.21304688 -10.4609375 52.83984375 C-10.96882812 52.56269531 -11.47671875 52.28554688 -12 52 C-8.32264395 50.77421465 -7.44933477 51.53403272 -4 53 C-3.01 53 -2.02 53 -1 53 C-0.01533747 50.04601242 0.12127836 48.14750978 0.11352539 45.06958008 C0.11344986 44.06876907 0.11337433 43.06795807 0.11329651 42.03681946 C0.10813522 40.95861435 0.10297394 39.88040924 0.09765625 38.76953125 C0.0962413 37.66397385 0.09482635 36.55841644 0.09336853 35.4193573 C0.08776514 31.88371083 0.07521204 28.34812738 0.0625 24.8125 C0.05748544 22.41731862 0.05292246 20.02213625 0.04882812 17.62695312 C0.03779461 11.75128053 0.02105316 5.87564477 0 0 Z " fill="#F0F7FC" transform="translate(753,643)"/>
<path d="M0 0 C6.20722741 -0.19705484 12.06854815 -0.03149091 18 2 C18.99 2.99 18.99 2.99 20 4 C19.33094131 4.21884354 18.66188263 4.43768707 17.97254944 4.66316223 C11.63261102 6.73695313 5.29275247 8.81098798 -1.047019 10.88528919 C-4.30547271 11.95140893 -7.56395601 13.01743804 -10.82250977 14.08325195 C-14.57837887 15.31173329 -18.33411419 16.54062334 -22.08984375 17.76953125 C-23.24645004 18.14777542 -24.40305634 18.52601959 -25.5947113 18.91572571 C-26.69517288 19.27587265 -27.79563446 19.63601959 -28.92944336 20.00708008 C-29.9678537 20.34438141 -31.00626404 20.68168274 -32.07614136 21.02920532 C-33.94613323 21.6500897 -35.80897401 22.29323209 -37.66140747 22.96469116 C-38.45191498 23.2492215 -39.24242249 23.53375183 -40.05688477 23.8269043 C-41.06550316 24.20470284 -41.06550316 24.20470284 -42.09449768 24.59013367 C-44.36536024 25.07858761 -45.81418652 24.71464371 -48 24 C-29 17.66666667 -10 11.33333333 9 5 C8.34 4.34 7.68 3.68 7 3 C7 2.67 7 2.34 7 2 C4.69 1.67 2.38 1.34 0 1 C0 0.67 0 0.34 0 0 Z " fill="#071242" transform="translate(627,401)"/>
<path d="M0 0 C3.16911929 2.67614518 6.3101156 5.34385362 9.31640625 8.203125 C16.75529609 15.24451691 24.82014859 21.00593954 33.25341797 26.78857422 C35.20717982 28.1436995 37.11629056 29.54910108 39 31 C31.74343272 31 24.19788859 23.55510664 18.65625 19.1640625 C16.88888712 17.80363569 16.88888712 17.80363569 14 17 C12.3515625 15.29296875 12.3515625 15.29296875 10.625 13.1875 C7.88523018 9.85348786 5.50774809 7.80619847 2 5 C2.33 12.26 2.66 19.52 3 27 C-1.1462674 18.70746521 -0.11621094 9.07736596 0 0 Z " fill="#F2F8FC" transform="translate(618,571)"/>
<path d="M0 0 C3.21506042 3.21506042 6.21885868 6.34135368 9.1875 9.75 C18.40027915 19.95631416 28.66983952 27.40327923 40.16577148 34.81420898 C41.78644749 35.86194269 43.39426437 36.92950958 45 38 C44.505 38.99 44.505 38.99 44 40 C30.68203764 31.99585449 19.04419007 23.37419921 8.21484375 12.1875 C6.19890191 9.97014707 6.19890191 9.97014707 4 9 C4.66 11.31 5.32 13.62 6 16 C5.34 16.33 4.68 16.66 4 17 C2.68 11.39 1.36 5.78 0 0 Z " fill="#ECF3F9" transform="translate(626,637)"/>
<path d="M0 0 C-2.97 1.65 -5.94 3.3 -9 5 C-9 5.99 -9 6.98 -9 8 C-7.35 8 -5.7 8 -4 8 C-7.31768642 11.31768642 -11.86964138 11.35551044 -16.375 12.1875 C-17.3340625 12.37763672 -18.293125 12.56777344 -19.28125 12.76367188 C-20.66957031 13.02567383 -20.66957031 13.02567383 -22.0859375 13.29296875 C-22.9320459 13.4530542 -23.7781543 13.61313965 -24.64990234 13.77807617 C-27.0551508 14.00520799 -28.71534715 13.73442331 -31 13 C-27.07370707 10.97510742 -23.14103908 8.9633726 -19.2019043 6.96362305 C-17.8625037 6.28134203 -16.52491919 5.59548364 -15.18920898 4.90600586 C-13.27011623 3.91617302 -11.34488302 2.93934385 -9.41796875 1.96484375 C-8.26063232 1.3730835 -7.1032959 0.78132324 -5.91088867 0.17163086 C-3 -1 -3 -1 0 0 Z " fill="#E6F0F8" transform="translate(502,212)"/>
<path d="M0 0 C0.33 0 0.66 0 1 0 C0.47848054 6.53855019 -0.79859898 12.14961553 -3 18.3125 C-3.54286518 19.87067671 -4.08457359 21.42925702 -4.625 22.98828125 C-4.86476563 23.66415283 -5.10453125 24.34002441 -5.3515625 25.03637695 C-6.91631748 29.05488058 -6.91631748 29.05488058 -6 33 C-0.555 32.505 -0.555 32.505 5 32 C1.52934193 34.31377205 -1.67040155 34.88984473 -5.6875 35.625 C-6.7403418 35.82609375 -6.7403418 35.82609375 -7.81445312 36.03125 C-9.54181706 36.3602717 -11.27076591 36.68095312 -13 37 C-10.70629514 29.96765214 -8.19371131 23.0338211 -5.60546875 16.10546875 C-3.62391738 10.77186572 -1.76434508 5.40936569 0 0 Z " fill="#EBF2F8" transform="translate(590,369)"/>
<path d="M0 0 C0.66 0 1.32 0 2 0 C3.375 1.43359375 3.375 1.43359375 5 3.4375 C12.55271097 12.28273676 21.64024562 19.19729192 31 26 C30.01 26.33 29.02 26.66 28 27 C25.65234375 25.4453125 25.65234375 25.4453125 22.9375 23.125 C21.968125 22.30128906 20.99875 21.47757813 20 20.62890625 C8.91578947 10.91578947 8.91578947 10.91578947 5 7 C5.64187918 12.13503344 6.68272247 16.9943454 8 22 C7.34 22 6.68 22 6 22 C4.9978766 18.52144132 3.9986571 15.04205526 3 11.5625 C2.71382812 10.56927734 2.42765625 9.57605469 2.1328125 8.55273438 C1.86210938 7.60849609 1.59140625 6.66425781 1.3125 5.69140625 C1.06113281 4.81685791 0.80976562 3.94230957 0.55078125 3.04125977 C0 1 0 1 0 0 Z " fill="#EBF3FA" transform="translate(600,500)"/>
<path d="M0 0 C0 11.88 0 23.76 0 36 C-0.99 35.34 -1.98 34.68 -3 34 C-3.26711404 31.44604513 -3.34849029 29.13725626 -3.29296875 26.5859375 C-3.28872391 25.85629791 -3.28447906 25.12665833 -3.28010559 24.37490845 C-3.26329353 22.04123241 -3.22563868 19.7084156 -3.1875 17.375 C-3.17245634 15.79428329 -3.15876738 14.21355307 -3.14648438 12.6328125 C-3.11338201 8.75487656 -3.06158404 4.87758402 -3 1 C-1 0 -1 0 0 0 Z " fill="#D6E6F6" transform="translate(775,426)"/>
<path d="M0 0 C0.33 0 0.66 0 1 0 C0.99476318 1.23975586 0.98952637 2.47951172 0.98413086 3.75683594 C0.96586832 8.4086839 0.95449121 13.06052878 0.94506836 17.71240234 C0.9400763 19.71598852 0.93328032 21.71957112 0.92456055 23.72314453 C0.81092961 38.18038446 0.81092961 38.18038446 1.77734375 52.59570312 C2.15971998 56.72469557 2.08247875 60.8577339 2 65 C0.50927734 63.83227539 0.50927734 63.83227539 -1 62 C-1.27099609 59.57202148 -1.27099609 59.57202148 -1.1484375 56.68359375 C-1.03323978 52.17258657 -1.05857645 47.73001055 -1.2890625 43.22265625 C-1.98701481 28.58996957 -1.92159849 14.53109599 0 0 Z " fill="#151D3B" transform="translate(289,620)"/>
<path d="M0 0 C3.39324871 2.7668028 4.86588637 6.57175119 6.6875 10.4375 C12.47273862 22.28207088 19.76913746 32.21513256 28.4609375 42.06640625 C31 45 31 45 33 48 C19.1732471 42.40572756 9.33010847 21.73134176 3 9 C1.77024396 5.99349865 0.84127093 3.1407448 0 0 Z " fill="#EEF4F9" transform="translate(343,756)"/>
<path d="M0 0 C0.66 0.33 1.32 0.66 2 1 C1.47792969 1.51304687 0.95585937 2.02609375 0.41796875 2.5546875 C-6.68260116 9.94126986 -11.67774608 18.22311381 -16.79248047 27.05224609 C-18.08248484 29.13304975 -19.50529249 31.06233617 -21 33 C-20.55799107 27.24486335 -18.15954365 23.55748676 -15.0625 18.875 C-14.15606499 17.47752594 -13.25106888 16.07911731 -12.34765625 14.6796875 C-11.94554932 14.06851074 -11.54344238 13.45733398 -11.12915039 12.82763672 C-9.95995998 10.93519143 -8.96553774 9.00290376 -8 7 C-8.99 7.33 -9.98 7.66 -11 8 C-10 5 -10 5 -7.78515625 3.578125 C-6.88667969 3.13984375 -5.98820312 2.7015625 -5.0625 2.25 C-4.16660156 1.80140625 -3.27070313 1.3528125 -2.34765625 0.890625 C-1.18556641 0.44976562 -1.18556641 0.44976562 0 0 Z " fill="#ECF2F8" transform="translate(410,255)"/>
<path d="M0 0 C2.45572727 2.45572727 2.56025916 3.89139029 3.2265625 7.26953125 C3.45472656 8.32333984 3.68289063 9.37714844 3.91796875 10.46289062 C4.38597432 12.68009933 4.83421632 14.90158004 5.26171875 17.12695312 C6.45823196 22.98085082 6.45823196 22.98085082 9.78417969 27.76000977 C11.80743398 29.03670152 13.81054415 30.04090208 16 31 C17.051875 31.59425781 18.10375 32.18851563 19.1875 32.80078125 C20.115625 33.29964844 21.04375 33.79851563 22 34.3125 C23.423125 35.08013672 23.423125 35.08013672 24.875 35.86328125 C25.57625 36.23839844 26.2775 36.61351562 27 37 C24 38 24 38 22.13061523 37.33496094 C21.44684814 36.97176758 20.76308105 36.60857422 20.05859375 36.234375 C19.31029297 35.83863281 18.56199219 35.44289063 17.79101562 35.03515625 C17.01435547 34.61105469 16.23769531 34.18695312 15.4375 33.75 C14.65697266 33.34136719 13.87644531 32.93273437 13.07226562 32.51171875 C5.8212192 28.62030298 5.8212192 28.62030298 4.31396484 23.81103516 C4.01546631 22.56265869 4.01546631 22.56265869 3.7109375 21.2890625 C3.38222656 19.91621094 3.38222656 19.91621094 3.046875 18.515625 C2.82515625 17.56171875 2.6034375 16.6078125 2.375 15.625 C2.14554688 14.67882812 1.91609375 13.73265625 1.6796875 12.7578125 C0.64977905 8.39296242 -0.13167772 4.50619248 0 0 Z " fill="#E8EFF6" transform="translate(686,572)"/>
<path d="M0 0 C0.66 0.33 1.32 0.66 2 1 C1.67 1.66 1.34 2.32 1 3 C1.57975586 2.85780029 2.15951172 2.71560059 2.75683594 2.5690918 C9.65441275 1.01734092 16.19808272 0.72896731 23.25 0.8125 C24.82394531 0.8134668 24.82394531 0.8134668 26.4296875 0.81445312 C31.38827725 0.84269826 36.12972679 0.95037215 41 2 C41 2.33 41 2.66 41 3 C21.47681196 4.08033452 21.47681196 4.08033452 11.69921875 3.96875 C7.10874029 4.02189592 2.56022956 4.49729753 -2 5 C-1.125 1.125 -1.125 1.125 0 0 Z " fill="#0A1446" transform="translate(626,229)"/>
<path d="M0 0 C3.0004893 2.84152298 5.34722596 5.78747922 7.6875 9.1875 C14.1826702 18.33132204 14.1826702 18.33132204 23 25 C22.625 27.9375 22.625 27.9375 22 31 C21.34 31.33 20.68 31.66 20 32 C20.13019531 31.14664063 20.26039063 30.29328125 20.39453125 29.4140625 C19.8259717 24.49405215 17.2397513 22.60637844 13.6875 19.375 C12.50184707 18.25999811 11.31819219 17.14286708 10.13671875 16.0234375 C9.5854834 15.50233398 9.03424805 14.98123047 8.46630859 14.44433594 C6.74914441 12.75290349 5.28126992 11.04448125 4 9 C4 8.34 4 7.68 4 7 C3.01 6.67 2.02 6.34 1 6 C0.34 7.65 -0.32 9.3 -1 11 C-1.33 11 -1.66 11 -2 11 C-1.125 3.375 -1.125 3.375 0 0 Z " fill="#EDF4F9" transform="translate(315,574)"/>
<path d="M0 0 C0.66 0 1.32 0 2 0 C3.46069336 1.49291992 3.46069336 1.49291992 5.15234375 3.54296875 C8.72756639 7.74253924 12.5295275 11.5553676 16.5625 15.3125 C17.24634766 15.9526001 17.93019531 16.5927002 18.63476562 17.25219727 C25.11518326 23.24210402 31.9494665 28.70108342 39 34 C34.87223874 34 32.8316025 31.85592594 29.75 29.375 C29.13954834 28.8893457 28.52909668 28.40369141 27.90014648 27.90332031 C20.58385132 21.98924527 13.7501444 15.54582179 7 9 C6.34112793 8.37029297 5.68225586 7.74058594 5.00341797 7.09179688 C4.36162598 6.46853516 3.71983398 5.84527344 3.05859375 5.203125 C2.47263428 4.63754883 1.8866748 4.07197266 1.28295898 3.48925781 C0 2 0 2 0 0 Z " fill="#4982DC" transform="translate(589,463)"/>
<path d="M0 0 C4.88690211 4.88690211 4.125 14.21220876 4.125 20.6875 C4.09335577 22.79184125 4.05528373 24.89614706 4 27 C3.67 27 3.34 27 3 27 C2.34 22.71 1.68 18.42 1 14 C0.67 14 0.34 14 0 14 C-0.12375 15.299375 -0.2475 16.59875 -0.375 17.9375 C-0.5859375 20.15234375 -0.5859375 20.15234375 -1 22 C-1.66 22.33 -2.32 22.66 -3 23 C-3.48350422 15.10276444 -1.67664721 7.66467297 0 0 Z " fill="#E6EEF7" transform="translate(577,267)"/>
<path d="M0 0 C2.65414175 2.59644301 5.22140588 5.21197361 7.65625 8.015625 C16.2083526 17.79954284 25.49798839 24.84776123 37 31 C36.01 31.33 35.02 31.66 34 32 C31.67701361 30.79772616 29.60224608 29.57009084 27.4375 28.125 C26.81343262 27.71443359 26.18936523 27.30386719 25.54638672 26.88085938 C15.84121891 20.35260786 3.97251269 11.36138629 0 0 Z " fill="#ECF3F8" transform="translate(642,676)"/>
<path d="M0 0 C0 0.66 0 1.32 0 2 C-5.28 3.98 -10.56 5.96 -16 8 C-15.67 9.464375 -15.34 10.92875 -15 12.4375 C-13.99499368 17.39883404 -13.83706716 21.94908184 -14 27 C-14.33 27 -14.66 27 -15 27 C-15.69888677 24.25244513 -16.3843988 21.50268803 -17.0625 18.75 C-17.26166016 17.97269531 -17.46082031 17.19539063 -17.66601562 16.39453125 C-17.84970703 15.64042969 -18.03339844 14.88632812 -18.22265625 14.109375 C-18.39547119 13.41811523 -18.56828613 12.72685547 -18.74633789 12.01464844 C-19.0423557 9.66360035 -18.89454305 8.19677736 -18 6 C-15.51352083 4.70631871 -13.23688773 3.70154274 -10.625 2.75 C-9.59632813 2.3478125 -9.59632813 2.3478125 -8.546875 1.9375 C-5.56963359 0.8022095 -3.21028808 0 0 0 Z " fill="#E5ECF4" transform="translate(610,250)"/>
<path d="M0 0 C0.33 0 0.66 0 1 0 C0.4262611 9.08923201 -0.61050442 18.00200434 -2 27 C-2.33 27 -2.66 27 -3 27 C-4.51233701 20.53205867 -5.21432579 14.64409958 -5 8 C-4.01 8 -3.02 8 -2 8 C-1.34 5.36 -0.68 2.72 0 0 Z " fill="#E2EEF8" transform="translate(313,673)"/>
<path d="M0 0 C13.86 0.495 13.86 0.495 28 1 C28.9681648 4.8726592 29.07622858 8.03611362 29 12 C26.23776722 9.23776722 26.42143709 6.79293383 26 3 C24.65808594 3.01740234 24.65808594 3.01740234 23.2890625 3.03515625 C7.27233115 3.1546841 7.27233115 3.1546841 2 2 C1.34 1.34 0.68 0.68 0 0 Z " fill="#F1F8FD" transform="translate(718,562)"/>
<path d="M0 0 C3.61324228 1.60969087 6.50710631 3.83137007 9.625 6.25 C19.29885785 14.33081968 19.29885785 14.33081968 31 17 C31.33 18.65 31.66 20.3 32 22 C7.09191054 10.55315016 7.09191054 10.55315016 0 0 Z " fill="#E8F0F7" transform="translate(637,566)"/>
<path d="M0 0 C0.33 0.66 0.66 1.32 1 2 C2.32 2.66 3.64 3.32 5 4 C-1.435 9.94 -1.435 9.94 -8 16 C-8.33 15.34 -8.66 14.68 -9 14 C-7.77731838 11.72888366 -6.51726078 9.60039342 -5.125 7.4375 C-4.74730469 6.83486328 -4.36960937 6.23222656 -3.98046875 5.61132812 C-1.19462386 1.19462386 -1.19462386 1.19462386 0 0 Z " fill="#0D307F" transform="translate(462,265)"/>
<path d="M0 0 C4.15118202 1.48641582 7.60984486 3.55627149 11.3125 5.9375 C16.06717621 8.94571201 20.62288651 11.31306243 26 13 C26 12.01 26 11.02 26 10 C26.66 10 27.32 10 28 10 C28.66 12.31 29.32 14.62 30 17 C19.16917907 13.87925499 8.43571444 8.59469155 0 1 C0 0.67 0 0.34 0 0 Z " fill="#F0F6FA" transform="translate(658,648)"/>
<path d="M0 0 C30.00836614 -0.49581693 30.00836614 -0.49581693 37 3 C37 3.66 37 4.32 37 5 C35.52031676 4.85950482 34.04125484 4.71245174 32.5625 4.5625 C31.73878906 4.48128906 30.91507813 4.40007812 30.06640625 4.31640625 C28 4 28 4 27 3 C18.48302904 1.4356584 9.62028003 1.90374377 1 2 C0.67 1.34 0.34 0.68 0 0 Z " fill="#F2F8FC" transform="translate(637,244)"/>
<path d="M0 0 C5.27174048 3.44409548 10.31227892 7.1520857 15.34570312 10.93359375 C19.42000532 13.95686835 23.54797444 16.56431118 28 19 C27.34 19.66 26.68 20.32 26 21 C19.73158256 16.88373922 13.5107908 12.77733382 7.62109375 8.12890625 C5.87983865 6.80292385 5.87983865 6.80292385 3 6 C0 2.55555556 0 2.55555556 0 0 Z " fill="#E9F0F8" transform="translate(629,582)"/>
<path d="M0 0 C-0.61746094 0.40089844 -1.23492187 0.80179687 -1.87109375 1.21484375 C-7.6254017 5.07732443 -12.45371918 9.2138889 -17.1875 14.27734375 C-19 16 -19 16 -21 16 C-20.72904518 12.75606865 -19.84345596 11.84801783 -17.453125 9.52734375 C-16.39334393 8.65434909 -15.32528397 7.79132667 -14.25 6.9375 C-13.7240625 6.50373047 -13.198125 6.06996094 -12.65625 5.62304688 C-4.07168159 -1.3572272 -4.07168159 -1.3572272 0 0 Z " fill="#EEF5FA" transform="translate(441,468)"/>
<path d="M0 0 C-4.96260257 1.91539047 -9.86626838 3.60961435 -15 5 C-14.72965366 7.43717258 -14.72965366 7.43717258 -14 10 C-13.01 10.66 -12.02 11.32 -11 12 C-10.3125 14.625 -10.3125 14.625 -10 17 C-14.25014931 13.1141492 -17.07988696 8.94156659 -20 4 C-17.23208055 3.13521219 -14.46134374 2.28288326 -11.6875 1.4375 C-10.90181641 1.19064453 -10.11613281 0.94378906 -9.30664062 0.68945312 C-8.54931641 0.46064453 -7.79199219 0.23183594 -7.01171875 -0.00390625 C-5.96697388 -0.32597046 -5.96697388 -0.32597046 -4.90112305 -0.65454102 C-3 -1 -3 -1 0 0 Z " fill="#4D87E3" transform="translate(583,427)"/>
<path d="M0 0 C2.14768081 3.22152122 2.34176106 4.56133946 2.6328125 8.32421875 C2.75849609 9.86625977 2.75849609 9.86625977 2.88671875 11.43945312 C2.96535156 12.51130859 3.04398438 13.58316406 3.125 14.6875 C3.21136719 15.77095703 3.29773438 16.85441406 3.38671875 17.97070312 C3.59890657 20.64662735 3.80301158 23.32292099 4 26 C2.02 25.67 0.04 25.34 -2 25 C-0.68 24.67 0.64 24.34 2 24 C1.855625 23.02160156 1.71125 22.04320312 1.5625 21.03515625 C0.55389897 13.988433 -0.25038781 7.13605268 0 0 Z " fill="#E5ECF6" transform="translate(751,599)"/>
<path d="M0 0 C0.13690844 7.72772107 -0.24833087 15.30881404 -1 23 C-1.33 23 -1.66 23 -2 23 C-2 15.74 -2 8.48 -2 1 C-6.455 1.495 -6.455 1.495 -11 2 C-6.86666745 -0.75555503 -4.73421538 -1.31451074 0 0 Z " fill="#040D3C" transform="translate(539,436)"/>
<path d="M0 0 C2.18697502 2.79624958 3.99152813 5.63307872 5.6875 8.75 C6.12449219 9.54921875 6.56148438 10.3484375 7.01171875 11.171875 C7.33785156 11.77515625 7.66398437 12.3784375 8 13 C7.01 13.495 7.01 13.495 6 14 C2 8.25 2 8.25 2 6 C-0.61047801 7.305239 -0.68066423 8.35826574 -1.625 11.0625 C-1.88539063 11.79597656 -2.14578125 12.52945312 -2.4140625 13.28515625 C-2.60742188 13.85105469 -2.80078125 14.41695313 -3 15 C-4.43410153 11.21180727 -3.51009497 8.93478721 -2.0625 5.25 C-1.49208984 3.77273438 -1.49208984 3.77273438 -0.91015625 2.265625 C-0.60980469 1.51796875 -0.30945313 0.7703125 0 0 Z " fill="#EDF3FA" transform="translate(330,447)"/>
<path d="M0 0 C0.66 0.33 1.32 0.66 2 1 C2 1.66 2 2.32 2 3 C2.66 3.66 3.32 4.32 4 5 C1.75256955 5.53181175 -0.49807102 6.05007126 -2.75 6.5625 C-4.62945312 6.99755859 -4.62945312 6.99755859 -6.546875 7.44140625 C-9.59473748 7.93444283 -11.17641828 8.07666879 -14 7 C-11.71296692 5.80274117 -9.42115138 4.61702982 -7.125 3.4375 C-6.14853516 2.92413086 -6.14853516 2.92413086 -5.15234375 2.40039062 C-3.46470143 1.53917109 -1.73420407 0.76313297 0 0 Z " fill="#D4DEEA" transform="translate(485,218)"/>
<path d="M0 0 C6.30978185 -0.33668796 10.37448693 -0.11198595 16 3 C18.97346053 3.81094378 21.97226519 4.42809454 25 5 C25 5.33 25 5.66 25 6 C16.31481952 5.59128562 8.30706251 3.38135792 0 1 C0 0.67 0 0.34 0 0 Z " fill="#417BD6" transform="translate(702,535)"/>
<path d="M0 0 C0.33 0 0.66 0 1 0 C2.1741788 9.03698325 3.28994872 17.86661545 3 27 C0.72008288 25.22497802 0.04952877 24.3699213 -0.34057617 21.45629883 C-0.32486572 20.46654053 -0.30915527 19.47678223 -0.29296875 18.45703125 C-0.28330078 17.38388672 -0.27363281 16.31074219 -0.26367188 15.20507812 C-0.23853516 14.08552734 -0.21339844 12.96597656 -0.1875 11.8125 C-0.16719727 10.11577148 -0.16719727 10.11577148 -0.14648438 8.38476562 C-0.11109958 5.58936683 -0.06172948 2.79492108 0 0 Z " fill="#152247" transform="translate(288,658)"/>
<path d="M0 0 C7 7 14 14 21 21 C15.86815926 19.52003095 12.97627592 16.35782938 9.375 12.625 C8.80265625 12.0475 8.2303125 11.47 7.640625 10.875 C0 3.09222384 0 3.09222384 0 0 Z " fill="#EDF3F9" transform="translate(635,625)"/>
<path d="M0 0 C-2.32738698 2.71027967 -4.18994739 3.55965322 -7.625 4.4375 C-12.66511725 5.83094418 -17.28489536 7.7563391 -22 10 C-21 7 -21 7 -19.17407227 5.90917969 C-18.00702759 5.42046387 -18.00702759 5.42046387 -16.81640625 4.921875 C-15.54893555 4.38820312 -15.54893555 4.38820312 -14.25585938 3.84375 C-13.36705078 3.4828125 -12.47824219 3.121875 -11.5625 2.75 C-10.23508789 2.18539062 -10.23508789 2.18539062 -8.88085938 1.609375 C-2.26412172 -1.13206086 -2.26412172 -1.13206086 0 0 Z " fill="#EFF5FA" transform="translate(635,133)"/>
<path d="M0 0 C2.56199557 1.1824595 4.68092244 2.48232006 7 4.125 C9.97570838 6.35333263 9.97570838 6.35333263 14 6 C14.66 5.01 15.32 4.02 16 3 C15.67 5.64 15.34 8.28 15 11 C9.25314803 8.37862892 4.45820171 5.52786111 0 1 C0 0.67 0 0.34 0 0 Z " fill="#ECF3F9" transform="translate(344,579)"/>
<path d="M0 0 C3.84516615 3.54938414 7.15122083 7.61288008 10 12 C10 12.66 10 13.32 10 14 C10.66 14 11.32 14 12 14 C13.625 16 13.625 16 15 18 C12 18 12 18 10.09765625 16.27734375 C0 4.66794626 0 4.66794626 0 0 Z " fill="#EBF1F8" transform="translate(348,442)"/>
<path d="M0 0 C0.33 0 0.66 0 1 0 C0.48446121 6.49850211 -0.46667709 12.66226532 -2 19 C-2.33 19 -2.66 19 -3 19 C-3.02701408 16.89590361 -3.04640223 14.79170822 -3.0625 12.6875 C-3.07410156 11.51574219 -3.08570313 10.34398437 -3.09765625 9.13671875 C-3 6 -3 6 -2 3 C-1.34 3 -0.68 3 0 3 C0 2.01 0 1.02 0 0 Z " fill="#0A1648" transform="translate(336,645)"/>
<path d="M0 0 C0.66 0.33 1.32 0.66 2 1 C1.52949219 1.37511719 1.05898438 1.75023437 0.57421875 2.13671875 C-3.1070004 5.16248273 -5.70821433 7.76019651 -8 12 C-9.6875 13.8125 -9.6875 13.8125 -11 15 C-11.66 14.34 -12.32 13.68 -13 13 C-4.738041 3.40546697 -4.738041 3.40546697 0 0 Z " fill="#F0021A" transform="translate(426,260)"/>
<path d="M0 0 C3.18849773 0.58496204 4.8929959 1.4983461 7.234375 3.72265625 C7.80800781 4.26083984 8.38164063 4.79902344 8.97265625 5.35351562 C9.55917969 5.91748047 10.14570312 6.48144531 10.75 7.0625 C11.35199219 7.63033203 11.95398438 8.19816406 12.57421875 8.78320312 C14.05563212 10.18231575 15.5286488 11.59030947 17 13 C16.34 13.66 15.68 14.32 15 15 C14.45859375 14.27296875 13.9171875 13.5459375 13.359375 12.796875 C10.87663412 9.85375833 8.27019282 7.63099857 5.25 5.25 C3.48375019 3.85364544 1.72870538 2.44257483 0 1 C0 0.67 0 0.34 0 0 Z " fill="#E9F2F9" transform="translate(703,263)"/>
<path d="M0 0 C4.99834992 -0.29402058 8.05062318 -0.20219742 12 3 C14.44586458 6.04080461 15.90932123 7.9571942 16.25 11.875 C16.1675 12.57625 16.085 13.2775 16 14 C14.6917422 12.03761331 13.43837744 10.03721846 12.25 8 C9.73005481 4.64007308 7.83080343 3.5961681 4 2 C2.66666667 1.33333333 1.33333333 0.66666667 0 0 Z " fill="#121D3B" transform="translate(663,110)"/>
<path d="M0 0 C3.57087427 1.50950594 5.81385442 3.60606226 8.5 6.375 C9.62921875 7.53128906 9.62921875 7.53128906 10.78125 8.7109375 C11.87953125 9.84402344 11.87953125 9.84402344 13 11 C14.33105219 12.33561058 15.66363293 13.66970732 17 15 C13.71694391 14.41864406 12.09113911 13.46076559 9.765625 11.09375 C8.90517578 10.22556641 8.90517578 10.22556641 8.02734375 9.33984375 C7.44082031 8.73269531 6.85429687 8.12554687 6.25 7.5 C5.64800781 6.89285156 5.04601562 6.28570312 4.42578125 5.66015625 C0 1.15408872 0 1.15408872 0 0 Z " fill="#F5F9FC" transform="translate(340,465)"/>
<path d="M0 0 C4.86896303 0.59619955 9.32790951 1.56976822 14 3 C14.33 2.01 14.66 1.02 15 0 C15.33 1.65 15.66 3.3 16 5 C10.13190493 4.47606294 5.45126259 3.23891142 0 1 C0 0.67 0 0.34 0 0 Z " fill="#ECF1F8" transform="translate(681,709)"/>
<path d="M0 0 C0.70703125 1.734375 0.70703125 1.734375 1 4 C-0.36328125 6.140625 -0.36328125 6.140625 -2.3125 8.25 C-2.94800781 8.95640625 -3.58351563 9.6628125 -4.23828125 10.390625 C-6 12 -6 12 -8 12 C-6.49087042 7.01987239 -3.44338151 3.75740058 0 0 Z " fill="#EBF4FC" transform="translate(549,335)"/>
<path d="M0 0 C0.66 0.33 1.32 0.66 2 1 C0.58474822 2.58459815 -0.8322642 4.16762391 -2.25 5.75 C-3.03890625 6.63171875 -3.8278125 7.5134375 -4.640625 8.421875 C-6.70592672 10.67866165 -8.81735064 12.85739926 -11 15 C-11.66 14.67 -12.32 14.34 -13 14 C-12.39671875 13.40832031 -11.7934375 12.81664062 -11.171875 12.20703125 C-5.26989543 6.38766162 -5.26989543 6.38766162 0 0 Z " fill="#F3F8FB" transform="translate(647,210)"/>
<path d="M0 0 C4.68738665 0.90723613 9.34193744 1.9547267 14 3 C14 3.99 14 4.98 14 6 C8.65155992 5.46515599 4.64203897 3.53309233 0 1 C0 0.67 0 0.34 0 0 Z " fill="#E7EEF6" transform="translate(741,694)"/>
<path d="M0 0 C-2.4375 2.1875 -2.4375 2.1875 -6 4 C-9.2095 3.46247398 -12.04430272 2.3399161 -15 1 C-15 0.67 -15 0.34 -15 0 C-12.87562788 -0.19448477 -10.75046809 -0.38038289 -8.625 -0.5625 C-7.44164062 -0.66691406 -6.25828125 -0.77132812 -5.0390625 -0.87890625 C-2 -1 -2 -1 0 0 Z " fill="#E6071E" transform="translate(482,244)"/>
<path d="M0 0 C0.99 0 1.98 0 3 0 C4.2039337 3.75399798 4.09877617 7.33217412 4.0625 11.25 C4.05347656 12.51328125 4.04445313 13.7765625 4.03515625 15.078125 C4.02355469 16.04234375 4.01195312 17.0065625 4 18 C3.67 18 3.34 18 3 18 C2.80083984 16.67935547 2.80083984 16.67935547 2.59765625 15.33203125 C2.42105469 14.17058594 2.24445312 13.00914062 2.0625 11.8125 C1.88847656 10.66394531 1.71445312 9.51539063 1.53515625 8.33203125 C1.08620687 5.53674788 0.57917838 2.77066414 0 0 Z " fill="#EAF0F6" transform="translate(577,276)"/>
<path d="M0 0 C6.30267439 0.36776168 11.33251843 1.16625922 17 4 C13.02623171 5.56393356 10.18622097 4.36145292 6.25 3.0625 C4.49429688 2.49208984 4.49429688 2.49208984 2.703125 1.91015625 C1.81109375 1.60980469 0.9190625 1.30945313 0 1 C0 0.67 0 0.34 0 0 Z " fill="#EDF4F9" transform="translate(673,231)"/>
<path d="M0 0 C2.09715785 3.14573677 2.52004559 5.01456251 3.125 8.6875 C3.29257812 9.68136719 3.46015625 10.67523437 3.6328125 11.69921875 C3.75398437 12.45847656 3.87515625 13.21773437 4 14 C2.1875 14.625 2.1875 14.625 0 15 C-0.99 14.34 -1.98 13.68 -3 13 C-1.35 13 0.3 13 2 13 C1.67 11.783125 1.34 10.56625 1 9.3125 C0.19677787 6.12789396 -0.20641973 3.3027157 0 0 Z " fill="#050E39" transform="translate(695,701)"/>
<path d="M0 0 C0.33 0 0.66 0 1 0 C1.3152595 5.98993047 0.68219822 9.63560356 -2 15 C-3.31534494 11.34142468 -2.65468309 8.91973519 -1.5625 5.25 C-1.27503906 4.26515625 -0.98757813 3.2803125 -0.69140625 2.265625 C-0.46324219 1.51796875 -0.23507812 0.7703125 0 0 Z " fill="#E8F0F6" transform="translate(594,352)"/>
<path d="M0 0 C2.67868487 1.33934244 2.74954078 2.51692397 3.6875 5.3125 C4.09548828 6.48232422 4.09548828 6.48232422 4.51171875 7.67578125 C5.03839183 10.18274511 4.8178554 11.60132343 4 14 C3.67 12.35 3.34 10.7 3 9 C2.34 9 1.68 9 1 9 C0.67 6.03 0.34 3.06 0 0 Z " fill="#1A3A80" transform="translate(687,165)"/>
<path d="M0 0 C0.33 0 0.66 0 1 0 C1.09038099 5.15171623 0.84681133 9.91913204 0 15 C-0.33 15 -0.66 15 -1 15 C-1.33 11.04 -1.66 7.08 -2 3 C-1.34 3 -0.68 3 0 3 C0 2.01 0 1.02 0 0 Z " fill="#EFF5F9" transform="translate(311,685)"/>
<path d="M0 0 C0.66 0 1.32 0 2 0 C2.66 2.31 3.32 4.62 4 7 C1.64828869 6.40138258 -0.6859378 5.73075648 -3 5 C-3.33 4.34 -3.66 3.68 -4 3 C-2.68 3 -1.36 3 0 3 C0 2.01 0 1.02 0 0 Z " fill="#E3EEF8" transform="translate(684,658)"/>
<path d="M0 0 C3.37240647 2.97565276 4.83332396 5.49997189 6.25 9.75 C6.58515625 10.73484375 6.9203125 11.7196875 7.265625 12.734375 C7.62914062 13.85585938 7.62914062 13.85585938 8 15 C7.34 15 6.68 15 6 15 C4.99267601 13.06629769 3.99436712 11.12789694 3 9.1875 C2.443125 8.10855469 1.88625 7.02960937 1.3125 5.91796875 C0 3 0 3 0 0 Z " fill="#1B3A82" transform="translate(595,540)"/>
<path d="M0 0 C0 3.29222682 -0.41495585 4.02719653 -2.25 6.625 C-2.66765625 7.23601562 -3.0853125 7.84703125 -3.515625 8.4765625 C-5.27840279 10.28572918 -6.53955077 10.61095461 -9 11 C-6.36113346 6.7973607 -3.63559661 3.43361902 0 0 Z " fill="#F0F7FC" transform="translate(377,279)"/>
<path d="M0 0 C0 0.66 0 1.32 0 2 C-1.423125 2.12375 -1.423125 2.12375 -2.875 2.25 C-6.10461791 2.65074923 -6.10461791 2.65074923 -7.375 5.0625 C-7.58125 5.701875 -7.7875 6.34125 -8 7 C-8.66 5.68 -9.32 4.36 -10 3 C-3.375 0 -3.375 0 0 0 Z " fill="#E1ECF6" transform="translate(619,414)"/>
<path d="M0 0 C0 0.66 0 1.32 0 2 C-1.609375 3.54296875 -1.609375 3.54296875 -3.75 5.1875 C-4.44609375 5.73792969 -5.1421875 6.28835937 -5.859375 6.85546875 C-8 8 -8 8 -10.265625 7.67578125 C-10.83796875 7.45277344 -11.4103125 7.22976562 -12 7 C-10.3790787 5.82767315 -8.75313167 4.6622923 -7.125 3.5 C-6.22007812 2.8503125 -5.31515625 2.200625 -4.3828125 1.53125 C-2 0 -2 0 0 0 Z " fill="#193980" transform="translate(566,151)"/>
<path d="M0 0 C0.99 0.66 1.98 1.32 3 2 C1.37660195 3.70884005 -0.29319053 5.37446717 -2 7 C-2.66 7 -3.32 7 -4 7 C-3.43628586 3.73045798 -2.50037734 2.17424117 0 0 Z " fill="#DDEDF9" transform="translate(424,477)"/>
<path d="M0 0 C0.99 0.33 1.98 0.66 3 1 C-2.445 5.455 -2.445 5.455 -8 10 C-8 7 -8 7 -6.35546875 5.140625 C-5.64003906 4.51671875 -4.92460937 3.8928125 -4.1875 3.25 C-3.47980469 2.61578125 -2.77210938 1.9815625 -2.04296875 1.328125 C-1.36878906 0.88984375 -0.69460938 0.4515625 0 0 Z " fill="#F0F6FA" transform="translate(391,266)"/>
<path d="M0 0 C3.20609302 3.00398974 4.95593298 6.12332117 7 10 C7 10.66 7 11.32 7 12 C5.109375 11.3203125 5.109375 11.3203125 3 10 C1.953125 7.6171875 1.953125 7.6171875 1.25 4.875 C0.88648438 3.50988281 0.88648438 3.50988281 0.515625 2.1171875 C0.34546875 1.41851562 0.1753125 0.71984375 0 0 Z " fill="#E7EFF5" transform="translate(692,229)"/>
<path d="M0 0 C0 0.99 0 1.98 0 3 C-1.43011973 3.86646667 -2.86940619 4.71781829 -4.3125 5.5625 C-5.51326172 6.27599609 -5.51326172 6.27599609 -6.73828125 7.00390625 C-9 8 -9 8 -12 7 C-8.04 4.69 -4.08 2.38 0 0 Z " fill="#1A3A82" transform="translate(507,188)"/>
<path d="M0 0 C4.455 1.98 4.455 1.98 9 4 C8.67 4.66 8.34 5.32 8 6 C7.21625 5.814375 6.4325 5.62875 5.625 5.4375 C3.02910225 4.74037734 3.02910225 4.74037734 1 6 C0.67 4.02 0.34 2.04 0 0 Z " fill="#EDF4FB" transform="translate(698,622)"/>
<path d="M0 0 C-1.13819851 3.41459553 -2.24005518 4.3324158 -4.9375 6.625 C-5.64777344 7.23601562 -6.35804688 7.84703125 -7.08984375 8.4765625 C-9 10 -9 10 -11 11 C-9.60249952 7.84164893 -7.94801766 5.67727175 -5.5 3.25 C-4.8915625 2.63640625 -4.283125 2.0228125 -3.65625 1.390625 C-2 0 -2 0 0 0 Z " fill="#F4FAFD" transform="translate(485,405)"/>
<path d="M0 0 C3.32532111 2.69192661 4.52454943 6.06546515 6 10 C6 10.99 6 11.98 6 13 C5.01 13 4.02 13 3 13 C2.87625 12.154375 2.7525 11.30875 2.625 10.4375 C1.97229673 6.84763202 1.04752537 3.49175125 0 0 Z " fill="#1B3A7F" transform="translate(765,319)"/>
<path d="M0 0 C0.66 0 1.32 0 2 0 C0.43358249 4.30764815 -1.68336156 8.06171464 -4 12 C-4.33 11.34 -4.66 10.68 -5 10 C-4.00390625 7.6171875 -4.00390625 7.6171875 -2.5625 4.875 C-1.85287109 3.50988281 -1.85287109 3.50988281 -1.12890625 2.1171875 C-0.75636719 1.41851562 -0.38382812 0.71984375 0 0 Z " fill="#193981" transform="translate(322,430)"/>
<path d="M0 0 C2.76223278 2.76223278 2.57856291 5.20706617 3 9 C2.01 9.495 2.01 9.495 1 10 C0.34 9.67 -0.32 9.34 -1 9 C-0.67 6.03 -0.34 3.06 0 0 Z " fill="#D8E0EC" transform="translate(577,267)"/>
<path d="M0 0 C0.33 0 0.66 0 1 0 C1.33 3.3 1.66 6.6 2 10 C-0.97 9.505 -0.97 9.505 -4 9 C-2.68 8.67 -1.36 8.34 0 8 C0 5.36 0 2.72 0 0 Z " fill="#EFF5FA" transform="translate(753,615)"/>
<path d="M0 0 C2.31 0 4.62 0 7 0 C7.33 1.65 7.66 3.3 8 5 C5.36 3.68 2.72 2.36 0 1 C0 0.67 0 0.34 0 0 Z " fill="#EFF5FA" transform="translate(661,583)"/>
<path d="M0 0 C0.66 0.33 1.32 0.66 2 1 C1.39009109 4.55780196 0.4216319 7.6828589 -1 11 C-1.33 11 -1.66 11 -2 11 C-1.125 3.375 -1.125 3.375 0 0 Z " fill="#F0F5FB" transform="translate(315,574)"/>
<path d="M0 0 C0.33 0.99 0.66 1.98 1 3 C-1.97 5.475 -1.97 5.475 -5 8 C-5 5 -5 5 -2.5 2.3125 C-1.675 1.549375 -0.85 0.78625 0 0 Z " fill="#202E7A" transform="translate(510,359)"/>
<path d="M0 0 C3.36720387 1.39332574 4.9859524 2.9789286 7 6 C4 6 4 6 1.8125 4.125 C0 2 0 2 0 0 Z " fill="#D5E1EE" transform="translate(338,573)"/>
<path d="M0 0 C3.8063457 0.67170806 7.35206816 1.72746564 11 3 C11 3.33 11 3.66 11 4 C3.49230769 3.38461538 3.49230769 3.38461538 1 1.4375 C0.67 0.963125 0.34 0.48875 0 0 Z " fill="#E3F0FC" transform="translate(724,538)"/>
<path d="M0 0 C0.33 0 0.66 0 1 0 C1 2.97 1 5.94 1 9 C-0.65 8.67 -2.3 8.34 -4 8 C-3.525625 7.608125 -3.05125 7.21625 -2.5625 6.8125 C-0.64820367 4.59191626 -0.38733012 2.86624291 0 0 Z " fill="#D4DDEB" transform="translate(389,467)"/>
<path d="M0 0 C0.66 0.33 1.32 0.66 2 1 C1.67 3.64 1.34 6.28 1 9 C0.34 8.67 -0.32 8.34 -1 8 C-0.67 5.36 -0.34 2.72 0 0 Z " fill="#18274F" transform="translate(418,756)"/>
<path d="M0 0 C3.81684226 1.55500981 6.19195732 4.03595495 9 7 C6.62051228 6.82374165 5.29774151 6.30280227 3.62109375 4.59765625 C2.37884514 3.09350908 1.18623944 1.54870149 0 0 Z " fill="#EBF3FA" transform="translate(640,654)"/>
<path d="M0 0 C0.598125 0.20625 1.19625 0.4125 1.8125 0.625 C1.19375 0.8725 0.575 1.12 -0.0625 1.375 C-2.53818687 2.83128639 -3.13875002 4.00312506 -4.1875 6.625 C-4.5175 4.975 -4.8475 3.325 -5.1875 1.625 C-2.1875 -0.375 -2.1875 -0.375 0 0 Z " fill="#F3F7FC" transform="translate(596.1875,255.375)"/>
<path d="M0 0 C1.98 0.99 1.98 0.99 4 2 C2.68 1.67 1.36 1.34 0 1 C0 0.67 0 0.34 0 0 Z " fill="#152A5E" transform="translate(373,830)"/>
<path d="M0 0 C1.65 0 3.3 0 5 0 C5 0.33 5 0.66 5 1 C3.35 1 1.7 1 0 1 C0 0.67 0 0.34 0 0 Z " fill="#193069" transform="translate(686,735)"/>
<path d="M0 0 C0.99 0.495 0.99 0.495 2 1 C1.67 1.99 1.34 2.98 1 4 C0.67 2.68 0.34 1.36 0 0 Z " fill="#172D63" transform="translate(299,732)"/>
<path d="M0 0 C0.33 0 0.66 0 1 0 C1 1.65 1 3.3 1 5 C0.67 5 0.34 5 0 5 C0 3.35 0 1.7 0 0 Z " fill="#1B326E" transform="translate(288,607)"/>
<path d="M0 0 C0.66 0 1.32 0 2 0 C2 0.66 2 1.32 2 2 C1.34 2 0.68 2 0 2 C0 1.34 0 0.68 0 0 Z " fill="#162B5E" transform="translate(370,829)"/>
<path d="M0 0 C4 1 4 1 4 1 Z " fill="#172D66" transform="translate(740,735)"/>
<path d="M0 0 C0.99 0.495 0.99 0.495 2 1 C1.67 1.66 1.34 2.32 1 3 C0.67 2.01 0.34 1.02 0 0 Z " fill="#193169" transform="translate(648,714)"/>
<path d="M0 0 C0.66 0.66 1.32 1.32 2 2 C1.34 2 0.68 2 0 2 C0 1.34 0 0.68 0 0 Z " fill="#182C60" transform="translate(368,827)"/>
<path d="M0 0 C0.66 0 1.32 0 2 0 C1.67 0.66 1.34 1.32 1 2 C0.67 1.34 0.34 0.68 0 0 Z " fill="#172D63" transform="translate(305,749)"/>
<path d="M0 0 C0.66 0.66 1.32 1.32 2 2 C1.34 2 0.68 2 0 2 C0 1.34 0 0.68 0 0 Z " fill="#182F65" transform="translate(658,722)"/>
<path d="" fill="#1A3068" transform="translate(0,0)"/>
<path d="M0 0 C0.66 0 1.32 0 2 0 C1.67 0.66 1.34 1.32 1 2 C0.67 1.34 0.34 0.68 0 0 Z " fill="#1E3774" transform="translate(594,548)"/>
<path d="" fill="#1F3977" transform="translate(0,0)"/>
<path d="" fill="#1F3A79" transform="translate(0,0)"/>
<path d="" fill="#1A336F" transform="translate(0,0)"/>
<path d="" fill="#1A326C" transform="translate(0,0)"/>
<path d="M0 0 C3 1 3 1 3 1 Z " fill="#1B326B" transform="translate(432,224)"/>
<path d="" fill="#193269" transform="translate(0,0)"/>
<path d="M0 0 C0.99 0.495 0.99 0.495 2 1 C1.01 1.495 1.01 1.495 0 2 C0 1.34 0 0.68 0 0 Z " fill="#18306A" transform="translate(532,168)"/>
<path d="" fill="#162D66" transform="translate(0,0)"/>
<path d="" fill="#18326D" transform="translate(0,0)"/>
<path d="M0 0 C2 1 2 1 2 1 Z " fill="#182C63" transform="translate(752,731)"/>
<path d="" fill="#192F67" transform="translate(0,0)"/>
<path d="" fill="#182E65" transform="translate(0,0)"/>
<path d="M0 0 C2 1 2 1 2 1 Z " fill="#183068" transform="translate(653,719)"/>
<path d="M0 0 C2 1 2 1 2 1 Z " fill="#183169" transform="translate(650,717)"/>
<path d="" fill="#1B3269" transform="translate(0,0)"/>
<path d="" fill="#192F69" transform="translate(0,0)"/>
<path d="" fill="#1A3269" transform="translate(0,0)"/>
<path d="M0 0 C2 1 2 1 2 1 Z " fill="#193067" transform="translate(624,688)"/>
<path d="" fill="#1A326B" transform="translate(0,0)"/>
<path d="" fill="#1A326A" transform="translate(0,0)"/>
<path d="" fill="#1B336C" transform="translate(0,0)"/>
<path d="" fill="#19346E" transform="translate(0,0)"/>
<path d="" fill="#192F67" transform="translate(0,0)"/>
<path d="" fill="#1A3470" transform="translate(0,0)"/>
<path d="M0 0 C2 1 2 1 2 1 Z " fill="#1A326F" transform="translate(503,623)"/>
<path d="" fill="#193370" transform="translate(0,0)"/>
<path d="" fill="#1A326E" transform="translate(0,0)"/>
<path d="" fill="#1F3673" transform="translate(0,0)"/>
<path d="" fill="#1A326C" transform="translate(0,0)"/>
<path d="" fill="#1F3A76" transform="translate(0,0)"/>
<path d="" fill="#1F3974" transform="translate(0,0)"/>
<path d="" fill="#1F3A78" transform="translate(0,0)"/>
<path d="" fill="#19326C" transform="translate(0,0)"/>
<path d="" fill="#1A316A" transform="translate(0,0)"/>
<path d="" fill="#1E3B7B" transform="translate(0,0)"/>
<path d="" fill="#1E3979" transform="translate(0,0)"/>
<path d="" fill="#1D346F" transform="translate(0,0)"/>
<path d="" fill="#1C3670" transform="translate(0,0)"/>
<path d="" fill="#1C3671" transform="translate(0,0)"/>
<path d="" fill="#1A3773" transform="translate(0,0)"/>
<path d="M0 0 C2 1 2 1 2 1 Z " fill="#1C326B" transform="translate(344,291)"/>
<path d="" fill="#18306B" transform="translate(0,0)"/>
<path d="" fill="#1A3169" transform="translate(0,0)"/>
<path d="M0 0 C2 1 2 1 2 1 Z " fill="#1C3369" transform="translate(416,232)"/>
<path d="M0 0 C2 1 2 1 2 1 Z " fill="#1A3369" transform="translate(449,216)"/>
<path d="" fill="#1A316F" transform="translate(0,0)"/>
<path d="" fill="#18306C" transform="translate(0,0)"/>
<path d="M0 0 C2 1 2 1 2 1 Z " fill="#1A326A" transform="translate(569,144)"/>
<path d="" fill="#18316A" transform="translate(0,0)"/>
<path d="M0 0 C2 1 2 1 2 1 Z " fill="#18306D" transform="translate(598,128)"/>
<path d="M0 0 C2 1 2 1 2 1 Z " fill="#182F65" transform="translate(650,109)"/>
<path d="M0 0 C2 1 2 1 2 1 Z " fill="#172E63" transform="translate(659,108)"/>
<path d="" fill="#000000" transform="translate(0,0)"/>
<path d="" fill="#000000" transform="translate(0,0)"/>
<path d="" fill="#000000" transform="translate(0,0)"/>
<path d="" fill="#162A65" transform="translate(0,0)"/>
<path d="" fill="#172A62" transform="translate(0,0)"/>
<path d="" fill="#152D66" transform="translate(0,0)"/>
<path d="" fill="#162F6A" transform="translate(0,0)"/>
<path d="" fill="#16306A" transform="translate(0,0)"/>
<path d="" fill="#193369" transform="translate(0,0)"/>
<path d="" fill="#252427" transform="translate(0,0)"/>
<path d="" fill="#192F67" transform="translate(0,0)"/>
<path d="" fill="#18316A" transform="translate(0,0)"/>
<path d="" fill="#1C336A" transform="translate(0,0)"/>
<path d="" fill="#182F64" transform="translate(0,0)"/>
<path d="" fill="#182D64" transform="translate(0,0)"/>
<path d="" fill="#182D66" transform="translate(0,0)"/>
<path d="" fill="#172E67" transform="translate(0,0)"/>
<path d="" fill="#162E6D" transform="translate(0,0)"/>
<path d="" fill="#172E64" transform="translate(0,0)"/>
<path d="" fill="#182D61" transform="translate(0,0)"/>
<path d="" fill="#182E63" transform="translate(0,0)"/>
<path d="" fill="#182F68" transform="translate(0,0)"/>
<path d="" fill="#162C61" transform="translate(0,0)"/>
<path d="" fill="#172B61" transform="translate(0,0)"/>
<path d="" fill="#193169" transform="translate(0,0)"/>
<path d="" fill="#172C5F" transform="translate(0,0)"/>
<path d="" fill="#172E65" transform="translate(0,0)"/>
<path d="" fill="#172E61" transform="translate(0,0)"/>
<path d="" fill="#172E61" transform="translate(0,0)"/>
<path d="" fill="#162D6A" transform="translate(0,0)"/>
<path d="" fill="#182D65" transform="translate(0,0)"/>
<path d="" fill="#162B62" transform="translate(0,0)"/>
<path d="" fill="#19346D" transform="translate(0,0)"/>
<path d="" fill="#182E66" transform="translate(0,0)"/>
<path d="" fill="#302F31" transform="translate(0,0)"/>
<path d="" fill="#1B3063" transform="translate(0,0)"/>
<path d="" fill="#1B3168" transform="translate(0,0)"/>
<path d="" fill="#1A3372" transform="translate(0,0)"/>
<path d="" fill="#1B3269" transform="translate(0,0)"/>
<path d="" fill="#152E65" transform="translate(0,0)"/>
<path d="" fill="#172E6A" transform="translate(0,0)"/>
<path d="" fill="#193373" transform="translate(0,0)"/>
<path d="" fill="#173067" transform="translate(0,0)"/>
<path d="" fill="#1C326A" transform="translate(0,0)"/>
<path d="" fill="#193068" transform="translate(0,0)"/>
<path d="" fill="#1B3571" transform="translate(0,0)"/>
<path d="" fill="#1A306A" transform="translate(0,0)"/>
<path d="" fill="#1B3673" transform="translate(0,0)"/>
<path d="" fill="#192E66" transform="translate(0,0)"/>
<path d="" fill="#1A316B" transform="translate(0,0)"/>
<path d="" fill="#1B3066" transform="translate(0,0)"/>
<path d="" fill="#1D3673" transform="translate(0,0)"/>
<path d="" fill="#183067" transform="translate(0,0)"/>
<path d="" fill="#1C346C" transform="translate(0,0)"/>
<path d="" fill="#1D3574" transform="translate(0,0)"/>
<path d="" fill="#18326C" transform="translate(0,0)"/>
<path d="" fill="#1A3066" transform="translate(0,0)"/>
<path d="" fill="#1B3373" transform="translate(0,0)"/>
<path d="" fill="#19346D" transform="translate(0,0)"/>
<path d="" fill="#1B3470" transform="translate(0,0)"/>
<path d="" fill="#1A326A" transform="translate(0,0)"/>
<path d="" fill="#1B3266" transform="translate(0,0)"/>
<path d="" fill="#192F6F" transform="translate(0,0)"/>
<path d="" fill="#1B336B" transform="translate(0,0)"/>
<path d="" fill="#1A336C" transform="translate(0,0)"/>
<path d="" fill="#1B326D" transform="translate(0,0)"/>
<path d="" fill="#1C3269" transform="translate(0,0)"/>
<path d="" fill="#1A3068" transform="translate(0,0)"/>
<path d="" fill="#1B336D" transform="translate(0,0)"/>
<path d="" fill="#1B2F6A" transform="translate(0,0)"/>
<path d="" fill="#1A326C" transform="translate(0,0)"/>
<path d="" fill="#193068" transform="translate(0,0)"/>
<path d="" fill="#1D346E" transform="translate(0,0)"/>
<path d="" fill="#0D0D0E" transform="translate(0,0)"/>
<path d="" fill="#353436" transform="translate(0,0)"/>
<path d="" fill="#1A326C" transform="translate(0,0)"/>
<path d="" fill="#1C356F" transform="translate(0,0)"/>
<path d="" fill="#1E3570" transform="translate(0,0)"/>
<path d="" fill="#1C3471" transform="translate(0,0)"/>
<path d="" fill="#19306C" transform="translate(0,0)"/>
<path d="" fill="#1A316D" transform="translate(0,0)"/>
<path d="" fill="#1C326E" transform="translate(0,0)"/>
<path d="" fill="#19316F" transform="translate(0,0)"/>
<path d="" fill="#18316E" transform="translate(0,0)"/>
<path d="" fill="#1A2F6E" transform="translate(0,0)"/>
<path d="" fill="#1D336C" transform="translate(0,0)"/>
<path d="" fill="#1C3670" transform="translate(0,0)"/>
<path d="" fill="#18336B" transform="translate(0,0)"/>
<path d="" fill="#1D3573" transform="translate(0,0)"/>
<path d="" fill="#000000" transform="translate(0,0)"/>
<path d="" fill="#1F3876" transform="translate(0,0)"/>
<path d="" fill="#1E3571" transform="translate(0,0)"/>
<path d="" fill="#1E3973" transform="translate(0,0)"/>
<path d="" fill="#1B3473" transform="translate(0,0)"/>
<path d="" fill="#1A336C" transform="translate(0,0)"/>
<path d="" fill="#19316B" transform="translate(0,0)"/>
<path d="" fill="#1B3677" transform="translate(0,0)"/>
<path d="" fill="#1F3875" transform="translate(0,0)"/>
<path d="" fill="#1E3775" transform="translate(0,0)"/>
<path d="" fill="#1F3775" transform="translate(0,0)"/>
<path d="" fill="#1D3973" transform="translate(0,0)"/>
<path d="" fill="#193270" transform="translate(0,0)"/>
<path d="" fill="#1C3470" transform="translate(0,0)"/>
<path d="" fill="#213A77" transform="translate(0,0)"/>
<path d="" fill="#192E69" transform="translate(0,0)"/>
<path d="" fill="#1B326B" transform="translate(0,0)"/>
<path d="" fill="#1B346A" transform="translate(0,0)"/>
<path d="" fill="#1D3878" transform="translate(0,0)"/>
<path d="" fill="#1A326C" transform="translate(0,0)"/>
<path d="" fill="#203C79" transform="translate(0,0)"/>
<path d="" fill="#19306B" transform="translate(0,0)"/>
<path d="" fill="#18326F" transform="translate(0,0)"/>
<path d="" fill="#1F3A79" transform="translate(0,0)"/>
<path d="" fill="#183068" transform="translate(0,0)"/>
<path d="" fill="#1B3066" transform="translate(0,0)"/>
<path d="" fill="#1D3976" transform="translate(0,0)"/>
<path d="" fill="#1D397B" transform="translate(0,0)"/>
<path d="" fill="#030C1E" transform="translate(0,0)"/>
<path d="" fill="#1B3267" transform="translate(0,0)"/>
<path d="" fill="#1F3A79" transform="translate(0,0)"/>
<path d="" fill="#1D3A7D" transform="translate(0,0)"/>
<path d="" fill="#213B7D" transform="translate(0,0)"/>
<path d="" fill="#213C7D" transform="translate(0,0)"/>
<path d="" fill="#1F3B7D" transform="translate(0,0)"/>
<path d="" fill="#1A306B" transform="translate(0,0)"/>
<path d="" fill="#203E7C" transform="translate(0,0)"/>
<path d="" fill="#1A326D" transform="translate(0,0)"/>
<path d="" fill="#182F69" transform="translate(0,0)"/>
<path d="" fill="#1B3777" transform="translate(0,0)"/>
<path d="" fill="#0E0E0F" transform="translate(0,0)"/>
<path d="" fill="#19306A" transform="translate(0,0)"/>
<path d="" fill="#182D6C" transform="translate(0,0)"/>
<path d="" fill="#183169" transform="translate(0,0)"/>
<path d="" fill="#1C316A" transform="translate(0,0)"/>
<path d="" fill="#11234E" transform="translate(0,0)"/>
<path d="" fill="#193168" transform="translate(0,0)"/>
<path d="" fill="#1A3475" transform="translate(0,0)"/>
<path d="" fill="#1A346F" transform="translate(0,0)"/>
<path d="" fill="#1A316D" transform="translate(0,0)"/>
<path d="" fill="#0B0C0C" transform="translate(0,0)"/>
<path d="" fill="#00040D" transform="translate(0,0)"/>
<path d="" fill="#1C326B" transform="translate(0,0)"/>
<path d="" fill="#1A316A" transform="translate(0,0)"/>
<path d="" fill="#1B2F67" transform="translate(0,0)"/>
<path d="" fill="#08132A" transform="translate(0,0)"/>
<path d="" fill="#183069" transform="translate(0,0)"/>
<path d="" fill="#1A3168" transform="translate(0,0)"/>
<path d="" fill="#1A2E62" transform="translate(0,0)"/>
<path d="" fill="#1B3167" transform="translate(0,0)"/>
<path d="" fill="#183065" transform="translate(0,0)"/>
<path d="" fill="#1C316B" transform="translate(0,0)"/>
<path d="" fill="#1A306D" transform="translate(0,0)"/>
<path d="" fill="#1D306B" transform="translate(0,0)"/>
<path d="" fill="#1A2E65" transform="translate(0,0)"/>
<path d="" fill="#17316A" transform="translate(0,0)"/>
<path d="" fill="#192F68" transform="translate(0,0)"/>
<path d="" fill="#1A3166" transform="translate(0,0)"/>
<path d="" fill="#1A306E" transform="translate(0,0)"/>
<path d="" fill="#0C0D0C" transform="translate(0,0)"/>
<path d="" fill="#182E6A" transform="translate(0,0)"/>
<path d="" fill="#18336A" transform="translate(0,0)"/>
<path d="" fill="#1B3069" transform="translate(0,0)"/>
<path d="" fill="#172E6C" transform="translate(0,0)"/>
<path d="" fill="#192E63" transform="translate(0,0)"/>
<path d="" fill="#1A3166" transform="translate(0,0)"/>
<path d="" fill="#172F69" transform="translate(0,0)"/>
<path d="" fill="#182F6A" transform="translate(0,0)"/>
<path d="" fill="#192E65" transform="translate(0,0)"/>
<path d="" fill="#19326F" transform="translate(0,0)"/>
<path d="" fill="#1D3166" transform="translate(0,0)"/>
<path d="" fill="#1A306D" transform="translate(0,0)"/>
<path d="" fill="#1B3169" transform="translate(0,0)"/>
<path d="" fill="#1C3168" transform="translate(0,0)"/>
<path d="" fill="#18306C" transform="translate(0,0)"/>
<path d="" fill="#1A346C" transform="translate(0,0)"/>
<path d="" fill="#1B336C" transform="translate(0,0)"/>
<path d="" fill="#1B336B" transform="translate(0,0)"/>
<path d="" fill="#1C2F64" transform="translate(0,0)"/>
<path d="" fill="#19316A" transform="translate(0,0)"/>
<path d="" fill="#1A3268" transform="translate(0,0)"/>
<path d="" fill="#1B336C" transform="translate(0,0)"/>
<path d="" fill="#19346E" transform="translate(0,0)"/>
<path d="" fill="#193172" transform="translate(0,0)"/>
<path d="" fill="#1A3169" transform="translate(0,0)"/>
<path d="" fill="#193572" transform="translate(0,0)"/>
<path d="" fill="#1A316B" transform="translate(0,0)"/>
<path d="" fill="#18316A" transform="translate(0,0)"/>
<path d="" fill="#1A3271" transform="translate(0,0)"/>
<path d="" fill="#193169" transform="translate(0,0)"/>
<path d="" fill="#1A3269" transform="translate(0,0)"/>
<path d="" fill="#1D3166" transform="translate(0,0)"/>
<path d="" fill="#1A326C" transform="translate(0,0)"/>
<path d="" fill="#182F6A" transform="translate(0,0)"/>
<path d="" fill="#18326A" transform="translate(0,0)"/>
<path d="" fill="#1A3168" transform="translate(0,0)"/>
<path d="" fill="#183168" transform="translate(0,0)"/>
<path d="" fill="#193067" transform="translate(0,0)"/>
<path d="" fill="#1A336C" transform="translate(0,0)"/>
<path d="" fill="#1B2E65" transform="translate(0,0)"/>
<path d="" fill="#000000" transform="translate(0,0)"/>
<path d="" fill="#192C5F" transform="translate(0,0)"/>
<path d="" fill="#193167" transform="translate(0,0)"/>
<path d="" fill="#18306A" transform="translate(0,0)"/>
<path d="" fill="#142D65" transform="translate(0,0)"/>
<path d="" fill="#18306C" transform="translate(0,0)"/>
<path d="" fill="#17306A" transform="translate(0,0)"/>
<path d="" fill="#162E65" transform="translate(0,0)"/>
<path d="" fill="#19316A" transform="translate(0,0)"/>
<path d="" fill="#152F68" transform="translate(0,0)"/>
<path d="" fill="#1B2F69" transform="translate(0,0)"/>
<path d="" fill="#182F68" transform="translate(0,0)"/>
<path d="" fill="#182F6A" transform="translate(0,0)"/>
<path d="" fill="#182C61" transform="translate(0,0)"/>
<path d="" fill="#172B5F" transform="translate(0,0)"/>
<path d="" fill="#193267" transform="translate(0,0)"/>
<path d="" fill="#192F64" transform="translate(0,0)"/>
<path d="" fill="#18306B" transform="translate(0,0)"/>
<path d="" fill="#172E65" transform="translate(0,0)"/>
<path d="" fill="#1A306A" transform="translate(0,0)"/>
<path d="" fill="#1A2D65" transform="translate(0,0)"/>
<path d="" fill="#17295D" transform="translate(0,0)"/>
<path d="" fill="#000000" transform="translate(0,0)"/>
<path d="" fill="#000000" transform="translate(0,0)"/>
</svg>
