<?xml version="1.0" encoding="UTF-8"?>
<svg version="1.1" xmlns="http://www.w3.org/2000/svg" width="512" height="512">
<path d="M0 0 C2.61113986 0.42994217 5.22329458 0.853163 7.8358078 1.27467537 C15.25647994 2.47292269 22.67553317 3.68095364 30.09319305 4.89770699 C60.04703719 9.89134058 60.04703719 9.89134058 90.27873993 12.54785347 C90.98287018 12.58137917 91.68700043 12.61490486 92.41246796 12.64944649 C127.36341475 14.15750938 161.61262519 8.12675575 195.91918182 2.33062935 C201.34608767 1.41431483 206.77443318 0.50770689 212.20519638 -0.38547325 C214.70668645 -0.8008541 217.20549159 -1.23026574 219.70449066 -1.66033745 C230.22229722 -3.4224896 238.92191909 -4.06536819 248.84123993 0.48535347 C249.51815887 0.78965279 250.19507782 1.0939521 250.89250946 1.40747261 C273.34729503 11.84752343 296.80594033 29.13510526 306.05998993 52.91113472 C310.65194532 65.63709861 313.71319354 79.00901579 314.27873993 92.54785347 C314.30597137 93.18046089 314.33320282 93.81306831 314.36125946 94.46484566 C314.81779129 106.85150184 313.63972586 118.88515746 312.03264618 131.16113472 C311.90946014 132.10811226 311.78627411 133.0550898 311.65935516 134.03076363 C311.27873993 136.54785347 311.27873993 136.54785347 310.41155243 140.02832222 C309.98408194 142.67524497 309.98408194 142.67524497 312.01702118 144.61035347 C312.86651337 145.24972847 313.71600555 145.88910347 314.59123993 146.54785347 C334.65932974 163.36014129 343.77809928 191.26711355 346.96623993 216.42285347 C347.07297142 217.79765676 347.17726875 219.17265192 347.27873993 220.54785347 C347.3895993 221.20140816 347.50045868 221.85496284 347.61467743 222.52832222 C348.96683611 234.95419419 337.05804482 249.58273037 331.19988251 259.84521675 C327.77331076 265.85516984 324.46204139 271.90586942 321.27873993 278.04785347 C317.06139264 286.17852485 312.58673426 294.14665856 308.04460907 302.09985542 C304.25340461 308.75773168 300.60603766 315.47358816 297.16912079 322.32177925 C294.86418743 326.8131814 292.74982288 330.66079805 287.84123993 332.42285347 C284.53573545 332.58409759 283.11281091 332.31914783 280.27873993 330.54785347 C267.20398105 313.23263225 258.83404427 287.01361593 259.29827118 265.31738472 C259.49317398 253.0252195 254.24551371 247.1862448 246.27873993 238.54785347 C245.94873993 237.88785347 245.61873993 237.22785347 245.27873993 236.54785347 C243.17974004 239.18158129 241.10268118 241.83186332 239.02873993 244.48535347 C238.44221649 245.22076363 237.85569305 245.95617378 237.25139618 246.71386909 C228.98642432 257.34689468 225.52634068 268.15112612 226.77751923 281.60620308 C227.41347109 286.60739295 228.25832376 291.55895033 229.12639618 296.52441597 C229.30281143 297.5396685 229.47922668 298.55492104 229.66098785 299.6009388 C230.40027866 303.83979267 231.14079666 308.07803964 231.91570282 312.31054878 C234.66514965 327.41064785 235.74759338 341.82437698 235.36043549 357.16510201 C235.27625742 360.6506462 235.226588 364.13527595 235.18572235 367.62158394 C235.11362869 373.6043191 235.01631341 379.586209 234.90642548 385.56836128 C234.84014618 389.23333349 234.78103383 392.89838159 234.7220993 396.56347847 C234.68021174 398.9254653 234.63791006 401.28744484 234.59514618 403.64941597 C234.57843369 404.72962013 234.56172119 405.8098243 234.54450226 406.92276192 C234.22267048 423.32667626 234.22267048 423.32667626 229.90373993 428.29785347 C229.18186493 429.13832222 228.45998993 429.97879097 227.71623993 430.84472847 C226.91186493 431.73675972 226.10748993 432.62879097 225.27873993 433.54785347 C224.41248993 434.52238472 223.54623993 435.49691597 222.65373993 436.50097847 C219.9082208 439.56069333 217.1023782 442.56032076 214.27873993 445.54785347 C213.47565399 446.40508003 212.67256805 447.26230659 211.84514618 448.14550972 C185.7341743 475.19973509 148.07994671 496.70929101 109.88030243 497.75097847 C65.28772485 498.34326147 29.03767785 479.68132691 -2.53376007 448.98535347 C-7.2686257 444.11896379 -11.58348931 438.92761963 -15.72126007 433.54785347 C-16.38883331 432.8074482 -17.05640656 432.06704292 -17.74420929 431.30420113 C-24.34035225 423.43261774 -24.86544639 416.51353688 -24.72126007 406.67285347 C-24.72339363 405.06965659 -24.72862544 403.46646142 -24.73664093 401.86328316 C-24.74907355 398.34083435 -24.7377699 394.81927199 -24.71686554 391.29687691 C-24.70163227 386.28459206 -24.81111486 381.28169171 -24.94992828 376.27156258 C-25.69300046 349.03544723 -24.13541249 323.37568383 -19.00920868 296.59239388 C-16.03245516 280.97741977 -14.3407395 265.90866909 -23.53376007 251.86035347 C-24.5846632 250.41435377 -25.64792586 248.97728209 -26.72126007 247.54785347 C-28.01712469 245.69661829 -29.30878763 243.84243492 -30.59626007 241.98535347 C-31.63690853 240.50547028 -32.67819922 239.02603733 -33.72126007 237.54785347 C-40.03209341 239.65146458 -44.18045189 246.65187351 -47.56208038 252.13427925 C-50.19565855 257.61775729 -49.74122419 263.44580218 -49.67829132 269.39550972 C-49.50820341 286.98126613 -56.20677773 304.77466821 -63.84626007 320.36035347 C-64.17078156 321.02454292 -64.49530304 321.68873238 -64.82965851 322.37304878 C-67.11389086 326.84179573 -69.28899688 330.67473335 -74.15876007 332.42285347 C-77.46426455 332.58409759 -78.88718909 332.31914783 -81.72126007 330.54785347 C-86.07913062 324.69456114 -89.29463552 317.90379954 -92.72126007 311.48535347 C-97.18502854 303.17684193 -101.73744014 294.92890973 -106.40876007 286.73535347 C-110.72352213 279.15956796 -114.88029652 271.52626298 -118.89362335 263.78711128 C-123.86992491 254.24801755 -129.23390161 244.9239628 -134.57306671 235.5847187 C-140.61603136 224.86465617 -136.09788189 207.36561239 -133.03717804 196.00976753 C-128.29820106 179.47987362 -121.06694105 160.56577315 -107.15094757 149.50488472 C-104.43290615 147.28972252 -102.51696436 145.5715026 -100.72126007 142.54785347 C-100.52186316 137.64767441 -101.26950106 133.26984994 -102.30719757 128.50293159 C-104.07723074 120.14536933 -103.96405064 111.67558867 -103.97126007 103.17285347 C-103.97193481 102.45887398 -103.97260956 101.74489449 -103.97330475 101.00927925 C-103.95671622 89.95356871 -103.47825766 79.29879919 -100.72126007 68.54785347 C-100.54965363 67.86384468 -100.37804718 67.17983589 -100.20124054 66.47509956 C-96.56295042 52.47142167 -90.37663513 40.42224382 -80.72126007 29.54785347 C-80.19145538 28.94715034 -79.6616507 28.34644722 -79.11579132 27.72754097 C-67.19614844 15.07211767 -51.69597435 6.42643211 -35.97126007 -0.57714653 C-35.3231839 -0.88482964 -34.67510773 -1.19251274 -34.00739288 -1.50951958 C-23.68446884 -5.86136574 -10.69508992 -1.76340231 0 0 Z " fill="#494F69" transform="translate(149.72126007080078,7.452146530151367)"/>
<path d="M0 0 C1.13566406 -0.02578125 2.27132812 -0.0515625 3.44140625 -0.078125 C12.17733386 0.29518584 20.58226485 3.86256448 28.5 7.3125 C29.84094727 7.89632446 29.84094727 7.89632446 31.20898438 8.49194336 C37.38823331 11.23494035 43.46656177 14.14092292 49.4375 17.3125 C50.53976929 17.87432983 50.53976929 17.87432983 51.66430664 18.44750977 C56.92969239 21.35108372 60.10474524 24.66332178 62.4375 30.25 C63.13923205 34.43582845 63.13928958 38.54425487 63.1015625 42.78125 C63.10634613 43.9717395 63.11112976 45.162229 63.11605835 46.38879395 C63.11944902 48.89674202 63.11030536 51.40473479 63.08935547 53.91259766 C63.06258179 57.73831291 63.0891357 61.56109411 63.12109375 65.38671875 C63.11778951 67.8307356 63.11138299 70.27475064 63.1015625 72.71875 C63.11168365 73.85542114 63.12180481 74.99209229 63.13223267 76.16320801 C63.00309229 84.96917878 60.76869069 89.77920739 54.734375 96.06640625 C50.52352397 98.85534668 46.54601768 99.9487904 41.6875 101.1875 C33.27784813 103.46609093 25.01062741 106.01321181 16.76171875 108.8125 C15.82786346 109.12884903 14.89400818 109.44519806 13.93185425 109.77113342 C10.13440313 111.06064614 6.3384417 112.35394894 2.54870605 113.66598511 C-0.14295061 114.59743702 -2.83867137 115.51623112 -5.53515625 116.43359375 C-6.34165115 116.71763062 -7.14814606 117.00166748 -7.9790802 117.29431152 C-16.06919616 120.02681075 -22.78752354 119.78774881 -30.5625 116.25 C-35.55950248 113.39322311 -38.97493917 109.87836177 -42.4375 105.3125 C-46.46329042 100.06318504 -50.91937818 96.64129917 -56.5625 93.25 C-57.5834375 92.63318359 -57.5834375 92.63318359 -58.625 92.00390625 C-63.07835817 89.55276355 -67.33962147 88.54173656 -72.36328125 87.83984375 C-75.02959066 87.12472346 -76.08305069 86.5979315 -77.5625 84.25 C-77.46898674 79.14273749 -75.20302827 75.68864144 -72.375 71.625 C-67.28735871 64.00062392 -62.46359564 56.29709406 -60.25 47.3125 C-55.42396251 29.90528964 -37.74645022 15.76026852 -22.63818359 7.15380859 C-15.02981922 3.04019532 -8.73509709 0.11711862 0 0 Z " fill="#9EAACD" transform="translate(186.5625,33.75)"/>
<path d="M0 0 C0.97324219 0.47308594 1.94648438 0.94617187 2.94921875 1.43359375 C21.79365662 11.52253846 35.91877744 27.42144859 43.375 47.3125 C46.93458418 56.71067043 51.5617325 64.81935464 57.77734375 72.7109375 C59 75 59 75 58.875 77.6875 C58 80 58 80 55.0625 81.625 C52.95958312 82.40449261 50.86934541 83.03416096 48.69921875 83.6015625 C37.46522693 86.57579319 28.57494779 93.00791919 21.37109375 102.04296875 C16.31501435 108.29561451 9.35957047 113.2783062 1.10961914 114.21452332 C-5.32199145 114.38228489 -10.55041079 112.84085996 -16.5625 110.67578125 C-17.55266113 110.3325029 -18.54282227 109.98922455 -19.56298828 109.63554382 C-22.71337977 108.54086143 -25.85681148 107.42767679 -29 106.3125 C-33.12289148 104.86501986 -37.24864317 103.4258478 -41.375 101.98828125 C-42.37265381 101.63823029 -43.37030762 101.28817932 -44.39819336 100.92752075 C-51.08261143 98.60121486 -57.79672331 96.4807255 -64.64990234 94.70613098 C-71.89444109 92.73507671 -76.26786153 89.49668549 -80 83 C-81.01854399 79.94436803 -81.14451885 77.81498672 -81.17700195 74.61401367 C-81.18983719 73.51244431 -81.20267242 72.41087494 -81.21589661 71.27592468 C-81.22328354 70.08529922 -81.23067047 68.89467377 -81.23828125 67.66796875 C-81.246353 66.44346512 -81.25442474 65.21896149 -81.26274109 63.95735168 C-81.27658027 61.36407894 -81.28730316 58.77078799 -81.29516602 56.17749023 C-81.31238627 52.21367889 -81.3562768 48.25069985 -81.40039062 44.28710938 C-81.41051688 41.7682353 -81.41903319 39.24935414 -81.42578125 36.73046875 C-81.44328934 35.54591599 -81.46079742 34.36136322 -81.47883606 33.14091492 C-81.46212397 26.79426046 -81.33638931 22.79322536 -77 18 C-66.71141583 8.74027425 -50.69502713 3.03721101 -38 -2 C-37.15308594 -2.34160156 -36.30617188 -2.68320312 -35.43359375 -3.03515625 C-23.23013766 -7.35763246 -11.39495167 -5.60430957 0 0 Z " fill="#9EAACD" transform="translate(342,39)"/>
<path d="M0 0 C15.07037019 12.9751596 23.04395216 30.46061797 24.61447144 50.22738647 C24.88950066 55.81749616 24.86313111 61.4049223 24.8125 67 C24.80851196 68.27328659 24.80851196 68.27328659 24.80444336 69.57229614 C24.75424948 83.24675086 23.85503583 96.51648172 21.4375 110 C1.79502155 100.53362095 -17.34342736 78.39034996 -26.5625 59 C-27.64460132 55.80741738 -28.55254469 52.59823477 -29.45703125 49.3515625 C-33.1835816 38.05339926 -40.10682123 28.14176866 -47.5625 19 C-48.20960938 18.18789063 -48.85671875 17.37578125 -49.5234375 16.5390625 C-58.30661366 6.03510081 -69.93204433 -1.64564857 -83.5625 -4 C-79.87524538 -7.27647294 -75.73046319 -8.55912504 -71.125 -10.0625 C-70.32022217 -10.32562988 -69.51544434 -10.58875977 -68.6862793 -10.85986328 C-44.28089825 -18.5924056 -20.41188383 -15.75163638 0 0 Z " fill="#9EAACD" transform="translate(424.5625,37)"/>
<path d="M0 0 C13.86783119 -0.39174664 34.89284645 1.73135471 45.95703125 11.15234375 C45.1578125 11.34828125 44.35859375 11.54421875 43.53515625 11.74609375 C22.76815443 17.4009581 9.4449524 32.70029125 -1.16796875 50.71484375 C-4.88044183 57.24433652 -7.74010422 63.77541819 -10.10546875 70.90234375 C-14.35441408 83.60231637 -21.82648897 92.67253598 -31.04296875 102.15234375 C-31.78087646 102.92094727 -31.78087646 102.92094727 -32.53369141 103.70507812 C-48.96265907 120.78220526 -48.96265907 120.78220526 -58.04296875 125.15234375 C-63.4553476 93.81524599 -68.16901276 55.69217693 -49.1015625 27.80859375 C-41.40173901 17.87333764 -33.10580374 11.70896132 -22.04296875 6.15234375 C-21.03492188 5.63542969 -20.026875 5.11851563 -18.98828125 4.5859375 C-12.55444253 1.45812948 -7.06804192 0.35385576 0 0 Z " fill="#9EAACD" transform="translate(122.04296875,21.84765625)"/>
<path d="M0 0 C4.03239366 1.00809841 6.60024399 2.908518 8.86303711 6.40966797 C10.94213599 11.74905487 10.28795276 18.12407127 10.3125 23.8125 C10.31612549 24.54924957 10.31975098 25.28599915 10.32348633 26.04507446 C10.31552229 40.75684194 7.55314738 53.76724626 2.75 67.6875 C2.42402832 68.6681543 2.09805664 69.64880859 1.76220703 70.65917969 C-5.64980034 92.86186444 -17.69921227 127.19936286 -40.25 138.6875 C-43.76200342 139.33496432 -46.88071378 139.41778599 -50.125 137.6875 C-55.76249685 127.66528338 -55.21490494 112.8407731 -56.25 101.6875 C-56.34716309 100.75615234 -56.44432617 99.82480469 -56.54443359 98.86523438 C-58.00995888 83.53624293 -53.62542413 71.42332861 -47.76025391 57.38916016 C-46.43797524 54.14823077 -45.19355685 50.89645166 -43.98892212 47.61106873 C-42.98608643 44.87660337 -41.9601166 42.15110206 -40.93151855 39.42623901 C-40.44214923 38.11816965 -39.96070408 36.80710352 -39.48791504 35.49295044 C-36.31950212 26.74233056 -33.2086403 21.59137108 -25.25 16.6875 C-24.11103794 15.89045916 -22.97522522 15.08888389 -21.84375 14.28125 C-20.8228125 13.5903125 -19.801875 12.899375 -18.75 12.1875 C-14.78116195 9.50080376 -10.99379413 6.69791837 -7.3125 3.625 C-4.62439012 1.51186061 -3.41446146 0.72228992 0 0 Z " fill="#9EAACD" transform="translate(99.25,130.3125)"/>
<path d="M0 0 C5.07316001 0.63343168 8.05857518 3.29719317 12.03515625 6.37109375 C13.51433627 7.48608672 14.99484054 8.59932475 16.4765625 9.7109375 C17.65279175 10.63398682 17.65279175 10.63398682 18.8527832 11.57568359 C21.46066726 13.53014157 21.46066726 13.53014157 24.56713867 14.95166016 C37.66938199 21.97588333 40.80822313 35.68438905 45.66015625 48.93359375 C46.59204598 51.37119293 47.52756489 53.80740794 48.46679688 56.2421875 C55.94067394 75.83258031 58.5112895 90.16929278 55.87353516 111.0534668 C55.59601059 113.25917311 55.33244016 115.46624459 55.0703125 117.67382812 C54.8953508 119.10036117 54.71959766 120.52679742 54.54296875 121.953125 C54.38586426 123.22260986 54.22875977 124.49209473 54.06689453 125.80004883 C53.46303443 129.49242759 52.72467589 132.90584429 51.47265625 136.43359375 C48.41650528 138.47102773 46.45048798 139.16623168 42.77734375 139.05859375 C30.71652022 135.78786194 21.14733841 118.60442359 15.20751953 108.38110352 C6.07243648 92.05883346 -0.15078365 74.29630418 -5.52734375 56.43359375 C-5.81577148 55.54293213 -6.10419922 54.65227051 -6.40136719 53.73461914 C-8.94286287 45.06678919 -9.05236606 36.52896273 -9.02832031 27.56762695 C-9.02733598 24.97563523 -9.06934383 22.38649726 -9.11328125 19.79492188 C-9.11848122 18.13412068 -9.12117656 16.47330933 -9.12109375 14.8125 C-9.13748901 14.04474747 -9.15388428 13.27699493 -9.17077637 12.48597717 C-9.11796282 8.39004061 -8.71658621 6.66004618 -6.05273438 3.47241211 C-4.80266602 2.46319702 -4.80266602 2.46319702 -3.52734375 1.43359375 C-2.52734375 0.43359375 -2.52734375 0.43359375 0 0 Z " fill="#9EAACD" transform="translate(409.52734375,130.56640625)"/>
<path d="M0 0 C1.27939453 -0.01998047 2.55878906 -0.03996094 3.87695312 -0.06054688 C5.10478516 -0.05990234 6.33261719 -0.05925781 7.59765625 -0.05859375 C9.27807007 -0.06137329 9.27807007 -0.06137329 10.99243164 -0.06420898 C14.66918002 0.56214581 15.63969881 1.54558217 17.9375 4.4375 C18.43807125 7.07650852 18.43807125 7.07650852 18.43870544 10.13734436 C18.44853958 11.2996608 18.45837372 12.46197723 18.46850586 13.65951538 C18.45400391 15.5664769 18.45400391 15.5664769 18.43920898 17.51196289 C18.44299287 18.86727967 18.4484935 20.22259259 18.45558167 21.57789612 C18.46954345 25.25559381 18.45836244 28.93282407 18.44187045 32.61049581 C18.42802239 36.45814334 18.43447964 40.30576367 18.43800354 44.15342712 C18.44070554 50.61383603 18.42722994 57.07405913 18.40405273 63.53442383 C18.3774317 71.00650244 18.37569944 78.47827059 18.3874411 85.95038038 C18.39821428 93.13612919 18.39203619 100.32176555 18.37788582 107.50750542 C18.37212312 110.56687511 18.37221087 113.6261626 18.37695122 116.68553352 C18.38171814 120.28647461 18.37163167 123.88707502 18.34999657 127.48795128 C18.34176396 129.44228868 18.34828485 131.39667066 18.35519409 133.35101318 C18.34528946 134.5105098 18.33538483 135.67000641 18.32518005 136.86463928 C18.32275016 137.87433808 18.32032026 138.88403688 18.31781673 139.92433262 C17.9375 142.4375 17.9375 142.4375 16.5617075 144.24283504 C14.9375 145.4375 14.9375 145.4375 12.5625 146.125 C8.81914207 145.14459673 8.23009277 143.07112519 6.31152344 139.85229492 C-7.23928095 116.03726184 -17.20307042 90.64572961 -21.0625 63.4375 C-21.32087646 61.83902222 -21.32087646 61.83902222 -21.58447266 60.20825195 C-23.06520279 50.43714716 -23.43497638 40.84287561 -23.43310547 30.97290039 C-23.43754814 28.34654023 -23.47422082 25.72177563 -23.51171875 23.09570312 C-23.51757687 21.40625564 -23.52155297 19.71680034 -23.5234375 18.02734375 C-23.53780853 17.25228989 -23.55217957 16.47723602 -23.56698608 15.67869568 C-23.52342291 10.49678072 -22.55830511 7.4950108 -19.0625 3.4375 C-13.39427907 -1.02828164 -6.89073771 -0.03830122 0 0 Z " fill="#FC8464" transform="translate(231.0625,332.5625)"/>
<path d="M0 0 C1.27166016 -0.01998047 2.54332031 -0.03996094 3.85351562 -0.06054688 C15.53768525 -0.0544263 15.53768525 -0.0544263 20.1875 4.4375 C20.72246094 4.94619629 21.25742187 5.45489258 21.80859375 5.97900391 C23.97453376 9.84072769 23.59527748 13.64288341 23.55078125 17.99609375 C23.55152901 19.40629539 23.55152901 19.40629539 23.55229187 20.84498596 C23.54995172 22.83800362 23.54022665 24.83102425 23.52368164 26.82397461 C23.50032757 29.83279805 23.50309184 32.84071974 23.50976562 35.84960938 C23.49462518 45.93430119 23.10623334 55.51792178 21.1875 65.4375 C20.99920856 66.78250455 20.81949464 68.12876746 20.65234375 69.4765625 C17.20766196 92.90039865 7.37720445 128.24779555 -9.8125 145.4375 C-12.875 145.1875 -12.875 145.1875 -15.8125 144.4375 C-17.1232614 141.8159772 -16.94437094 139.87711355 -16.95294189 136.94020081 C-16.95865204 135.77221954 -16.96436218 134.60423828 -16.97024536 133.40086365 C-16.97192215 131.46909019 -16.97192215 131.46909019 -16.97363281 129.49829102 C-16.97826018 128.13342148 -16.98328473 126.76855325 -16.98867798 125.40368652 C-17.00181032 121.69091251 -17.00824835 117.97815659 -17.01268864 114.26536298 C-17.01561752 111.94732687 -17.01972193 109.62929574 -17.02419281 107.31126213 C-17.03786884 100.06308215 -17.04753544 92.81491349 -17.0513947 85.5667215 C-17.05587836 77.19123549 -17.07343999 68.81591244 -17.1023953 60.440476 C-17.12398535 53.9716491 -17.13409752 47.50286814 -17.13543582 41.03400558 C-17.13648562 37.16787103 -17.1424304 33.30188964 -17.16025543 29.43579292 C-17.17669044 25.80045918 -17.17891413 22.1653945 -17.17011642 18.53003693 C-17.16897451 16.55655977 -17.18272646 14.58309173 -17.1968689 12.60966492 C-17.19129974 11.43886383 -17.18573059 10.26806274 -17.17999268 9.06178284 C-17.18145924 8.04211205 -17.1829258 7.02244127 -17.1844368 5.97187138 C-16.8125 3.4375 -16.8125 3.4375 -15.46551132 1.61123562 C-11.40314089 -1.2732872 -4.77668336 -0.02639052 0 0 Z " fill="#FD8464" transform="translate(277.8125,332.5625)"/>
<path d="M0 0 C5.5579577 1.08037623 10.90352215 3.04652898 16.25341797 4.86279297 C17.4207547 5.25379181 18.58809143 5.64479065 19.790802 6.04763794 C23.51203393 7.2954868 27.23039836 8.55164536 30.94873047 9.80810547 C33.44203384 10.64589944 35.93552161 11.48314483 38.42919922 12.31982422 C49.74718062 16.11925209 49.74718062 16.11925209 55.22894287 17.98480225 C57.07034734 18.59863007 58.91936789 19.19024754 60.77642822 19.75494385 C61.98924469 20.12761383 61.98924469 20.12761383 63.2265625 20.5078125 C63.92637238 20.71358917 64.62618225 20.91936584 65.34719849 21.13137817 C67.07373047 21.93310547 67.07373047 21.93310547 69.07373047 24.93310547 C70.46924692 37.29339399 64.19785925 47.40947838 57.35498047 57.15576172 C55.09049393 59.91269653 53.08812835 62.02048909 50.07373047 63.93310547 C47.09710571 63.46376536 44.3754348 62.33117336 41.58154297 61.22607422 C40.71859619 60.88858154 39.85564941 60.55108887 38.96655273 60.20336914 C38.05317139 59.84605713 37.13979004 59.48874512 36.19873047 59.12060547 C24.27701477 54.52701971 12.53478736 51.03868889 -0.06298828 48.74169922 C-3.09770485 47.88469195 -4.01903535 47.35557799 -5.92626953 44.93310547 C-6.30722046 42.99804688 -6.30722046 42.99804688 -6.31445312 40.78466797 C-6.32390961 39.95370605 -6.33336609 39.12274414 -6.34310913 38.26660156 C-6.33703644 37.37279785 -6.33096375 36.47899414 -6.32470703 35.55810547 C-6.32757721 34.63723145 -6.33044739 33.71635742 -6.33340454 32.76757812 C-6.33544584 30.82079453 -6.32991137 28.87399045 -6.31738281 26.92724609 C-6.30133009 23.94435847 -6.31722925 20.96282586 -6.33642578 17.97998047 C-6.33444336 16.08935247 -6.33059971 14.19872532 -6.32470703 12.30810547 C-6.33077972 11.41430176 -6.33685242 10.52049805 -6.34310913 9.59960938 C-6.33365265 8.76864746 -6.32419617 7.93768555 -6.31445312 7.08154297 C-6.31206635 6.35112793 -6.30967957 5.62071289 -6.30722046 4.86816406 C-5.55449852 1.04467669 -3.76807482 -0.0861382 0 0 Z " fill="#FD8464" transform="translate(266.92626953125,143.06689453125)"/>
<path d="M0 0 C2.14630199 1.48998205 2.87322472 2.36721638 3.38768005 4.93505859 C3.39578453 6.03068115 3.39578453 6.03068115 3.40405273 7.1484375 C3.41673691 7.97939941 3.42942108 8.81036133 3.44248962 9.66650391 C3.43955399 10.56030762 3.43661835 11.45411133 3.43359375 12.375 C3.4388356 13.29587402 3.44407745 14.21674805 3.44947815 15.16552734 C3.45590098 17.11229443 3.45455798 19.05910031 3.44604492 21.00585938 C3.43753144 23.98898167 3.46629783 26.97019181 3.49804688 29.953125 C3.49965884 31.84374942 3.49908145 33.73437725 3.49609375 35.625 C3.50732773 36.51880371 3.51856171 37.41260742 3.53013611 38.33349609 C3.46108582 44.44995047 3.46108582 44.44995047 1.33227539 46.98950195 C-1.37138222 48.16090768 -3.93242652 48.90604684 -6.8125 49.54296875 C-7.96169922 49.80835449 -9.11089844 50.07374023 -10.29492188 50.34716797 C-11.51759766 50.62447754 -12.74027344 50.90178711 -14 51.1875 C-25.54555984 53.918916 -36.328088 57.42634809 -47.15429688 62.26318359 C-49.11787037 63.0470546 -50.90859424 63.66798434 -53 64 C-57.30634726 61.33156612 -59.91262154 57.65993494 -62.5625 53.4375 C-62.95236084 52.81834717 -63.34222168 52.19919434 -63.74389648 51.5612793 C-68.81265979 43.28794183 -73.19030682 33.9369067 -71 24 C-67.87763823 20.02213044 -64.43005929 18.94050231 -59.703125 17.73828125 C-52.60858883 15.7930819 -45.63610685 13.60013515 -38.671875 11.23046875 C-37.69955933 10.90168732 -36.72724365 10.57290588 -35.72546387 10.23416138 C-31.70472884 8.87344904 -27.68582189 7.50752468 -23.66943359 6.1340332 C-20.69328601 5.11787445 -17.71410978 4.11105117 -14.734375 3.10546875 C-13.37659943 2.63683662 -13.37659943 2.63683662 -11.99139404 2.15873718 C-11.14570862 1.87456436 -10.30002319 1.59039154 -9.42871094 1.29760742 C-8.69166931 1.04621506 -7.95462769 0.79482269 -7.19525146 0.53581238 C-4.64524656 -0.08658748 -2.61437587 -0.29129338 0 0 Z " fill="#FD8464" transform="translate(245,143)"/>
<path d="M0 0 C2.2479225 -0.00437292 4.49388 -0.04069822 6.74145508 -0.07861328 C8.173089 -0.08448191 9.60473223 -0.08845099 11.03637695 -0.09033203 C12.33696045 -0.0985498 13.63754395 -0.10676758 14.97753906 -0.11523438 C18.97044324 0.46488385 19.8744534 1.24013723 22.3215332 4.37060547 C22.82946777 7.0645752 22.82946777 7.0645752 22.83911133 10.17724609 C22.85171997 11.34525757 22.86432861 12.51326904 22.87731934 13.7166748 C22.86922241 14.97403442 22.86112549 16.23139404 22.8527832 17.52685547 C22.85661011 18.82127563 22.86043701 20.1156958 22.86437988 21.44934082 C22.87027008 24.18647393 22.86172859 26.92308405 22.84301758 29.66015625 C22.82022689 33.16432573 22.83335275 36.6672698 22.85730743 40.17139435 C22.87525774 43.51914568 22.86268081 46.86656934 22.8527832 50.21435547 C22.86088013 51.47171509 22.86897705 52.72907471 22.87731934 54.02453613 C22.86471069 55.19254761 22.85210205 56.36055908 22.83911133 57.56396484 C22.83433777 59.10473694 22.83433777 59.10473694 22.82946777 60.67663574 C22.18619735 64.08839612 21.04483322 65.27571656 18.3215332 67.37060547 C15.10107422 67.87231445 15.10107422 67.87231445 11.32543945 67.86669922 C10.3196006 67.86888206 10.3196006 67.86888206 9.29344177 67.87110901 C7.87885178 67.86945327 6.46424317 67.85792799 5.04980469 67.8371582 C2.89415219 67.80824121 0.74096758 67.8165455 -1.41479492 67.82958984 C-13.54853814 67.7746597 -13.54853814 67.7746597 -17.6784668 64.37060547 C-21.52720177 59.02353213 -21.12985264 53.38488872 -21.11206055 47.05810547 C-21.1173024 45.97102295 -21.12254425 44.88394043 -21.12794495 43.76391602 C-21.1343536 41.47103732 -21.13304318 39.17812569 -21.12451172 36.88525391 C-21.11599542 33.3823791 -21.14479153 29.88113212 -21.17651367 26.37841797 C-21.1781257 24.14664762 -21.17754812 21.9148744 -21.17456055 19.68310547 C-21.18579453 18.63920654 -21.1970285 17.59530762 -21.20860291 16.51977539 C-21.1510044 10.49515086 -20.74479424 6.92997454 -16.6784668 2.37060547 C-11.7265316 -0.93068466 -5.80063298 -0.00126721 0 0 Z " fill="#FC8464" transform="translate(226.678466796875,258.62939453125)"/>
<path d="M0 0 C2.22650847 0.000969 4.44952944 -0.04057395 6.67553711 -0.08496094 C8.10066017 -0.09017108 9.52579515 -0.09285608 10.95092773 -0.09277344 C12.2410376 -0.09986328 13.53114746 -0.10695313 14.86035156 -0.11425781 C19.52430137 0.68926673 21.11311354 2.19174717 24.43139648 5.50097656 C25.66628613 7.97075585 25.57822191 9.64359276 25.60839844 12.40625 C25.62765129 13.93859283 25.62765129 13.93859283 25.64729309 15.50189209 C25.65468002 16.61018372 25.66206696 17.71847534 25.66967773 18.86035156 C25.67774948 19.99748596 25.68582123 21.13462036 25.69413757 22.30621338 C25.70798746 24.71714753 25.71870555 27.12810137 25.7265625 29.5390625 C25.74376145 33.22205936 25.78763939 36.90415559 25.83178711 40.58691406 C25.84191502 42.92805329 25.85043081 45.26920015 25.85717773 47.61035156 C25.87468582 48.71054626 25.89219391 49.81074097 25.91023254 50.9442749 C25.89287751 57.07917534 25.7016526 60.92640551 21.43139648 65.50097656 C16.67860227 69.06541181 9.74094989 67.83404268 4.04980469 67.81665039 C1.87246033 67.81348175 -0.30353552 67.83699724 -2.48071289 67.86230469 C-3.8654768 67.86457701 -5.25024437 67.86528149 -6.63500977 67.86425781 C-8.52135132 67.86872925 -8.52135132 67.86872925 -10.44580078 67.87329102 C-13.56860352 67.50097656 -13.56860352 67.50097656 -15.23951721 66.34599304 C-17.12506054 63.72851176 -16.94961622 61.81696397 -16.95678711 58.60839844 C-16.96624359 57.39704224 -16.97570007 56.18568604 -16.98544312 54.93762207 C-16.97937042 53.62821655 -16.97329773 52.31881104 -16.96704102 50.96972656 C-16.96906203 49.61356449 -16.97197369 48.25740347 -16.97573853 46.90124512 C-16.98016067 44.05987189 -16.97373475 41.21878172 -16.9597168 38.37744141 C-16.94262448 34.73545553 -16.95246632 31.09413287 -16.97043419 27.45217133 C-16.98127527 24.65202844 -16.97782431 21.85204277 -16.97005081 19.05189514 C-16.9670765 17.05603607 -16.97618691 15.06017088 -16.98544312 13.06433105 C-16.97598663 11.85297485 -16.96653015 10.64161865 -16.95678711 9.39355469 C-16.95440033 8.32560669 -16.95201355 7.25765869 -16.94955444 6.15734863 C-16.56860352 3.50097656 -16.56860352 3.50097656 -15.24327087 1.65893555 C-11.19864107 -1.13774846 -4.81424508 -0.01480493 0 0 Z " fill="#FE8464" transform="translate(277.568603515625,258.4990234375)"/>
<path d="M0 0 C2.625 0.375 2.625 0.375 5 1 C7.28776001 8.30037238 7.69162009 15.37526162 8 23 C8.03399902 23.67869141 8.06799805 24.35738281 8.10302734 25.05664062 C8.79579549 39.84038319 5.49459266 52.24141301 -4.29296875 63.6796875 C-5.98892072 65.53603182 -7.69890768 67.37963989 -9.421875 69.2109375 C-11.92157902 71.91516276 -14.25266788 74.69540069 -16.5625 77.5625 C-20.22991944 82.1062055 -24.05022287 86.46542849 -28.00390625 90.76171875 C-29.69361766 92.65644407 -31.18928065 94.58110332 -32.6875 96.625 C-35 99 -35 99 -38.25 99.4375 C-41 99 -41 99 -42 98 C-44.22088463 69.35058831 -36.86740033 42.13140692 -18.47216797 19.71728516 C-12.61754149 12.88785852 -6.35986694 6.35986694 0 0 Z " fill="#FC004F" transform="translate(356,331)"/>
<path d="M0 0 C4.3990684 0.94881868 6.5111826 3.93248593 9.4140625 7.2265625 C10.02725342 7.90734863 10.64044434 8.58813477 11.2722168 9.28955078 C13.13236538 11.37602831 14.96478426 13.4836934 16.7890625 15.6015625 C17.30903809 16.19904297 17.82901367 16.79652344 18.36474609 17.41210938 C37.69412976 39.87407536 44.63725472 65.72244055 45.01953125 94.94921875 C44.7890625 97.6015625 44.7890625 97.6015625 42.7890625 99.6015625 C40.6015625 100.1640625 40.6015625 100.1640625 37.7890625 99.6015625 C32.38335562 95.53043163 28.31774817 89.65414995 24.109375 84.42578125 C21.90577844 81.74362584 19.62862425 79.16529829 17.2890625 76.6015625 C4.29124007 62.26539535 -5.88328534 49.88666959 -5.4609375 29.9140625 C-5.44853027 28.86130127 -5.43612305 27.80854004 -5.42333984 26.72387695 C-5.03757643 1.370648 -5.03757643 1.370648 0 0 Z " fill="#FD004F" transform="translate(151.2109375,330.3984375)"/>
<path d="M0 0 C2.38267356 2.38267356 2.25475523 2.8851343 2.2746582 6.12670898 C2.28895622 7.40329628 2.28895622 7.40329628 2.30354309 8.70567322 C2.30263168 9.62651199 2.30172028 10.54735077 2.30078125 11.49609375 C2.30506638 12.44057877 2.3093515 13.38506378 2.31376648 14.35816956 C2.31951586 16.35799355 2.32000558 18.35783845 2.31567383 20.35766602 C2.31251623 23.42174904 2.33595726 26.48486475 2.36132812 29.54882812 C2.36360125 31.48958211 2.36430456 33.4303387 2.36328125 35.37109375 C2.372491 36.28990829 2.38170074 37.20872284 2.39118958 38.15538025 C2.38184639 39.43669579 2.38184639 39.43669579 2.37231445 40.74389648 C2.37294388 41.49509262 2.3735733 42.24628876 2.3742218 43.02024841 C1.88745501 45.59539858 1.10455739 46.4653909 -1 48 C-2.88363647 48.39440918 -2.88363647 48.39440918 -5.02490234 48.41992188 C-5.82938812 48.43583374 -6.6338739 48.45174561 -7.46273804 48.46813965 C-8.32839386 48.46834106 -9.19404968 48.46854248 -10.0859375 48.46875 C-11.42683945 48.48017029 -11.42683945 48.48017029 -12.79483032 48.49182129 C-14.68610848 48.50262683 -16.57744632 48.50547355 -18.46875 48.50097656 C-21.35778889 48.50000578 -24.24415831 48.54158764 -27.1328125 48.5859375 C-28.97134863 48.59114576 -30.80989399 48.59383267 -32.6484375 48.59375 C-33.94084854 48.6183429 -33.94084854 48.6183429 -35.2593689 48.64343262 C-39.68014047 48.59269552 -41.43223932 48.45786702 -44.9855957 45.59228516 C-49.89595925 39.27326442 -53.06107915 33.88517885 -52.58984375 25.6328125 C-50.94339543 18.28376502 -44.75389386 14.6481223 -38.75 10.8125 C-28.08555173 4.57318486 -12.84153138 -4.28051046 0 0 Z " fill="#FD8464" transform="translate(247,201)"/>
<path d="M0 0 C12.12653337 2.45283854 23.8772836 7.33918352 33.78515625 14.765625 C34.40777344 15.219375 35.03039062 15.673125 35.671875 16.140625 C40.21776486 19.66286412 42.44790215 22.62968235 43.34765625 28.328125 C43.10178807 35.12185112 39.10108989 41.48503059 35.27294922 46.90771484 C31.4713322 49.74680272 27.90110746 49.30107449 23.27734375 49.2265625 C21.89459763 49.22518784 21.89459763 49.22518784 20.48391724 49.2237854 C18.53886758 49.21775146 16.59382713 49.20201166 14.64892578 49.17724609 C11.66404198 49.14067261 8.68039725 49.13622722 5.6953125 49.13671875 C3.80597881 49.12689004 1.91665354 49.11523412 0.02734375 49.1015625 C-0.86848419 49.09933685 -1.76431213 49.09711121 -2.68728638 49.09481812 C-3.51509613 49.08205841 -4.34290588 49.06929871 -5.19580078 49.05615234 C-6.29022995 49.04471695 -6.29022995 49.04471695 -7.4067688 49.03305054 C-9.21484375 48.765625 -9.21484375 48.765625 -11.21484375 46.765625 C-11.47554016 44.87489319 -11.47554016 44.87489319 -11.48950195 42.54711914 C-11.49903397 41.67604019 -11.50856598 40.80496124 -11.51838684 39.90748596 C-11.51747543 38.96477341 -11.51656403 38.02206085 -11.515625 37.05078125 C-11.51991013 36.08410019 -11.52419525 35.11741913 -11.52861023 34.1214447 C-11.53435987 32.07454207 -11.53484915 30.02761901 -11.53051758 27.98071289 C-11.52735994 24.84420987 -11.55080097 21.70865176 -11.57617188 18.57226562 C-11.57844498 16.58593869 -11.57914831 14.59960922 -11.578125 12.61328125 C-11.58733475 11.67259293 -11.59654449 10.7319046 -11.60603333 9.76271057 C-11.59980453 8.88847946 -11.59357574 8.01424835 -11.5871582 7.11352539 C-11.58778763 6.34456436 -11.58841705 5.57560333 -11.58906555 4.78334045 C-10.41326465 -1.55629993 -5.10189358 -0.57032103 0 0 Z " fill="#FD8464" transform="translate(272.21484375,200.234375)"/>
<path d="M0 0 C0.99 0.33 1.98 0.66 3 1 C3.07487239 5.6589823 3.12893832 10.31760455 3.16479492 14.97705078 C3.17976271 16.55784211 3.20014437 18.13859278 3.22631836 19.71923828 C3.44559883 33.31462766 2.52453702 45.99782118 -7.36816406 56.44482422 C-10.7741449 59.79261132 -14.34865457 62.9236309 -18 66 C-18.86496094 66.76570313 -19.72992188 67.53140625 -20.62109375 68.3203125 C-23 70 -23 70 -27 70 C-27.10007178 65.64418349 -27.17202448 61.28900407 -27.21972656 56.93237305 C-27.23964487 55.45536622 -27.26679007 53.97843616 -27.30175781 52.50170898 C-27.60520655 39.34185113 -25.7386588 29.20952217 -17 19 C-16.04013681 17.85696206 -15.08052421 16.71371368 -14.12109375 15.5703125 C-9.57884753 10.19602211 -5.04310576 4.91355808 0 0 Z " fill="#FB014F" transform="translate(354,228)"/>
<path d="M0 0 C6.00879047 2.4255668 9.86237366 8.21528624 14 13 C15.11568359 14.28583984 15.11568359 14.28583984 16.25390625 15.59765625 C24.07530722 24.9625595 29.30220073 34.79361506 29.1953125 47.24609375 C29.1924826 47.90207047 29.18965271 48.55804718 29.18673706 49.23390198 C29.17565984 51.30196409 29.15058063 53.36957173 29.125 55.4375 C29.11495402 56.85090515 29.10583102 58.26431717 29.09765625 59.67773438 C29.07576184 63.11863394 29.04132051 66.55927252 29 70 C22.1275236 68.85757915 18.11711715 64.51425903 13 60 C12.23558594 59.34386719 11.47117188 58.68773437 10.68359375 58.01171875 C4.53020199 52.37208266 1.60955828 45.82867485 -1 38 C-1.0970997 35.20755924 -1.139961 32.44079732 -1.1328125 29.6484375 C-1.13376923 28.83380035 -1.13472595 28.01916321 -1.13571167 27.17984009 C-1.13639166 25.46006188 -1.13454998 23.74028108 -1.13037109 22.02050781 C-1.12500649 19.37819717 -1.13032925 16.73605545 -1.13671875 14.09375 C-1.13605821 12.42447879 -1.13477754 10.75520768 -1.1328125 9.0859375 C-1.13483673 8.29118011 -1.13686096 7.49642273 -1.13894653 6.67758179 C-1.11496014 1.11496014 -1.11496014 1.11496014 0 0 Z " fill="#FB014F" transform="translate(154,228)"/>
<path d="M0 0 C1.8125 0.75 1.8125 0.75 2.8125 1.75 C4.12398976 13.37854256 4.22510663 25.17893321 -3.1875 34.75 C-5.86518002 37.71715895 -8.58423463 40.46188963 -11.50390625 43.19140625 C-14.49994841 46.04789477 -17.04229145 49.1048192 -19.5546875 52.38671875 C-21.1875 53.75 -21.1875 53.75 -23.8203125 54.01953125 C-26.1875 53.75 -26.1875 53.75 -27.1875 52.75 C-27.52785347 48.77992758 -27.51291273 44.79525956 -27.5625 40.8125 C-27.61857422 39.15637695 -27.61857422 39.15637695 -27.67578125 37.46679688 C-27.76907637 28.69187236 -26.15568078 22.33145462 -20.34082031 15.61791992 C-18.33526734 13.59303573 -16.26531445 11.69385798 -14.125 9.8125 C-13.06442383 8.84473633 -13.06442383 8.84473633 -11.98242188 7.85742188 C-2.93994738 -0.33599399 -2.93994738 -0.33599399 0 0 Z " fill="#FB014F" transform="translate(354.1875,290.25)"/>
<path d="M0 0 C4.53232168 0.51494573 7.16225606 3.59922136 10.3125 6.625 C11.17862915 7.44641479 11.17862915 7.44641479 12.06225586 8.28442383 C13.20265842 9.36864892 14.34020238 10.45589012 15.47460938 11.54638672 C16.71785024 12.73112681 17.98804148 13.88753381 19.265625 15.03515625 C24.33338716 19.69529406 27.49848738 24.92054209 28.35083008 31.85375977 C28.4628506 34.8917265 28.44850749 37.89854579 28.375 40.9375 C28.37371094 41.97712891 28.37242187 43.01675781 28.37109375 44.08789062 C28.28173346 51.71826654 28.28173346 51.71826654 26 54 C21.76953839 53.93424153 19.61262322 52.08028339 16.69897461 49.15307617 C16.20018799 48.62818604 15.70140137 48.1032959 15.1875 47.5625 C14.66486572 47.02407471 14.14223145 46.48564941 13.60375977 45.9309082 C3.46264419 35.34704446 -2.5578513 27.63430133 -2.3125 12.6875 C-2.31572266 11.68654297 -2.31894531 10.68558594 -2.32226562 9.65429688 C-2.26740009 2.26740009 -2.26740009 2.26740009 0 0 Z " fill="#FB014F" transform="translate(155,290)"/>
<path d="M0 0 C-0.62962057 6.09587187 -3.15372331 10.76181009 -5.94140625 16.10742188 C-12.88798956 30.09097155 -12.52458327 44.553414 -12.6875 59.8125 C-12.72073328 61.96942101 -12.75522831 64.12632298 -12.79101562 66.28320312 C-12.87522519 71.52200454 -12.94385653 76.76082652 -13 82 C-14.98 82.495 -14.98 82.495 -17 83 C-18.31799019 80.58618654 -19.62950918 78.16922404 -20.9375 75.75 C-21.31068359 75.06808594 -21.68386719 74.38617188 -22.06835938 73.68359375 C-22.60493164 72.68779297 -22.60493164 72.68779297 -23.15234375 71.671875 C-23.6472229 70.76066895 -23.6472229 70.76066895 -24.15209961 69.83105469 C-30.11648673 56.95086367 -25.10598181 37.19127756 -20.54296875 24.71484375 C-17.47207489 16.95562413 -9.71344623 0 0 0 Z " fill="#9AA6C9" transform="translate(50,175)"/>
<path d="M0 0 C7.24502829 1.75637049 11.43080858 8.86440525 15.1875 14.8125 C18.16554138 20.00823176 20.25389717 25.28054319 22 31 C22.30035156 31.93972656 22.60070312 32.87945312 22.91015625 33.84765625 C26.49391438 46.76585416 27.51416462 62.44989011 21.37890625 74.66796875 C19.67843652 77.54383399 18.00580901 80.32558799 16 83 C14.515 82.505 14.515 82.505 13 82 C12.97494385 80.94723877 12.9498877 79.89447754 12.92407227 78.80981445 C12.82871659 74.84178903 12.72882837 70.87388763 12.62768555 66.90600586 C12.58481426 65.20030654 12.5431142 63.49457732 12.50268555 61.78881836 C12.00872647 41.02424251 10.34315299 24.31088289 0.2578125 5.828125 C-1 3 -1 3 0 0 Z " fill="#9CA8CB" transform="translate(460,175)"/>
<path d="M0 0 C0.66 0 1.32 0 2 0 C2.62497493 10.81901053 1.85988546 19.06166281 -3 29 C-3.44601563 29.94488281 -3.89203125 30.88976562 -4.3515625 31.86328125 C-7.90186163 38.87462619 -12.38483914 45.47040349 -18 51 C-18.99 51 -19.98 51 -21 51 C-19.04148333 44.67638646 -16.61696335 38.74041621 -13.8125 32.75 C-10.00093056 24.47293084 -6.63310566 16.08688567 -3.47583008 7.54003906 C-3.16411865 6.69795898 -2.85240723 5.85587891 -2.53125 4.98828125 C-2.25861328 4.24102783 -1.98597656 3.49377441 -1.70507812 2.72387695 C-1 1 -1 1 0 0 Z " fill="#9AA6C9" transform="translate(109,195)"/>
<path d="M0 0 C0.99 0.33 1.98 0.66 3 1 C4.10955491 3.78779533 5.04643809 6.51641635 5.9375 9.375 C9.297578 19.62661797 13.58432481 29.36310203 18.08764648 39.14794922 C18.59368408 40.25541504 19.09972168 41.36288086 19.62109375 42.50390625 C20.0792749 43.49205322 20.53745605 44.4802002 21.00952148 45.49829102 C22 48 22 48 22 51 C12.06681312 46.57325367 7.47652513 35.26560043 3 26 C2.61328125 25.21753906 2.2265625 24.43507812 1.828125 23.62890625 C-1.21241104 16.27138271 -0.24190207 7.80358158 0 0 Z " fill="#9BA6C9" transform="translate(399,195)"/>
</svg>
