<?xml version="1.0" encoding="UTF-8"?>
<svg version="1.1" xmlns="http://www.w3.org/2000/svg" width="512" height="512">
<path d="M0 0 C2.23938663 4.67927545 2.68447335 9.87653995 3.3671875 14.9765625 C3.61522857 16.71623961 3.86394676 18.45582029 4.11328125 20.1953125 C4.49776382 22.9177051 4.8770907 25.64049931 5.24462891 28.36523438 C5.60386907 31.00886131 5.98392089 33.64882684 6.3671875 36.2890625 C6.47151093 37.10267242 6.57583435 37.91628235 6.68331909 38.75454712 C7.37764514 43.41622147 8.04463017 46.06578356 12 49 C13.91553435 50.2513999 15.8725337 51.44043493 17.85546875 52.58203125 C18.4258638 52.91309875 18.99625885 53.24416626 19.5839386 53.58526611 C20.81042689 54.2963583 22.03852358 55.00468226 23.26806641 55.71047974 C26.54403919 57.59134105 29.80802087 59.49285837 33.07421875 61.390625 C33.73851898 61.77577774 34.40281921 62.16093048 35.08724976 62.55775452 C41.59390349 66.33354381 48.05236802 70.18670681 54.5 74.0625 C55.53777588 74.68415039 56.57555176 75.30580078 57.64477539 75.94628906 C61.76400404 78.41990211 65.87580687 80.89579016 69.9140625 83.5 C75.81999156 87.29358947 81.6492692 90.17564706 88.19677734 92.64941406 C100.39846104 97.35707625 111.35571713 104.1715477 121 113 C121.93585938 113.84304687 122.87171875 114.68609375 123.8359375 115.5546875 C142.04978648 132.77051735 149.13490037 157.30939048 150.11376953 181.85253906 C150.37055448 191.97858713 150.47020519 201.90537535 148.76977539 211.90991211 C147.47859623 219.33609982 147.47859623 219.33609982 149.77734375 226.30859375 C151.94949609 228.82882597 154.2133953 231.15980648 156.59082031 233.48388672 C177.65944891 256.15127819 183.16781801 292.48363619 183.9543457 321.86010742 C184.02606802 323.983768 184.12830693 326.10663125 184.26196289 328.22729492 C185.40430306 346.78923958 185.40430306 346.78923958 179.71435547 353.48779297 C176.38488278 356.80952346 172.76116589 359.6811338 168.98727417 362.47946167 C166.2501485 364.57373963 163.95398202 366.89318414 161.5625 369.375 C160.79292969 370.15230469 160.02335937 370.92960937 159.23046875 371.73046875 C158.49441406 372.47941406 157.75835937 373.22835938 157 374 C152.08673536 378.99584052 147.13565259 383.81970376 141.81738281 388.38330078 C138.18924977 391.61079903 134.99195139 395.26536675 131.7109375 398.83984375 C129 401 129 401 125.81640625 401.50390625 C123 401 123 401 120.5625 398 C111.62473561 381.6476272 103.54317942 361.63151275 104.0859375 342.72265625 C104.2841292 330.55342496 100.89495613 324.34201197 92.52148438 315.61132812 C90.22106079 313.17506438 88.12129165 310.59268979 86 308 C85.49210937 308.7734375 84.98421875 309.546875 84.4609375 310.34375 C78.15804239 319.88071488 78.15804239 319.88071488 74.75 324.25 C66.07274282 335.66247955 64.44942896 348.51900963 66.33856201 362.50683594 C67.26876021 368.09672966 68.389553 373.65186746 69.47784424 379.21270752 C72.92710851 397.1316696 74.72859322 414.37203308 74.125 432.625 C74.0954422 433.56815063 74.0658844 434.51130127 74.03543091 435.48303223 C73.94174369 438.1488888 73.82654533 440.81230716 73.6953125 443.4765625 C73.65833755 444.25566986 73.62136261 445.03477722 73.58326721 445.8374939 C72.94394333 456.08782363 72.94394333 456.08782363 69.53588867 459.44018555 C68.9401001 459.7731665 68.34431152 460.10614746 67.73046875 460.44921875 C67.0142334 460.85317871 66.29799805 461.25713867 65.56005859 461.67333984 C64.71523926 462.1111377 63.87041992 462.54893555 63 463 C61.9992041 463.51900879 60.9984082 464.03801758 59.96728516 464.57275391 C56.4346941 466.35987778 52.88095482 468.09853453 49.3125 469.8125 C48.67139282 470.12091827 48.03028564 470.42933655 47.36975098 470.74710083 C23.10350104 482.37897838 -2.25049061 491.27651595 -29 495 C-29.88945312 495.13019531 -30.77890625 495.26039063 -31.6953125 495.39453125 C-75.19072575 500.77762695 -120.21464549 482.76673159 -157.75 462.4375 C-158.48822998 462.04457764 -159.22645996 461.65165527 -159.98706055 461.24682617 C-164.7897606 458.53991382 -164.7897606 458.53991382 -165.66870117 456.28271484 C-166.10158657 453.30004831 -166.22298508 450.36855804 -166.31640625 447.35546875 C-166.35830078 446.03740234 -166.40019531 444.71933594 -166.44335938 443.36132812 C-166.46293701 442.67369385 -166.48251465 441.98605957 -166.50268555 441.27758789 C-166.56121521 439.23239427 -166.62667379 437.18752017 -166.69335938 435.14257812 C-166.77986141 432.42318326 -166.84948569 429.70405036 -166.90673828 426.98388672 C-166.96512204 424.48989144 -167.04809308 421.9962147 -167.16748047 419.50439453 C-167.58703661 406.19607385 -164.74902304 393.28836635 -162.41796875 380.24267578 C-158.76339354 359.62975286 -155.71082686 342.09830155 -168.05859375 323.75 C-168.69925781 322.8425 -169.33992188 321.935 -170 321 C-170.71285156 319.989375 -171.42570312 318.97875 -172.16015625 317.9375 C-175.81369438 312.746483 -175.81369438 312.746483 -180 308 C-180.56847656 308.76183594 -181.13695312 309.52367187 -181.72265625 310.30859375 C-182.49480469 311.34113281 -183.26695312 312.37367188 -184.0625 313.4375 C-185.24077342 315.01457365 -186.41826972 316.5922821 -187.58325195 318.17919922 C-189 320 -189 320 -190.82885742 321.99658203 C-196.2406903 328.14131784 -197.02218177 332.95677476 -197.1875 341 C-197.30160019 343.22837675 -197.42532878 345.45628097 -197.55859375 347.68359375 C-197.62288574 348.76366699 -197.68717773 349.84374023 -197.75341797 350.95654297 C-198.96997604 365.97200126 -204.99260708 389.99260708 -216 401 C-218.5625 401.5625 -218.5625 401.5625 -222 401 C-224.18215162 399.22728301 -226.02157147 397.27894645 -227.9296875 395.21484375 C-229.85958884 393.15021345 -231.84762523 391.32740838 -234 389.5 C-236.78896393 387.10323412 -239.41990785 384.62040609 -242 382 C-244.55990134 379.40017817 -247.1677954 376.93731602 -249.9375 374.5625 C-253.74684196 371.28989507 -257.24821109 367.76899563 -260.7734375 364.1953125 C-263.37366761 361.63157684 -266.0877366 359.24630125 -268.8828125 356.8984375 C-269.58148438 356.27195312 -270.28015625 355.64546875 -271 355 C-271.56438782 354.56058075 -272.12877563 354.1211615 -272.71026611 353.66842651 C-275.56108393 351.22897642 -277.66632718 349.27016555 -278.63803101 345.57125854 C-278.85845031 342.70692731 -278.86594914 339.91872008 -278.7890625 337.046875 C-278.78627289 335.99203918 -278.78348328 334.93720337 -278.78060913 333.85040283 C-278.76787318 331.61788675 -278.73825973 329.38541129 -278.69287109 327.15332031 C-278.62603532 323.80191473 -278.61090871 320.45356982 -278.60546875 317.1015625 C-278.37183842 283.26470417 -270.78644717 253.04064166 -247 228 C-245.86691406 227.11441406 -245.86691406 227.11441406 -244.7109375 226.2109375 C-242.16246653 222.91770789 -242.82718047 219.86235906 -243.25 215.9375 C-243.38057193 214.31023281 -243.50673623 212.68260704 -243.62890625 211.0546875 C-243.69480957 210.21776367 -243.76071289 209.38083984 -243.82861328 208.51855469 C-245.47535671 184.31940197 -243.27690591 156.83470477 -232 135 C-231.54496094 134.11828125 -231.08992188 133.2365625 -230.62109375 132.328125 C-223.77356737 120.45221459 -212.71501158 110.0156755 -201 103 C-200.41492676 102.64599121 -199.82985352 102.29198242 -199.22705078 101.92724609 C-197.2239797 100.72500052 -195.20902699 99.5459273 -193.1875 98.375 C-192.57213379 98.0143042 -191.95676758 97.6536084 -191.32275391 97.28198242 C-187.26151274 94.99838014 -183.18339207 93.29718834 -178.80078125 91.7109375 C-171.64841321 89.02474237 -165.44394649 85.31635083 -159 81.25 C-156.55391042 79.73060358 -154.10293458 78.21915377 -151.65234375 76.70703125 C-151.02819077 76.32047867 -150.40403778 75.93392609 -149.76097107 75.53565979 C-142.18068473 70.85164956 -134.47884071 66.3766408 -126.77563477 61.89880371 C-123.95443935 60.25854165 -121.13846355 58.61110026 -118.33251953 56.94482422 C-116.01428019 55.59192352 -113.70316982 54.30053814 -111.33544922 53.04345703 C-105.31685737 49.94507713 -105.31685737 49.94507713 -100.83227539 45.0847168 C-100.25970443 42.69628612 -100.12802018 40.45487338 -100 38 C-99.71472947 36.07088335 -99.42791831 34.14191474 -99.12060547 32.21618652 C-98.77741262 30.05394812 -98.45736612 27.88948357 -98.14453125 25.72265625 C-98.03834473 24.98805176 -97.9321582 24.25344727 -97.82275391 23.49658203 C-97.60657655 21.9918437 -97.39141654 20.48695888 -97.17724609 18.98193359 C-96.86312136 16.78401378 -96.54138699 14.58730905 -96.21875 12.390625 C-96.03248047 11.09157227 -95.84621094 9.79251953 -95.65429688 8.45410156 C-94.57478676 2.75525487 -94.57478676 2.75525487 -93 0 C-70.88963801 -11.91084516 -21.92244793 -12.48338728 0 0 Z " fill="#49506A" transform="translate(301,12)"/>
<path d="M0 0 C4.58534938 1.67203717 6.14408645 4.5845593 8.72265625 8.58984375 C9.77206913 10.14805785 10.82289853 11.70531872 11.875 13.26171875 C12.41366699 14.06931641 12.95233398 14.87691406 13.50732422 15.70898438 C16.70236852 20.43217542 20.07920583 25.02661072 23.46337891 29.61547852 C25.94301847 32.99583557 28.32893527 36.34609018 30.4296875 39.9765625 C36.78180284 50.65072079 45.64993722 54.9945438 56.578125 60.36523438 C63.07873437 63.58059943 69.45953109 67.03339897 75.86352539 70.43566895 C78.12510674 71.63377575 80.39094413 72.82342034 82.65820312 74.01074219 C84.07552854 74.75584471 85.49284658 75.50096128 86.91015625 76.24609375 C87.55311646 76.58106873 88.19607666 76.9160437 88.85852051 77.26116943 C92.7967314 79.33872327 96.61558407 81.44980795 100.16015625 84.15234375 C100.84765625 87.65234375 100.84765625 87.65234375 100.16015625 91.15234375 C97.31146047 94.39396308 93.55085744 96.02276829 89.78515625 98.02734375 C74.08296798 106.49853769 64.99756553 122.16097672 59.91015625 138.96484375 C55.89196615 154.89957026 54.82913122 169.44662871 55.29711914 185.82006836 C55.36374299 188.35917746 55.40545595 190.89785082 55.4453125 193.4375 C55.4753688 194.19595718 55.50542511 194.95441437 55.53639221 195.7358551 C55.65279486 204.19145409 51.49391421 210.00569373 46.59765625 216.65234375 C45.70834496 217.87275861 44.82037455 219.09415144 43.93359375 220.31640625 C43.47694336 220.94450195 43.02029297 221.57259766 42.54980469 222.21972656 C40.22388866 225.45443339 37.97277978 228.73965879 35.72265625 232.02734375 C35.26197754 232.69950928 34.80129883 233.3716748 34.32666016 234.06420898 C33.39377776 235.42613924 32.46132229 236.78836203 31.52929688 238.15087891 C29.34697582 241.34108362 27.16082547 244.52864795 24.97265625 247.71484375 C24.53695313 248.34938477 24.10125 248.98392578 23.65234375 249.63769531 C18.68056528 256.86713872 13.66196998 264.064086 8.6418457 271.26000977 C5.43478656 275.8613736 2.24402883 280.46738131 -0.83984375 285.15234375 C-2.48984375 284.82234375 -4.13984375 284.49234375 -5.83984375 284.15234375 C-5.93334585 261.09950216 -6.00385181 238.04669191 -6.04709244 214.99369907 C-6.06770477 204.28943601 -6.09580005 193.58529088 -6.14160156 182.88110352 C-6.18150991 173.54973694 -6.20728622 164.21845578 -6.21619773 154.88700622 C-6.22140568 149.94749274 -6.23361871 145.00822359 -6.26276398 140.06878853 C-6.2899962 135.41569165 -6.29827298 130.76293883 -6.29227448 126.10976982 C-6.29337122 124.40583296 -6.30127853 122.7018841 -6.31666565 120.99801636 C-6.45705738 104.64417701 -6.45705738 104.64417701 -1.83984375 97.15234375 C-1.30359375 96.16234375 -0.76734375 95.17234375 -0.21484375 94.15234375 C3.39285807 89.59524672 7.76077526 85.93043811 12.16015625 82.15234375 C11.31453125 81.16234375 10.46890625 80.17234375 9.59765625 79.15234375 C9.05238281 78.50910156 8.50710938 77.86585937 7.9453125 77.203125 C6.77618491 75.86003531 5.57608582 74.54315201 4.34375 73.2578125 C-2.24791578 66.26751467 -5.92521584 57.81264914 -6.00097656 48.15600586 C-6.01058411 47.16495346 -6.02019165 46.17390106 -6.03009033 45.15281677 C-6.03434021 44.08918411 -6.03859009 43.02555145 -6.04296875 41.9296875 C-6.04866882 40.83266006 -6.0543689 39.73563263 -6.0602417 38.60536194 C-6.06968083 36.28794314 -6.07622136 33.97051098 -6.08007812 31.65307617 C-6.08981629 28.09986249 -6.12086358 24.54721939 -6.15234375 20.99414062 C-6.15887076 18.74349302 -6.16412242 16.49284128 -6.16796875 14.2421875 C-6.18031555 13.17653061 -6.19266235 12.11087372 -6.2053833 11.01292419 C-6.2023822 10.02502396 -6.1993811 9.03712372 -6.19628906 8.01928711 C-6.19993469 7.14976913 -6.20358032 6.28025116 -6.20733643 5.38438416 C-5.56045067 1.45539391 -3.88836103 0.20859158 0 0 Z " fill="#9EAACD" transform="translate(263.83984375,20.84765625)"/>
<path d="M0 0 C1.63966457 1.63966457 1.16066386 3.5265729 1.19287109 5.78833008 C1.20893402 6.8106221 1.22499695 7.83291412 1.24154663 8.88618469 C1.28608088 13.6108848 1.32714186 18.33544109 1.35009766 23.06030273 C1.36656915 25.54216954 1.39374058 28.02399067 1.43212891 30.50561523 C1.48735078 34.09383641 1.50885081 37.68094025 1.5234375 41.26953125 C1.54610687 42.36376907 1.56877625 43.4580069 1.59213257 44.58540344 C1.56512224 54.60246447 -1.38935425 63.74729315 -8 71.4375 C-8.680625 72.23800781 -9.36125 73.03851563 -10.0625 73.86328125 C-12.30378247 76.33501816 -14.56585933 78.71799312 -17 81 C-16.02160156 81.81791016 -16.02160156 81.81791016 -15.0234375 82.65234375 C-7.51687097 89.1292485 -1.74363174 95.31618408 1 105 C1.17405174 107.48824051 1.24402711 109.98477743 1.24050903 112.47909546 C1.24221788 113.21109433 1.24392673 113.9430932 1.24568737 114.69727385 C1.24896937 117.13861567 1.23800002 119.57967979 1.22705078 122.02099609 C1.22648639 123.77555332 1.22680378 125.53011102 1.22793579 127.28466797 C1.22850921 132.04040084 1.21675665 136.79603267 1.20278788 141.55174208 C1.1902787 146.52453059 1.18910987 151.49732147 1.18673706 156.47012329 C1.18052285 165.8835099 1.1641128 175.29685002 1.14403808 184.71021616 C1.12167727 195.42840363 1.11068519 206.14659332 1.10064721 216.86479831 C1.07974655 238.90989148 1.04457168 260.95494281 1 283 C-0.65 283.33 -2.3 283.66 -4 284 C-4.37060547 283.45400146 -4.74121094 282.90800293 -5.12304688 282.34545898 C-12.40173863 271.62898855 -19.71504463 260.93872585 -27.125 250.3125 C-36.10784008 237.42724294 -45.02158668 224.49680542 -53.75 211.4375 C-54.16878418 210.81166016 -54.58756836 210.18582031 -55.01904297 209.54101562 C-58.56579047 204.21112993 -59.16513144 200.92329797 -59.24609375 194.58203125 C-59.27909774 192.8339806 -59.31230802 191.08593384 -59.34570312 189.33789062 C-59.3926073 186.59581903 -59.43689962 183.85375483 -59.47680664 181.11157227 C-59.89044568 154.00211566 -63.29460461 127.11677233 -82 106 C-87.628927 100.61540038 -93.82827855 96.74641517 -100.75 93.2265625 C-103 92 -103 92 -105 90 C-105.125 86.375 -105.125 86.375 -105 83 C-96.0591616 77.86128882 -87.03076895 72.93338734 -77.875 68.1875 C-75.91266343 67.16294616 -73.95042495 66.13820441 -71.98828125 65.11328125 C-67.97831524 63.02063974 -63.952733 60.96230993 -59.91796875 58.91796875 C-45.965893 51.77937891 -45.965893 51.77937891 -36 40 C-34.48037447 37.7506533 -32.93597377 35.51922769 -31.39257812 33.28613281 C-29.69064277 30.81705936 -28.00867982 28.33522298 -26.328125 25.8515625 C-22.87221084 20.7763172 -19.27089209 15.81874237 -15.60229492 10.89575195 C-13.59034418 8.19201076 -11.64174472 5.47637263 -9.81640625 2.64453125 C-6.80622655 -1.73803145 -4.93071372 -1.04908803 0 0 Z " fill="#9EAACD" transform="translate(248,22)"/>
<path d="M0 0 C3.9508932 3.33324711 6.5403713 7.08612881 9.3984375 11.36328125 C10.63526663 13.17197761 11.87225196 14.98056716 13.109375 16.7890625 C13.7497168 17.73346191 14.39005859 18.67786133 15.04980469 19.65087891 C18.33514796 24.47810644 21.68313007 29.26150973 25.0234375 34.05078125 C26.36601578 35.98298234 27.70846409 37.91527375 29.05078125 39.84765625 C32.27545523 44.4838648 35.52066632 49.10522846 38.77319336 53.72192383 C41.05108323 56.96250978 43.31357809 60.21359386 45.57128906 63.46826172 C46.86224786 65.31961992 48.17113775 67.15662747 49.484375 68.9921875 C50.13664062 69.93964844 50.78890625 70.88710938 51.4609375 71.86328125 C51.99589844 72.62253906 52.53085938 73.38179688 53.08203125 74.1640625 C54.4572573 77.65063144 53.93624819 79.9553435 53.0234375 83.55078125 C51.4140625 86.1484375 51.4140625 86.1484375 49.2734375 88.61328125 C48.46648437 89.54914063 47.65953125 90.485 46.828125 91.44921875 C42.62438815 96.13251547 38.33856752 100.74019842 34.03125 105.328125 C31.1811818 108.36872456 28.41854939 111.47426549 25.6953125 114.62890625 C23.66585677 116.96183199 21.5957905 119.2558937 19.5234375 121.55078125 C13.55046536 128.17626295 7.70721899 134.90638125 1.8984375 141.67578125 C1.39530029 142.26198242 0.89216309 142.84818359 0.3737793 143.45214844 C-2.77380868 147.12666595 -5.88693622 150.82738547 -8.9765625 154.55078125 C-10.6265625 154.22078125 -12.2765625 153.89078125 -13.9765625 153.55078125 C-14.1003125 152.79796875 -14.2240625 152.04515625 -14.3515625 151.26953125 C-18.13958361 131.76122256 -30.54359747 114.64675064 -40.7890625 97.96484375 C-46.56308294 88.48634811 -51.02696762 78.91846782 -54.9765625 68.55078125 C-55.51603516 67.28234375 -55.51603516 67.28234375 -56.06640625 65.98828125 C-57.19470957 62.96655906 -57.86955496 59.95552881 -58.5390625 56.80078125 C-58.78785156 55.6509375 -59.03664063 54.50109375 -59.29296875 53.31640625 C-60.74279204 45.32995112 -61.23068162 37.41078922 -61.3515625 29.30078125 C-61.38894531 28.33398438 -61.42632812 27.3671875 -61.46484375 26.37109375 C-61.52129166 21.817629 -61.51907264 19.33868849 -58.88671875 15.515625 C-55.58211067 13.28446008 -52.90687917 12.34121219 -49.0390625 11.36328125 C-43.08503239 9.78350134 -37.22818345 8.00245377 -31.3984375 6.01171875 C-30.73375961 5.78540268 -30.06908173 5.55908661 -29.38426208 5.32591248 C-26.68125507 4.4035666 -23.97924571 3.47878899 -21.28225708 2.53897095 C-19.36668713 1.87223838 -17.44706318 1.21718911 -15.52734375 0.5625 C-14.41012939 0.17537842 -13.29291504 -0.21174316 -12.1418457 -0.6105957 C-7.54300978 -1.82903006 -4.31138595 -2.09911311 0 0 Z " fill="#9EAACD" transform="translate(182.9765625,233.44921875)"/>
<path d="M0 0 C8.80534492 3.02776933 17.56802015 5.92676244 26.65576172 7.98925781 C31.48414139 9.18895813 34.31915106 10.59180641 37.125 14.75 C37.83550628 18.45378546 37.78650846 22.05224745 37.6875 25.8125 C37.66151733 27.41291138 37.66151733 27.41291138 37.63500977 29.0456543 C36.73259238 59.91843214 23.21329577 85.20454147 7.21484375 110.796875 C-0.6789581 123.43273214 -8.06106671 135.64661864 -9.875 150.75 C-14.01682257 150.24122941 -15.9004538 149.20849193 -18.75 146.1875 C-19.4409375 145.46046875 -20.131875 144.7334375 -20.84375 143.984375 C-23.25190136 141.33540851 -25.62586004 138.66281333 -27.9609375 135.94921875 C-30.22654569 133.34608118 -32.54803552 130.79841276 -34.875 128.25 C-37.72024228 125.13092989 -40.5469958 122.00244609 -43.3125 118.8125 C-46.74268576 114.86332633 -50.28503518 111.01977695 -53.82788086 107.17211914 C-56.9335502 103.7934708 -59.97460801 100.36898977 -62.9765625 96.8984375 C-66.00280606 93.47367627 -69.11574517 90.12767909 -72.23242188 86.78515625 C-76.11368012 82.59186455 -77.40933493 80.22680964 -77.33056641 74.34033203 C-76.42461113 69.18910723 -73.10915222 65.31669308 -70.0625 61.1875 C-69.03080688 59.73525024 -69.03080688 59.73525024 -67.97827148 58.25366211 C-66.59272094 56.30375357 -65.19935556 54.35937211 -63.79785156 52.42089844 C-61.28191349 48.92618507 -58.85762673 45.37379804 -56.4375 41.8125 C-49.90995722 32.31281559 -43.3259248 22.85197711 -36.72412109 13.40380859 C-35.06391761 11.02112945 -33.41495262 8.63117698 -31.76953125 6.23828125 C-30.88842372 4.97107394 -30.00694823 3.70412235 -29.125 2.4375 C-28.01898438 0.83455078 -28.01898438 0.83455078 -26.890625 -0.80078125 C-19.90899036 -9.28427916 -8.67463866 -3.0281579 0 0 Z " fill="#9EAACD" transform="translate(347.875,237.25)"/>
<path d="M0 0 C3.31341424 0.43519471 4.24175878 1.41590159 6.4921875 3.84375 C7.18441406 4.58109375 7.87664062 5.3184375 8.58984375 6.078125 C10.96025088 8.72713489 13.31849705 11.38325859 15.63671875 14.078125 C18.08324601 16.87691358 20.59799028 19.61061454 23.1171875 22.34375 C26.76158217 26.30213652 30.35633028 30.29552406 33.8828125 34.359375 C37.41218215 38.39748262 41.02289381 42.36349189 44.6171875 46.34375 C49.35685664 51.5923769 54.07571175 56.85367555 58.71484375 62.19140625 C61.94897727 65.85055937 65.26789127 69.433184 68.578125 73.0234375 C76.00546212 81.47523491 71.87847656 102.53589757 71.2734375 113.4296875 C71.12562341 115.56830812 70.96980571 117.70639577 70.8046875 119.84375 C70.73467529 120.83262207 70.66466309 121.82149414 70.5925293 122.84033203 C69.82054591 131.61923784 69.82054591 131.61923784 66.6171875 135.34375 C62.15361215 139.04838891 58.71410619 139.89231657 52.9921875 140.34375 C35.8125168 142.10601995 24.36883165 149.7198711 11.90234375 161.25390625 C9.73368642 163.23720826 7.53973737 165.1366338 5.2421875 166.96875 C4.63632812 167.45601562 4.03046875 167.94328125 3.40625 168.4453125 C1.6171875 169.34375 1.6171875 169.34375 -0.484375 169.1171875 C-2.3828125 168.34375 -2.3828125 168.34375 -4.3828125 166.34375 C-4.63449478 163.54199219 -4.63449478 163.54199219 -4.63677979 159.890625 C-4.63989977 159.22062469 -4.64301975 158.55062439 -4.64623427 157.86032104 C-4.65424153 155.60470911 -4.64788018 153.34936417 -4.64160156 151.09375 C-4.64431022 149.48095542 -4.64787044 147.86816208 -4.65222168 146.25537109 C-4.66136288 141.86703476 -4.65779433 137.47879214 -4.65146351 133.0904541 C-4.64641245 128.5056126 -4.65109246 123.92077931 -4.65423584 119.3359375 C-4.6578781 111.63540196 -4.65306958 103.93490473 -4.64355469 96.234375 C-4.63266964 87.32183766 -4.63619503 78.40939181 -4.6472075 69.49685669 C-4.65627298 61.85522679 -4.65756928 54.2136245 -4.65233016 46.57199097 C-4.64920638 42.00338236 -4.64881226 37.43481681 -4.65540314 32.86621094 C-4.66116526 28.57183533 -4.65720062 24.2775781 -4.64561462 19.98321533 C-4.64296194 18.40374956 -4.64374344 16.82427389 -4.64813995 15.24481201 C-4.65357304 13.09536353 -4.64678898 10.94629877 -4.63677979 8.796875 C-4.63602573 7.59192383 -4.63527168 6.38697266 -4.63449478 5.14550781 C-4.31262819 1.56244977 -3.60855149 0.52057792 0 0 Z " fill="#9EAACD" transform="translate(262.3828125,321.65625)"/>
<path d="M0 0 C2.359375 0.3984375 2.359375 0.3984375 4.359375 2.3984375 C4.61385059 5.197402 4.61385059 5.197402 4.62007141 8.84483337 C4.62580973 9.84877548 4.62580973 9.84877548 4.63166398 10.87299925 C4.64202163 13.12626777 4.6379967 15.37928278 4.6340332 17.63256836 C4.63837817 19.24374122 4.64356059 20.85491201 4.64952087 22.46607971 C4.66294555 26.85034357 4.66348569 31.23452141 4.66095757 35.61880183 C4.65989018 39.27454437 4.66476528 42.93026934 4.669563 46.58600813 C4.68067023 55.20831233 4.6810888 63.83057296 4.67504883 72.45288086 C4.66900717 81.35747617 4.68132213 90.26191355 4.7026189 99.16648191 C4.7202136 106.80303423 4.72623962 114.43953619 4.72298115 122.07610804 C4.7211647 126.6408645 4.72384034 131.20550833 4.73769569 135.77024651 C4.75023482 140.06220276 4.74836731 144.35391219 4.73528481 148.64586449 C4.73291087 150.22330049 4.73568279 151.80075366 4.74390793 153.37817001 C4.75430876 155.52742246 4.74632963 157.67583643 4.7335968 159.82505798 C4.73376454 161.02908736 4.73393229 162.23311674 4.73410511 163.47363186 C4.359375 166.3984375 4.359375 166.3984375 2.98222637 168.30927372 C1.359375 169.3984375 1.359375 169.3984375 -0.98046875 169.3984375 C-4.43767418 168.09881255 -6.63330267 165.9528563 -9.203125 163.3984375 C-23.2686176 150.00752785 -37.79150936 140.38550056 -57.66015625 139.8046875 C-62.23756506 139.18076808 -65.69603224 136.93194881 -68.640625 133.3984375 C-71.63077658 124.42798277 -71.08939641 113.77667327 -71.640625 104.3984375 C-71.71829102 103.17511719 -71.79595703 101.95179688 -71.87597656 100.69140625 C-72.08191688 97.09367686 -72.21563308 93.50018311 -72.328125 89.8984375 C-72.39588135 88.79693359 -72.4636377 87.69542969 -72.53344727 86.56054688 C-72.64780241 80.08537221 -71.68857833 76.74485747 -67.3125 71.86328125 C-65.77031501 70.35935177 -64.21390453 68.86980759 -62.640625 67.3984375 C-61.47804057 66.10075197 -60.3285386 64.79098806 -59.203125 63.4609375 C-55.54883638 59.26401669 -51.79317527 55.1619099 -48.04296875 51.05078125 C-46.07120656 48.87382754 -44.12697163 46.68005076 -42.203125 44.4609375 C-39.2417899 41.0515517 -36.19910014 37.7204944 -33.140625 34.3984375 C-29.49648171 30.43981564 -25.90148783 26.4466699 -22.375 22.3828125 C-19.61358019 19.2233502 -16.80058679 16.11134772 -13.9765625 13.0078125 C-12.36836792 11.21136771 -10.79169889 9.38636273 -9.2421875 7.5390625 C-8.46617187 6.62640625 -7.69015625 5.71375 -6.890625 4.7734375 C-5.84648437 3.51660156 -5.84648437 3.51660156 -4.78125 2.234375 C-2.640625 0.3984375 -2.640625 0.3984375 0 0 Z " fill="#9EAACD" transform="translate(244.640625,321.6015625)"/>
<path d="M0 0 C11.66646873 5.71327067 21.44726831 12.31141364 27.0390625 24.48828125 C26.84130859 26.54077148 26.84130859 26.54077148 26.0390625 28.48828125 C24.44775391 29.50561523 24.44775391 29.50561523 22.390625 30.234375 C21.6378125 30.511604 20.885 30.78883301 20.109375 31.07446289 C19.30242187 31.35539795 18.49546875 31.63633301 17.6640625 31.92578125 C16.00962841 32.53562621 14.35597808 33.14760171 12.703125 33.76171875 C11.89907227 34.0565918 11.09501953 34.35146484 10.26660156 34.65527344 C-3.2486484 39.70941996 -16.67466619 46.16722328 -23.2734375 59.73828125 C-24.77247244 63.45328087 -25.58285955 67.19671463 -26.3984375 71.11328125 C-28.46298879 80.46895842 -32.53840307 84.44344942 -40.0078125 90.1796875 C-43.47785411 92.89237876 -46.81431372 95.73645957 -50.1484375 98.61328125 C-50.71812256 99.10401123 -51.28780762 99.59474121 -51.87475586 100.1003418 C-52.43300049 100.58156494 -52.99124512 101.06278809 -53.56640625 101.55859375 C-54.39603882 102.27196899 -54.39603882 102.27196899 -55.24243164 102.99975586 C-56.45174274 104.0472299 -57.65339934 105.10357411 -58.84936523 106.16625977 C-59.46626221 106.70951904 -60.08315918 107.25277832 -60.71875 107.8125 C-61.27578613 108.30838623 -61.83282227 108.80427246 -62.40673828 109.31518555 C-63.9609375 110.48828125 -63.9609375 110.48828125 -66.6484375 111.17578125 C-70.09432571 110.151328 -71.00949343 108.49109976 -72.9609375 105.48828125 C-73.87569305 102.50744627 -74.30729327 99.51303357 -74.7109375 96.42578125 C-74.83162598 95.54889648 -74.95231445 94.67201172 -75.07666016 93.76855469 C-78.34670549 67.83945409 -74.85980536 43.80574285 -58.9609375 22.48828125 C-58.51492187 21.85792969 -58.06890625 21.22757813 -57.609375 20.578125 C-43.91107417 2.80394938 -21.56006547 -9.31122049 0 0 Z " fill="#FD004F" transform="translate(139.9609375,116.51171875)"/>
<path d="M0 0 C5.28293439 2.9776893 10.05395903 6.36032952 14.62963867 10.34375 C15.21616211 10.78847656 15.80268555 11.23320312 16.40698242 11.69140625 C30.97854082 23.02484056 38.96428381 41.8184604 42.21166992 59.515625 C43.62318866 72.44355361 43.67562366 85.99948665 40.81713867 98.71875 C40.65189697 99.45456299 40.48665527 100.19037598 40.31640625 100.94848633 C38.65414701 107.49661437 38.65414701 107.49661437 35.62963867 109.34375 C33.26245117 109.80859375 33.26245117 109.80859375 30.62963867 109.34375 C28.12182617 107.47265625 28.12182617 107.47265625 25.50463867 104.90625 C24.53428332 103.97675865 23.56156573 103.04972799 22.58666992 102.125 C21.84924561 101.42117187 21.84924561 101.42117187 21.09692383 100.703125 C18.88663459 98.65538948 16.54553538 96.78624274 14.19213867 94.90625 C10.1042407 91.58299481 6.07329204 88.21135739 2.12963867 84.71875 C1.14995117 83.86023438 0.17026367 83.00171875 -0.83911133 82.1171875 C-4.92854346 77.63648254 -6.51415452 72.90757605 -7.24536133 66.96875 C-8.71251543 58.12944967 -13.44334767 50.22207818 -20.49926758 44.66796875 C-28.77543724 38.96941529 -38.00538914 35.77251661 -47.37036133 32.34375 C-49.35307896 31.6031884 -51.3331015 30.85527762 -53.30786133 30.09375 C-54.03875977 29.82046875 -54.7696582 29.5471875 -55.52270508 29.265625 C-57.57113603 28.24357489 -58.85043182 27.03997228 -60.37036133 25.34375 C-58.02925509 15.19895631 -50.33593792 8.80000499 -41.89379883 3.4296875 C-27.48410575 -5.28333624 -15.14738853 -8.05081274 0 0 Z " fill="#FD004F" transform="translate(400.370361328125,117.65625)"/>
<path d="M0 0 C4.65483663 3.23415041 5.17691788 7.56344267 6.1875 12.8125 C6.35185547 13.59431641 6.51621094 14.37613281 6.68554688 15.18164062 C7.15358212 17.44981144 7.58369121 19.72182979 8 22 C8.29777344 23.59134766 8.29777344 23.59134766 8.6015625 25.21484375 C9.21646801 31.05644607 9.18441717 36.88029265 9.1875 42.75 C9.19974609 43.96171875 9.21199219 45.1734375 9.22460938 46.421875 C9.25467365 65.02163882 9.25467365 65.02163882 5.05126953 70.57421875 C0.95779072 73.82856388 -3.17772789 75.16058884 -8.12109375 76.734375 C-9.09861099 77.05786926 -10.07612823 77.38136353 -11.08326721 77.71466064 C-13.14443736 78.39378431 -15.20797986 79.06574468 -17.27368164 79.73095703 C-20.42786017 80.74689508 -23.57463211 81.78347614 -26.72070312 82.82421875 C-28.72876895 83.48298441 -30.73722032 84.14057623 -32.74609375 84.796875 C-33.68376083 85.10413513 -34.62142792 85.41139526 -35.58750916 85.72796631 C-45.56886791 88.93450445 -45.56886791 88.93450445 -49 89 C-51.33959961 87.71679688 -51.33959961 87.71679688 -53 85 C-53.60012087 81.51052057 -53.58408203 78.06525812 -53.56640625 74.53125 C-53.57260483 73.49995972 -53.57880341 72.46866943 -53.58518982 71.40612793 C-53.59229402 69.22063133 -53.58910357 67.03508069 -53.57641602 64.84960938 C-53.56266335 61.53931958 -53.59647778 58.23192107 -53.63476562 54.921875 C-53.69153828 39.46537321 -52.22559226 27.57367264 -41 16 C-34.18173626 9.18173626 -26.03637878 6.20021244 -17.125 2.9375 C-16.01850098 2.53080078 -14.91200195 2.12410156 -13.77197266 1.70507812 C-12.7154248 1.33705078 -11.65887695 0.96902344 -10.5703125 0.58984375 C-9.61914551 0.25847412 -8.66797852 -0.07289551 -7.68798828 -0.41430664 C-4.70862713 -1.06348806 -2.90043945 -0.87963386 0 0 Z " fill="#9EAACD" transform="translate(172,153)"/>
<path d="M0 0 C5.31140529 1.21178005 10.36794688 3.03852375 15.49926758 4.85205078 C16.58916992 5.21814453 17.67907227 5.58423828 18.80200195 5.96142578 C32.22980333 10.70919921 41.01594028 18.67373255 47.20629883 31.39501953 C48.78873966 35.15883299 49.31552646 38.44771937 49.36376953 42.52392578 C49.38302238 43.94560059 49.38302238 43.94560059 49.40266418 45.39599609 C49.41005112 46.41274414 49.41743805 47.42949219 49.42504883 48.47705078 C49.43312057 49.52731445 49.44119232 50.57757813 49.44950867 51.65966797 C49.46332626 53.87872679 49.47405879 56.09780666 49.48193359 58.31689453 C49.49920345 61.71443498 49.54311751 65.1110164 49.5871582 68.50830078 C49.59728061 70.66454363 49.60579812 72.82079474 49.61254883 74.97705078 C49.63005692 75.99379883 49.647565 77.01054687 49.66560364 78.05810547 C49.64436198 84.93967064 49.64436198 84.93967064 47.59765625 88.46142578 C42.87221519 90.94210289 38.2424971 88.7920256 33.43237305 87.31591797 C31.63718083 86.72579745 29.84447561 86.12807275 28.05395508 85.52392578 C27.0990921 85.20425842 26.14422913 84.88459106 25.16043091 84.55523682 C23.15066582 83.87936406 21.14204563 83.20007831 19.13452148 82.51757812 C16.06957997 81.47969629 12.99772247 80.46443134 9.92504883 79.44970703 C7.96755162 78.78832411 6.01050415 78.12560828 4.05395508 77.46142578 C3.1392746 77.16226257 2.22459412 76.86309937 1.28219604 76.55487061 C-3.82742731 74.78778578 -7.4327947 73.16468942 -10.81323242 68.72705078 C-13.62783556 61.24773306 -13.16274057 52.42060475 -13.12573242 44.53955078 C-13.12299316 43.35498291 -13.12025391 42.17041504 -13.11743164 40.94995117 C-13.00910603 31.83503616 -11.93485162 23.57420285 -9.81323242 14.72705078 C-9.51786713 12.83179016 -9.2257436 10.93601876 -8.93823242 9.03955078 C-7.89989245 4.00104862 -5.80662853 -0.56337852 0 0 Z " fill="#9EAACD" transform="translate(338.813232421875,152.27294921875)"/>
<path d="M0 0 C3.875 0.875 3.875 0.875 5 2 C5.0882871 3.65641552 5.10690721 5.31660089 5.09765625 6.9753418 C5.09435303 8.03702072 5.0910498 9.09869965 5.08764648 10.19255066 C5.07934814 11.34975113 5.0710498 12.5069516 5.0625 13.69921875 C5.05871338 14.88216019 5.05492676 16.06510162 5.05102539 17.28388977 C5.03462099 22.36630399 5.0066102 27.44863927 4.97949219 32.53100586 C4.96139348 36.23290637 4.94930222 39.93479366 4.9375 43.63671875 C4.92920166 44.78379807 4.92090332 45.93087738 4.91235352 47.11271667 C4.90905029 48.1901564 4.90574707 49.26759613 4.90234375 50.37768555 C4.89710693 51.32064987 4.89187012 52.2636142 4.88647461 53.2351532 C5.00929803 56.22644837 5.47132494 59.05561397 6 62 C7.75310531 82.23584417 -2.46859433 99.30992738 -14.9140625 114.453125 C-31.24899188 133.63404799 -31.24899188 133.63404799 -37.5625 134.25 C-40 134 -40 134 -42 132 C-41.72177464 125.64297205 -39.31972582 120.01376259 -37.0625 114.125 C-32.46434456 102.09905501 -30.69015966 91.34309244 -29.85494995 78.53686523 C-27.99464017 51.04754191 -27.99464017 51.04754191 -23 39 C-22.65549805 38.16662109 -22.31099609 37.33324219 -21.95605469 36.47460938 C-16.92772571 24.64374883 -10.92429469 14.10529323 -3 4 C-1.99754491 2.66851152 -0.99640803 1.33601977 0 0 Z " fill="#9DA9CC" transform="translate(109,211)"/>
<path d="M0 0 C1.8359375 0.0078125 1.8359375 0.0078125 4 1 C5.72362107 2.92924604 7.16472443 4.75966657 8.625 6.875 C9.05377441 7.48706299 9.48254883 8.09912598 9.92431641 8.72973633 C23.06087903 28.01853332 31.47622401 49.16870455 32.28955078 72.64404297 C32.95545095 91.00386184 37.27590102 107.94146374 44.19921875 124.9453125 C45.17548778 127.45027597 45.28811644 129.33492292 45 132 C43 134 43 134 40.7421875 134.44140625 C36.86932365 133.81799654 34.81579494 131.59700663 32.125 128.9375 C31.63386719 128.47150391 31.14273438 128.00550781 30.63671875 127.52539062 C29.0739953 126.03370006 27.53778567 124.51735388 26 123 C25.42862305 122.45561279 24.85724609 121.91122559 24.26855469 121.3503418 C19.98162765 117.20540891 16.40597485 112.82649425 13 107.9375 C12.48381104 107.19943115 11.96762207 106.4613623 11.43579102 105.70092773 C2.03898988 91.99253178 -5.56081937 77.2402034 -2.49241638 60.1774292 C-2.02283995 57.14737999 -1.89182988 54.36334556 -1.91821289 51.30175781 C-1.9247438 50.20752502 -1.93127472 49.11329224 -1.93800354 47.98590088 C-1.95515663 46.23717682 -1.95515663 46.23717682 -1.97265625 44.453125 C-1.98529293 41.97526176 -1.99765458 39.49739711 -2.00976562 37.01953125 C-2.0346736 33.11958398 -2.06275778 29.21971015 -2.09594727 25.31982422 C-2.12601041 21.55175283 -2.14387318 17.78377746 -2.16015625 14.015625 C-2.17361588 12.84171204 -2.1870755 11.66779907 -2.20094299 10.45831299 C-2.20432175 9.37668884 -2.2077005 8.2950647 -2.21118164 7.18066406 C-2.21863907 6.22613342 -2.2260965 5.27160278 -2.23377991 4.28814697 C-2 2 -2 2 0 0 Z " fill="#9DA9CC" transform="translate(395,211)"/>
<path d="M0 0 C0.495 0.495 0.495 0.495 1 1 C0.57019822 6.58742313 -1.0892491 11.11999588 -3.25 16.25 C-7.83820415 27.59585018 -11.27559785 39.30340416 -13 51.4375 C-14.26272566 59.74368623 -17.3376488 67.01933172 -22.4375 73.6875 C-25.70967638 78.06218073 -27.33736639 82.36485486 -29 87.5 C-31.31119772 94.61394898 -34.2495022 100.15233564 -39 106 C-39.680625 107.010625 -40.36125 108.02125 -41.0625 109.0625 C-43.57715875 111.57715875 -45.51638845 111.76248103 -49 112 C-51.50340177 109.76037615 -52.85697731 107.86357813 -53.41064453 104.52050781 C-53.58011415 101.37867917 -53.60390106 98.27125204 -53.5625 95.125 C-53.55371826 93.97620361 -53.54493652 92.82740723 -53.53588867 91.64379883 C-52.78464137 59.38448636 -39.56789107 31.84008414 -16.7109375 9.52734375 C-5.84345759 -0.60415409 -5.84345759 -0.60415409 0 0 Z " fill="#9DA9CC" transform="translate(85,229)"/>
<path d="M0 0 C5.65697085 0.60982948 9.68773186 5.58649087 13.75390625 9.296875 C14.2540625 9.75175293 14.75421875 10.20663086 15.26953125 10.67529297 C32.78367895 26.84089644 44.22262708 46.83936902 48.75390625 70.296875 C48.97691406 71.28816406 49.19992187 72.27945313 49.4296875 73.30078125 C50.92214049 80.92549004 51.02108097 88.6141088 51.12890625 96.359375 C51.15500977 97.46724365 51.18111328 98.5751123 51.20800781 99.71655273 C51.21026367 100.76528564 51.21251953 101.81401855 51.21484375 102.89453125 C51.22306152 103.83820557 51.2312793 104.78187988 51.23974609 105.75415039 C50.61006083 109.0497142 49.36303716 110.25416465 46.75390625 112.296875 C43.37627636 112.33428546 42.04424847 111.54296986 39.47265625 109.36328125 C32.83789326 101.87581104 28.82005944 94.89658722 25.87890625 85.359375 C24.17986829 79.97908811 21.73632328 75.68964143 18.53515625 71.0625 C13.94226076 63.93142543 11.93073394 57.44542618 10.44140625 49.109375 C8.84240059 40.83453667 6.89130129 32.84623299 4.19140625 24.859375 C3.91063232 24.02704346 3.6298584 23.19471191 3.34057617 22.3371582 C1.65567522 17.50365058 -0.27914963 12.85282811 -2.46142578 8.22241211 C-3.44317833 5.81323902 -3.64756992 3.86632249 -3.24609375 1.296875 C-2.24609375 0.296875 -2.24609375 0.296875 0 0 Z " fill="#9EAACC" transform="translate(424.24609375,228.703125)"/>
<path d="M0 0 C0.66 0.33 1.32 0.66 2 1 C2.7902832 3.72680664 2.7902832 3.72680664 3.55078125 7.41015625 C3.68987915 8.07672745 3.82897705 8.74329865 3.97229004 9.43006897 C4.42910604 11.63894959 4.87163175 13.85038479 5.3125 16.0625 C5.46584808 16.81875671 5.61919617 17.57501343 5.77719116 18.35418701 C9.61083785 37.28551109 12.64344822 56.33843334 15.13671875 75.4921875 C15.30260498 76.76175293 15.46849121 78.03131836 15.6394043 79.33935547 C15.9946965 82.94616067 16.20749899 86.38029535 16 90 C13.31421128 93.15044038 11.6514372 93.90619895 7.5546875 94.49609375 C6.34039062 94.47675781 5.12609375 94.45742188 3.875 94.4375 C2.65554687 94.43621094 1.43609375 94.43492187 0.1796875 94.43359375 C-3 94 -3 94 -4.82421875 92.9296875 C-17.31253332 72.43391542 -7.06805401 37.76539226 -3 16 C-2.85709534 15.23296753 -2.71419067 14.46593506 -2.56695557 13.67565918 C-1.71698181 9.11602696 -0.86105963 4.55755116 0 0 Z " fill="#9CA8CB" transform="translate(153,366)"/>
<path d="M0 0 C0.33 0 0.66 0 1 0 C1.098004 0.56740906 1.196008 1.13481812 1.29698181 1.71942139 C2.3172116 7.624456 3.33952015 13.52912803 4.36303711 19.43359375 C4.74475587 21.63727738 5.12594431 23.84105295 5.5065918 26.04492188 C6.05378084 29.21248294 6.60287547 32.37970862 7.15234375 35.546875 C7.3221727 36.53242371 7.49200165 37.51797241 7.66697693 38.53338623 C7.90711266 39.91436493 7.90711266 39.91436493 8.15209961 41.32324219 C8.29199814 42.1315448 8.43189667 42.93984741 8.57603455 43.77264404 C8.85502698 45.23836598 9.17650913 46.69673507 9.54292297 48.14308167 C12.21090067 58.98199155 10.58905412 72.91243372 8.6875 83.8125 C8.56987305 84.50432373 8.45224609 85.19614746 8.33105469 85.90893555 C7.81977345 88.48397539 7.19763814 90.67521465 5.828125 92.92578125 C2.94759647 94.61839951 0.36514041 94.39579312 -2.9375 94.375 C-4.16339844 94.38273437 -5.38929688 94.39046875 -6.65234375 94.3984375 C-10.28212375 93.96642168 -11.4708169 93.56119807 -14 91 C-15.52444637 82.1147027 -13.51301365 72.22709573 -12.3125 63.375 C-12.22452148 62.71102203 -12.13654297 62.04704407 -12.04589844 61.36294556 C-5.30406211 10.60812423 -5.30406211 10.60812423 0 0 Z " fill="#9DA9CB" transform="translate(353,366)"/>
</svg>
