<?xml version="1.0" encoding="UTF-8"?>
<svg version="1.1" xmlns="http://www.w3.org/2000/svg" width="512" height="512">
<path d="M0 0 C2.45809415 4.16484447 2.79241772 9.19063459 3.47265625 13.9140625 C3.6646183 15.19124649 3.6646183 15.19124649 3.86045837 16.49423218 C4.26687857 19.2036691 4.66517186 21.91421611 5.0625 24.625 C5.46458332 27.34272752 5.86841569 30.06017121 6.2752533 32.77719116 C6.52761424 34.46507322 6.77703753 36.15339768 7.02320862 37.8421936 C7.49315052 41.00473448 7.98669592 43.96008777 9 47 C11.0155565 48.4033574 12.98761821 49.6371982 15.11328125 50.8515625 C16.06322716 51.40894356 16.06322716 51.40894356 17.03236389 51.97758484 C19.12122268 53.20131226 21.2168822 54.41289049 23.3125 55.625 C25.49748439 56.90213963 27.6804801 58.18263134 29.86334229 59.46339417 C31.35605941 60.33906985 32.84935252 61.21376437 34.34320068 62.08750916 C41.73618849 66.41566082 49.06164145 70.85150317 56.375 75.3125 C61.23283994 78.27250731 61.23283994 78.27250731 66.09326172 81.22827148 C67.9851087 82.38139878 69.87242712 83.54199979 71.75439453 84.71118164 C76.46489166 87.6100516 80.92097836 89.94545351 86.125 91.8125 C99.08950692 96.74174832 110.75585767 103.6056734 121 113 C121.94746094 113.86625 122.89492188 114.7325 123.87109375 115.625 C142.74774821 133.65643113 149.58552965 158.78895707 150.1875 184.3125 C150.42812951 203.43578674 150.42812951 203.43578674 148.77001953 212.6953125 C147.53540187 219.67419492 147.53540187 219.67419492 149.8125 226.3046875 C151.57249572 228.37053613 153.2907388 230.2716089 155.20703125 232.171875 C167.99547614 245.12129332 176.15325542 266.45686357 180 284 C180.25604004 285.1358252 180.51208008 286.27165039 180.77587891 287.44189453 C183.20586427 299.05452176 183.59091346 310.56767832 183.61083984 322.40576172 C183.62513674 325.65608755 183.69297302 328.9027673 183.76171875 332.15234375 C183.77409663 334.23956653 183.78332698 336.3268109 183.7890625 338.4140625 C183.81578033 339.37454498 183.84249817 340.33502747 183.87002563 341.32461548 C183.81857049 346.41482552 183.32952653 349.26239204 179.68505859 352.95849609 C178.477855 353.99742387 177.2516239 355.01503856 176 356 C175.32453125 356.60328125 174.6490625 357.2065625 173.953125 357.828125 C173.39109375 358.29734375 172.8290625 358.7665625 172.25 359.25 C166.88732392 363.87905372 161.97000055 368.95904771 157 374 C151.38470736 379.69545657 145.77127455 385.31776399 139.68457031 390.51611328 C136.63745216 393.20022693 133.98341268 396.26010373 131.2734375 399.27734375 C129 401 129 401 125.87890625 401.44140625 C123 401 123 401 120.5625 398 C111.26818404 381.06035962 103.75032843 361.12008506 103.98046875 341.5625 C104.08010873 330.34480347 101.05006125 324.77407646 93.42773438 316.61621094 C91.03992382 313.91318326 89.04718654 310.96617904 87 308 C74.77632821 322.74746035 74.77632821 322.74746035 67 340 C66.83008545 340.57258545 66.6601709 341.1451709 66.48510742 341.73510742 C63.57564472 355.31894512 67.61357398 370.14442282 70 383.5 C74.64659086 409.50453659 74.64659086 409.50453659 74 423 C73.95285873 425.01374652 73.90582035 427.02749911 73.86343384 429.04135132 C73.80178987 431.74700551 73.7158924 434.45159327 73.62768555 437.15649414 C73.56130761 439.22465162 73.50224831 441.2929453 73.44335938 443.36132812 C73.40146484 444.67939453 73.35957031 445.99746094 73.31640625 447.35546875 C73.27974854 448.53778076 73.24309082 449.72009277 73.20532227 450.93823242 C72.86636011 455.99283924 72.86636011 455.99283924 72 458 C70.0925293 459.4128418 70.0925293 459.4128418 67.57421875 460.69921875 C66.64262939 461.18173096 65.71104004 461.66424316 64.7512207 462.16137695 C63.74019287 462.66499756 62.72916504 463.16861816 61.6875 463.6875 C60.64875732 464.21496826 59.61001465 464.74243652 58.53979492 465.28588867 C30.85584181 479.21963174 1.83053136 490.57677602 -29 495 C-29.89460937 495.13148438 -30.78921875 495.26296875 -31.7109375 495.3984375 C-76.45067877 500.89800702 -125.51072781 481.99762075 -163 459 C-170.38952579 451.61047421 -167.34211556 427.58932408 -167.34449768 417.6156311 C-167.13459823 403.62291742 -164.57761031 389.94423116 -161.89672852 376.24487305 C-158.32563441 357.91799957 -156.24810729 341.39136584 -167 325 C-169.25839511 321.89073067 -171.55978908 318.83412877 -173.9140625 315.796875 C-175.79657584 313.27275599 -177.43596454 310.72959054 -179 308 C-180.62685072 309.78307149 -182.21604271 311.58794564 -183.78125 313.42578125 C-185.35917004 315.25650186 -186.9906512 317.0416406 -188.65625 318.79296875 C-196.24245356 327.16156323 -196.97709621 333.70692134 -196.95166016 344.72998047 C-197.31225592 361.663412 -203.68214974 388.68214974 -216 401 C-219.58210073 401.40637277 -221.35149143 401.49139567 -224.2734375 399.27734375 C-224.96695313 398.50519531 -225.66046875 397.73304688 -226.375 396.9375 C-229.1713234 393.93976637 -231.93618618 391.0908744 -235.0625 388.4375 C-238.55653675 385.44162294 -241.77610076 382.24298539 -245.00390625 378.96484375 C-246.92107177 377.07769256 -248.89575322 375.31314625 -250.9375 373.5625 C-254.74544329 370.29109667 -258.24564064 366.77163109 -261.76953125 363.19921875 C-264.40334881 360.60230231 -267.15361548 358.18420656 -269.98046875 355.80078125 C-270.64691406 355.20652344 -271.31335938 354.61226563 -272 354 C-273.01739258 353.19151611 -274.03478516 352.38303223 -275.08300781 351.55004883 C-278.52218865 348.07092882 -278.70874147 345.12487627 -278.75672913 340.36239624 C-278.73517258 339.38428986 -278.71361603 338.40618347 -278.69140625 337.3984375 C-278.69003159 336.36675446 -278.68865692 335.33507141 -278.6872406 334.27212524 C-278.67818893 332.08495761 -278.65457629 329.89780844 -278.61743164 327.7109375 C-278.5634742 324.43416234 -278.55589784 321.15998086 -278.55664062 317.8828125 C-278.40304689 287.39062658 -272.77714235 258.17206287 -253 234 C-251.13604975 232.44499178 -249.26120778 230.90293368 -247.375 229.375 C-244.09762158 226.25946742 -242.7326837 224.18006542 -242.59375 219.71875 C-242.73543933 215.57742199 -243.21377252 211.48256056 -243.73193359 207.37353516 C-246.58232212 182.13539555 -242.26126896 147.91103895 -227 127 C-224.13546393 123.52799375 -221.10920759 120.25279444 -218 117 C-217.47019531 116.39542969 -216.94039062 115.79085937 -216.39453125 115.16796875 C-206.37434821 104.16895035 -191.46264163 96.8865837 -177.93774414 91.12084961 C-171.39970789 88.32826529 -165.32418787 84.89211749 -159.1875 81.3125 C-158.06819092 80.6632959 -156.94888184 80.0140918 -155.7956543 79.34521484 C-146.037497 73.66907987 -136.36346671 67.85135942 -126.74926758 61.93481445 C-121.87496902 58.93786945 -117.01122666 55.95773357 -111.97265625 53.2421875 C-111.26262451 52.85144043 -110.55259277 52.46069336 -109.82104492 52.05810547 C-108.05710212 51.09901274 -106.27551333 50.17255193 -104.4921875 49.25 C-101.81284889 46.83103599 -101.59588276 46.27162928 -100.93408203 42.91577148 C-100.77336212 42.11090302 -100.61264221 41.30603455 -100.447052 40.47677612 C-99.7637261 36.69098551 -99.13883296 32.9011551 -98.5625 29.09765625 C-98.30499898 27.44982109 -98.04717751 25.80203597 -97.7890625 24.15429688 C-97.39065471 21.59158573 -96.99483184 19.02855284 -96.60449219 16.46459961 C-96.22276603 13.96609295 -95.83092597 11.46934341 -95.4375 8.97265625 C-95.322854 8.20188248 -95.20820801 7.4311087 -95.09008789 6.63697815 C-94.22702519 1.22702519 -94.22702519 1.22702519 -92 -1 C-65.30923112 -8.89864292 -25.29008801 -13.70570122 0 0 Z " fill="#49506A" transform="translate(302,12)"/>
<path d="M0 0 C4.76662096 1.77145816 6.562098 5.05357611 9.3203125 9.1875 C9.88089355 9.99550049 10.44147461 10.80350098 11.01904297 11.63598633 C12.18515284 13.31834787 13.34410601 15.00569102 14.49609375 16.69775391 C16.08459471 19.02527298 17.69504373 21.3347716 19.3203125 23.63671875 C19.81732666 24.34086914 20.31434082 25.04501953 20.82641602 25.77050781 C21.82746835 27.18071718 22.83322306 28.58759957 23.84350586 29.99121094 C26.21651015 33.30209309 28.47288636 36.60087045 30.51171875 40.12890625 C37.78704587 52.16111918 48.5156516 56.77858348 60.93847656 62.62011719 C66.01988852 65.06559431 70.94962399 67.7706073 75.8828125 70.5 C76.78322266 70.99733643 77.68363281 71.49467285 78.61132812 72.00708008 C80.33487142 72.95927077 82.05787749 73.91243469 83.78027344 74.86669922 C86.05255826 76.10942677 88.34112877 77.31248172 90.640625 78.50390625 C91.92975069 79.18998544 93.21881805 79.87617426 94.5078125 80.5625 C95.59707031 81.12710938 96.68632812 81.69171875 97.80859375 82.2734375 C100.1953125 84.1875 100.1953125 84.1875 101.30078125 87.1640625 C101.1953125 90.1875 101.1953125 90.1875 99.578125 92.39453125 C97.15068488 94.22108046 94.80115554 95.54938669 92.0703125 96.875 C76.22814964 105.28190776 66.37535866 120.1327878 60.4453125 136.6875 C56.65298811 149.2817625 55.05283645 161.75266709 55.23828125 174.85546875 C55.24841248 175.62618713 55.2585437 176.39690552 55.26898193 177.190979 C55.3146463 180.39681563 55.36396236 183.6021444 55.44213867 186.80737305 C55.83864938 203.95083391 55.83864938 203.95083391 51.1953125 210.1875 C50.78450439 210.80729736 50.37369629 211.42709473 49.95043945 212.06567383 C48.59685405 214.07882083 47.18656609 216.03958431 45.7578125 218 C44.6797344 219.50300673 43.6029568 221.00694695 42.52734375 222.51171875 C41.9751416 223.28306152 41.42293945 224.0544043 40.85400391 224.84912109 C38.16772649 228.63616335 35.55671059 232.47361143 32.9453125 236.3125 C27.35889573 244.5108913 21.70436677 252.66029755 16.03222656 260.79956055 C10.38540604 268.90532476 4.77834068 277.03769827 -0.8046875 285.1875 C-2.4546875 284.8575 -4.1046875 284.5275 -5.8046875 284.1875 C-5.96853335 261.22109533 -6.09180713 238.25478766 -6.1673727 215.28791618 C-6.20339876 204.62289718 -6.25247665 193.95824227 -6.33276367 183.29345703 C-6.40274478 173.9931704 -6.4477449 164.69314758 -6.46330696 155.39260495 C-6.47239748 150.47226922 -6.4936159 145.55268791 -6.5447979 140.63259506 C-6.59268056 135.99160686 -6.60689484 131.35167625 -6.59644127 126.71046448 C-6.59835071 125.01665096 -6.61205508 123.32279824 -6.63912582 121.62919998 C-6.82425358 109.43856942 -5.00899795 100.02206429 2.78997135 90.17382622 C4.28515625 88.6328125 4.28515625 88.6328125 7.1328125 86.3125 C8.09058594 85.51070313 9.04835938 84.70890625 10.03515625 83.8828125 C10.74800781 83.32335937 11.46085937 82.76390625 12.1953125 82.1875 C11.3496875 81.1975 10.5040625 80.2075 9.6328125 79.1875 C8.81490234 78.22457031 8.81490234 78.22457031 7.98046875 77.2421875 C6.80628603 75.89072117 5.60599549 74.56142989 4.37890625 73.2578125 C-4.92501015 63.25057628 -5.95208185 53.28056203 -6.0078125 40.109375 C-6.01351257 39.0609845 -6.01921265 38.01259399 -6.02508545 36.93243408 C-6.03449397 34.72710163 -6.04105284 32.52175538 -6.04492188 30.31640625 C-6.05469573 26.93465197 -6.0857854 23.55348867 -6.1171875 20.171875 C-6.12371173 18.02604526 -6.12896447 15.8802112 -6.1328125 13.734375 C-6.1513327 12.21562775 -6.1513327 12.21562775 -6.17022705 10.66619873 C-6.16722595 9.72802307 -6.16422485 8.78984741 -6.16113281 7.82324219 C-6.16477844 6.99830261 -6.16842407 6.17336304 -6.17218018 5.32342529 C-5.51152713 1.48360575 -3.78608519 0.25310876 0 0 Z " fill="#9EAACD" transform="translate(264.8046875,20.8125)"/>
<path d="M0 0 C5.09803922 0.09803922 5.09803922 0.09803922 7 2 C7.11949364 3.59292867 7.1701265 5.19108772 7.19287109 6.78833008 C7.20893402 7.8106221 7.22499695 8.83291412 7.24154663 9.88618469 C7.28608088 14.6108848 7.32714186 19.33544109 7.35009766 24.06030273 C7.36656915 26.54216954 7.39374058 29.02399067 7.43212891 31.50561523 C7.48735078 35.09383641 7.50885081 38.68094025 7.5234375 42.26953125 C7.54610687 43.36376907 7.56877625 44.4580069 7.59213257 45.58540344 C7.55996778 57.5140498 3.0915585 67.30512354 -5 76 C-6.93570076 77.80835203 -8.88321584 79.39950466 -11 81 C-10.319375 81.680625 -9.63875 82.36125 -8.9375 83.0625 C-8.48117188 83.5265625 -8.02484375 83.990625 -7.5546875 84.46875 C-6.50702403 85.50061955 -5.42729114 86.50078729 -4.3203125 87.46875 C2.65406262 93.79218344 7.10975195 101.59461296 7.66268802 111.07984686 C7.76816013 115.01755188 7.73425133 118.94746637 7.68115234 122.88574219 C7.67945673 124.66088808 7.68041608 126.43603818 7.68380737 128.21118164 C7.68551824 132.99581802 7.65041689 137.77953895 7.60836363 142.56396389 C7.57067677 147.57671314 7.56731717 152.58948689 7.56021118 157.60235596 C7.54161488 167.07947003 7.49244883 176.55616534 7.43211424 186.0330956 C7.36488626 196.82875606 7.33201923 207.62443726 7.30194163 218.42025518 C7.23934488 240.61373655 7.13391185 262.80684182 7 285 C4.61933899 285.12678528 4.61933899 285.12678528 2 285 C0.09057617 282.97143555 0.09057617 282.97143555 -1.70703125 280.13671875 C-2.37669922 279.10353516 -3.04636719 278.07035156 -3.73632812 277.00585938 C-4.42146484 275.91080078 -5.10660156 274.81574219 -5.8125 273.6875 C-7.1708133 271.56489175 -8.53148385 269.44379007 -9.89453125 267.32421875 C-10.56991943 266.26936279 -11.24530762 265.21450684 -11.94116211 264.12768555 C-14.56035251 260.14873996 -17.3487823 256.31390138 -20.17602539 252.48120117 C-22.63063529 249.14213005 -24.97903587 245.73678724 -27.3125 242.3125 C-28.25252934 240.93875088 -29.19263582 239.56505454 -30.1328125 238.19140625 C-30.60493164 237.50062988 -31.07705078 236.80985352 -31.56347656 236.09814453 C-32.99378548 234.00907675 -34.42946044 231.92381194 -35.8671875 229.83984375 C-40.14476725 223.63945032 -44.41021624 217.43078931 -48.625 211.1875 C-49.25664062 210.25292969 -49.88828125 209.31835938 -50.5390625 208.35546875 C-53.37766644 203.77878914 -53.15100167 199.46933478 -53.17578125 194.2578125 C-53.19560719 192.46067912 -53.21673374 190.66355971 -53.23901367 188.86645508 C-53.25016205 187.9276651 -53.26131042 186.98887512 -53.27279663 186.02163696 C-53.66577627 157.3510389 -55.92400937 128.37628697 -76.5546875 106.16796875 C-82.36341734 101.01805651 -89.20831271 97.24500994 -95.86328125 93.3046875 C-98 92 -98 92 -99 91 C-99.46711212 85.62821063 -99.46711212 85.62821063 -97.91479492 83.54052734 C-95.19978759 81.35619785 -92.19532661 79.81924097 -89.11328125 78.2265625 C-88.42730362 77.86646088 -87.74132599 77.50635925 -87.03456116 77.13534546 C-85.56132474 76.3625249 -84.08684954 75.59206216 -82.61126709 74.82373047 C-80.29831517 73.61760309 -77.99055228 72.40206514 -75.68408203 71.18359375 C-68.70899753 67.50155237 -61.72163475 63.84913169 -54.69140625 60.2734375 C-52.5858884 59.18238642 -50.48041608 58.09124746 -48.375 57 C-47.43052002 56.53416504 -46.48604004 56.06833008 -45.51293945 55.58837891 C-38.56000359 51.94989774 -34.46691129 47.39165829 -30 41 C-29.45714355 40.23268555 -28.91428711 39.46537109 -28.35498047 38.67480469 C-26.7935683 36.42492278 -25.26830624 34.15415175 -23.75 31.875 C-19.47092028 25.5376527 -15.09592346 19.29953003 -10.5 13.1875 C-10.02014648 12.5486084 -9.54029297 11.9097168 -9.04589844 11.25146484 C-7.71084351 9.48999919 -6.35796627 7.74383234 -5 6 C-4.55817383 5.41226807 -4.11634766 4.82453613 -3.66113281 4.21899414 C-2.359375 2.546875 -2.359375 2.546875 0 0 Z " fill="#9EAACD" transform="translate(243,21)"/>
<path d="M0 0 C3.52117761 2.92192707 5.80882242 5.98947304 8.3359375 9.76953125 C8.84141113 10.50518311 9.34688477 11.24083496 9.86767578 11.9987793 C10.97709467 13.61355566 12.08221603 15.23129089 13.18359375 16.8515625 C15.69829611 20.53795035 18.25247108 24.19638686 20.80493164 27.85668945 C22.84852671 30.78758653 24.88753427 33.72163178 26.92578125 36.65625 C30.14551658 41.28843463 33.37477636 45.91380485 36.61352539 50.53271484 C37.78912187 52.21177085 38.96156952 53.8930366 40.13061523 55.57666016 C42.64654719 59.19516985 45.18079614 62.77908796 47.8671875 66.2734375 C48.51602905 67.1394458 48.51602905 67.1394458 49.17797852 68.02294922 C50.2953945 69.50762155 51.43753116 70.97360453 52.58203125 72.4375 C54.54102992 76.72731861 54.4505177 79.99691479 52.9609375 84.45703125 C51.08648763 87.34549884 48.80877464 89.63714839 46.3359375 92.01953125 C45.04363454 93.33140475 43.75195949 94.64389711 42.4609375 95.95703125 C41.84605469 96.56933594 41.23117188 97.18164062 40.59765625 97.8125 C38.76628364 99.65261424 37.03094644 101.55332088 35.3359375 103.51953125 C34.82160156 104.11507812 34.30726563 104.710625 33.77734375 105.32421875 C32.75298029 106.52701971 31.72903938 107.73018178 30.70654297 108.93457031 C24.64053153 116.07725137 18.50356924 123.11771884 12.1171875 129.9765625 C8.9074972 133.42400763 5.7663906 136.91623579 2.6875 140.48046875 C-0.19862794 143.78449757 -3.1648062 147.01658157 -6.12109375 150.2578125 C-8.16425742 152.50525644 -8.16425742 152.50525644 -10.0390625 155.45703125 C-11.98046875 154.73046875 -11.98046875 154.73046875 -14.0390625 153.45703125 C-14.69140625 151.49609375 -14.69140625 151.49609375 -14.9765625 149.08203125 C-17.68997775 132.98550009 -28.07467178 118.54062358 -36.6015625 104.95703125 C-41.9903528 96.35270124 -46.77450895 87.66643618 -51.0390625 78.45703125 C-51.51859375 77.48378906 -51.998125 76.51054687 -52.4921875 75.5078125 C-59.23500432 60.94576534 -61.13478578 43.6258041 -61.4140625 27.70703125 C-61.45144531 26.88332031 -61.48882812 26.05960937 -61.52734375 25.2109375 C-61.58840353 20.99781249 -61.44937337 19.03453421 -58.94921875 15.515625 C-55.63991972 13.17468462 -53.03136453 12.26313445 -49.1015625 11.26953125 C-43.14753239 9.68975134 -37.29068345 7.90870377 -31.4609375 5.91796875 C-30.79625961 5.69165268 -30.13158173 5.46533661 -29.44676208 5.23216248 C-26.74375507 4.3098166 -24.04174571 3.38503899 -21.34475708 2.44522095 C-19.42918713 1.77848838 -17.50956318 1.12343911 -15.58984375 0.46875 C-14.47262939 0.08162842 -13.35541504 -0.30549316 -12.2043457 -0.7043457 C-7.53219706 -1.94220383 -4.34582385 -2.20642728 0 0 Z " fill="#9EAACD" transform="translate(184.0390625,233.54296875)"/>
<path d="M0 0 C8.06162029 2.98334177 16.21954017 5.5298241 24.45483398 7.98852539 C26.28765234 8.5364979 28.11917175 9.08883815 29.94921875 9.64599609 C31.67651149 10.16915408 33.40833879 10.67759153 35.14453125 11.17041016 C38.34325183 12.12834687 40.95042391 12.9646917 43.60546875 15.015625 C45.18078933 19.00215054 44.95803584 22.94474605 44.875 27.1875 C44.85808105 28.59334351 44.85808105 28.59334351 44.84082031 30.02758789 C44.2532962 60.28765634 32.55101646 85.05099322 16.70141602 110.17285156 C8.28556314 123.53870887 0.47115205 136.71259988 -2.4375 152.4375 C-4.19921875 153.15234375 -4.19921875 153.15234375 -6.4375 153.4375 C-8.33203125 152.06640625 -8.33203125 152.06640625 -10.25 150 C-10.95125 149.25363281 -11.6525 148.50726563 -12.375 147.73828125 C-14.75888432 145.07898605 -17.12795563 142.41060878 -19.45703125 139.703125 C-21.90355768 136.90433737 -24.41826721 134.17060183 -26.9375 131.4375 C-30.53785014 127.52789134 -34.08168073 123.57882993 -37.5625 119.5625 C-39.98300075 116.81926582 -42.45950642 114.12865432 -44.9375 111.4375 C-48.53015944 107.53579459 -52.06928806 103.59733527 -55.5390625 99.5859375 C-58.56530606 96.16117627 -61.67824517 92.81517909 -64.79492188 89.47265625 C-68.8183796 85.12573296 -69.89263024 82.75552826 -69.80859375 76.90332031 C-69.13689402 72.4400524 -66.60008416 69.35147008 -63.9375 65.8125 C-62.73678218 64.13946427 -61.53627047 62.46628061 -60.3359375 60.79296875 C-59.69881836 59.92075684 -59.06169922 59.04854492 -58.40527344 58.14990234 C-55.05091493 53.52621463 -51.81521315 48.82044882 -48.5625 44.125 C-47.21097025 42.18617508 -45.85940757 40.24737313 -44.5078125 38.30859375 C-40.44378988 32.46229333 -36.43776749 26.57752302 -32.4375 20.6875 C-30.10828069 17.26800782 -27.77531086 13.85112404 -25.4375 10.4375 C-24.98842285 9.78136719 -24.5393457 9.12523437 -24.07666016 8.44921875 C-22.97838394 6.85461892 -21.86504922 5.27041645 -20.75 3.6875 C-20.18925781 2.88828125 -19.62851562 2.0890625 -19.05078125 1.265625 C-13.61172735 -4.89775811 -6.81088655 -2.62768714 0 0 Z " fill="#9EAACD" transform="translate(341.4375,234.5625)"/>
<path d="M0 0 C3.51999316 0.49840611 4.61372896 1.80000459 7.0234375 4.375 C8.19712891 5.61636719 8.19712891 5.61636719 9.39453125 6.8828125 C11.88299883 9.63435897 14.35281522 12.39610815 16.76953125 15.2109375 C19.02124631 17.80438894 21.33238468 20.33886976 23.6484375 22.875 C26.49367978 25.99407011 29.3204333 29.12255391 32.0859375 32.3125 C35.0472726 35.7218858 38.08996236 39.0529431 41.1484375 42.375 C44.79325565 46.33435496 48.39103983 50.32627888 51.9140625 54.39453125 C53.92108288 56.68633155 55.97246601 58.93496752 58.0234375 61.1875 C73.28739151 78.10373769 73.28739151 78.10373769 72.54241943 93.57702637 C72.26201784 98.5933755 71.90920041 103.60340775 71.53149414 108.61328125 C71.33483241 111.26490014 71.1565986 113.91738918 70.97851562 116.5703125 C70.852691 118.27352124 70.72577678 119.97664992 70.59765625 121.6796875 C70.54751877 122.46415253 70.49738129 123.24861755 70.44572449 124.05685425 C70.0651122 128.77429414 69.1909703 132.26335455 66.6484375 136.375 C62.77326576 139.33236791 59.23952244 139.5530025 54.5234375 139.8125 C36.64612592 140.86888659 24.1341925 150.45329887 11.3046875 161.90722656 C8.19912338 164.65938628 5.14395152 167.13259478 1.6484375 169.375 C-1.32276387 169.02938183 -2.19323496 168.53332754 -4.3515625 166.375 C-4.60324478 163.57324219 -4.60324478 163.57324219 -4.60552979 159.921875 C-4.60864977 159.25187469 -4.61176975 158.58187439 -4.61498427 157.89157104 C-4.62299153 155.63595911 -4.61663018 153.38061417 -4.61035156 151.125 C-4.61306022 149.51220542 -4.61662044 147.89941208 -4.62097168 146.28662109 C-4.63011288 141.89828476 -4.62654433 137.51004214 -4.62021351 133.1217041 C-4.61516245 128.5368626 -4.61984246 123.95202931 -4.62298584 119.3671875 C-4.6266281 111.66665196 -4.62181958 103.96615473 -4.61230469 96.265625 C-4.60141964 87.35308766 -4.60494503 78.44064181 -4.6159575 69.52810669 C-4.62502298 61.88647679 -4.62631928 54.2448745 -4.62108016 46.60324097 C-4.61795638 42.03463236 -4.61756226 37.46606681 -4.62415314 32.89746094 C-4.62991526 28.60308533 -4.62595062 24.3088281 -4.61436462 20.01446533 C-4.61171194 18.43499956 -4.61249344 16.85552389 -4.61688995 15.27606201 C-4.62232304 13.12661353 -4.61553898 10.97754877 -4.60552979 8.828125 C-4.60477573 7.62317383 -4.60402168 6.41822266 -4.60324478 5.17675781 C-4.28301408 1.61191068 -3.58011845 0.5709159 0 0 Z " fill="#9EAACD" transform="translate(263.3515625,321.625)"/>
<path d="M0 0 C2.4296875 0.328125 2.4296875 0.328125 4.4296875 2.328125 C4.68416309 5.14550018 4.68416309 5.14550018 4.69038391 8.81921387 C4.69612223 9.83033965 4.69612223 9.83033965 4.70197648 10.86189222 C4.71233431 13.13131369 4.70830918 15.40048346 4.7043457 17.66992188 C4.70869061 19.29256933 4.71387302 20.91521473 4.71983337 22.53785706 C4.73325754 26.95304436 4.73379833 31.36814625 4.73127007 35.78334999 C4.7302028 39.46404003 4.73507738 43.14471261 4.7398755 46.82539892 C4.75098222 55.50519451 4.75140136 64.18494683 4.74536133 72.86474609 C4.73931754 81.83184494 4.75164014 90.79878703 4.7729314 99.76585913 C4.79051808 107.45419999 4.79655346 115.14249083 4.79329365 122.83085108 C4.79147616 127.42743342 4.79416322 132.02390393 4.80800819 136.62046814 C4.8205346 140.94114795 4.81869204 145.26158242 4.80559731 149.58225822 C4.8032207 151.17140216 4.80600472 152.7605631 4.81422043 154.34968758 C4.82459874 156.51242648 4.81666065 158.67432841 4.8039093 160.83703613 C4.80407704 162.04936165 4.80424479 163.26168716 4.80441761 164.51074982 C4.68075667 165.44048363 4.55709574 166.37021744 4.4296875 167.328125 C1.4296875 169.328125 1.4296875 169.328125 -0.4453125 169.19921875 C-3.28119531 168.03671532 -5.23099633 166.37138527 -7.5703125 164.390625 C-8.54097656 163.58109375 -9.51164062 162.7715625 -10.51171875 161.9375 C-12.53973901 160.21864103 -14.53904681 158.4755367 -16.53515625 156.71875 C-27.64119359 147.0867071 -39.48520338 140.66346194 -54.3203125 139.890625 C-59.7387741 139.5655173 -62.61352919 139.07665656 -66.5703125 135.328125 C-73.80928718 126.84105124 -71.21464055 107.93203075 -71.5703125 97.328125 C-71.60576172 96.39967773 -71.64121094 95.47123047 -71.67773438 94.51464844 C-71.76948397 91.9316165 -71.83136064 89.34973731 -71.8828125 86.765625 C-71.9125415 85.99935791 -71.94227051 85.23309082 -71.97290039 84.44360352 C-72.06833518 75.46570105 -66.08032133 70.51222735 -60.2578125 64.453125 C-55.77838842 59.76125599 -51.38130461 55.02880087 -47.13110352 50.12744141 C-45.17969536 47.87781242 -43.19129536 45.66323629 -41.1953125 43.453125 C-40.05835938 42.19242187 -40.05835938 42.19242187 -38.8984375 40.90625 C-37.34635417 39.1875 -35.79427083 37.46875 -34.2421875 35.75 C-30.86646228 32.00684891 -27.49893815 28.26016028 -24.1953125 24.453125 C-20.74815562 20.49290291 -17.20187143 16.62526297 -13.63085938 12.77685547 C-10.31921084 9.19610686 -7.19388188 5.5082196 -4.203125 1.65625 C-2.5703125 0.328125 -2.5703125 0.328125 0 0 Z " fill="#9EAACD" transform="translate(245.5703125,321.671875)"/>
<path d="M0 0 C8.06433201 5.14967069 15.03468491 11.00060414 18.6875 20.125 C18.47387695 22.16162109 18.47387695 22.16162109 17.6875 24.125 C16.09619141 25.14233398 16.09619141 25.14233398 14.0390625 25.87109375 C13.28625 26.14832275 12.5334375 26.42555176 11.7578125 26.71118164 C10.95085937 26.9921167 10.14390625 27.27305176 9.3125 27.5625 C7.65806591 28.17234496 6.00441558 28.78432046 4.3515625 29.3984375 C3.54750977 29.69331055 2.74345703 29.98818359 1.91503906 30.29199219 C-11.6002109 35.34613871 -25.02622869 41.80394203 -31.625 55.375 C-33.12403494 59.08999962 -33.93442205 62.83343338 -34.75 66.75 C-36.84524797 76.24478159 -41.04600516 80.19433086 -48.62890625 86.01953125 C-53.0582432 89.49465878 -57.15132518 93.33717692 -61.3125 97.125 C-62.78747427 98.44220962 -64.26630932 99.75511626 -65.75 101.0625 C-66.36746094 101.60777344 -66.98492187 102.15304688 -67.62109375 102.71484375 C-69.94047279 104.64855237 -71.74371997 106.02291128 -74.75 106.5625 C-77.3125 106.125 -77.3125 106.125 -79.5 104.25 C-81.97069412 99.99018255 -82.63269137 95.96237509 -83.3125 91.125 C-83.42464844 90.39796875 -83.53679687 89.6709375 -83.65234375 88.921875 C-86.72049194 64.88104263 -83.5451458 39.35190536 -68.4375 19.6875 C-67.08776589 18.14419937 -65.71216728 16.62316239 -64.3125 15.125 C-63.57515625 14.29742187 -62.8378125 13.46984375 -62.078125 12.6171875 C-55.60046759 5.69498498 -48.40269295 0.91088523 -40.3125 -3.875 C-39.59320313 -4.35324219 -38.87390625 -4.83148438 -38.1328125 -5.32421875 C-25.96932595 -12.76326095 -11.13067072 -6.32154123 0 0 Z " fill="#9EAACD" transform="translate(149.3125,120.875)"/>
<path d="M0 0 C19.66292381 11.15732118 32.67590992 26.99845807 39.90820312 48.54833984 C40.32070313 49.76521484 40.73320312 50.98208984 41.15820312 52.23583984 C44.81848215 68.40207222 45.33871321 89.74312394 39.90820312 105.54833984 C37.90071668 108.25408245 36.79561872 109.34166162 33.50976562 110.10693359 C29.84966259 109.32105562 27.84155084 107.17932799 25.28320312 104.61083984 C24.22177256 103.59013878 23.15792274 102.57194816 22.09179688 101.55615234 C21.29298096 100.79093262 21.29298096 100.79093262 20.47802734 100.01025391 C18.19396365 97.88319739 15.78145974 95.93584299 13.34570312 93.98583984 C-5.02298276 79.08294375 -5.02298276 79.08294375 -7.02929688 67.11083984 C-8.58992191 57.8359057 -12.91443066 50.65896631 -20.29101562 44.80224609 C-27.9424973 39.5411201 -36.38109103 36.47835248 -45.03759766 33.30322266 C-47.73482935 32.31203649 -50.41633551 31.28427898 -53.09179688 30.23583984 C-54.20554687 29.80851562 -54.20554687 29.80851562 -55.34179688 29.37255859 C-57.09179688 28.54833984 -57.09179688 28.54833984 -59.09179688 26.54833984 C-59.42996851 21.13759364 -57.62207137 18.58998046 -54.09179688 14.54833984 C-39.28548535 -0.76773514 -20.42931872 -10.83894316 0 0 Z " fill="#9EAACD" transform="translate(401.091796875,117.45166015625)"/>
<path d="M0 0 C5.02916871 0.89798576 9.77838245 2.71209904 14.56542969 4.45361328 C15.65082031 4.82421875 16.73621094 5.19482422 17.85449219 5.57666016 C31.19379123 10.36946386 39.97944291 18.33908181 46.20996094 30.96142578 C47.85349118 35.03423777 48.31578138 38.9491178 48.36743164 43.31738281 C48.38668449 44.74378586 48.38668449 44.74378586 48.40632629 46.19900513 C48.41371323 47.21372894 48.42110016 48.22845276 48.42871094 49.27392578 C48.43678268 50.32514618 48.44485443 51.37636658 48.45317078 52.45944214 C48.46697306 54.67672085 48.47771237 56.89402047 48.4855957 59.11132812 C48.50290356 62.51098076 48.54683504 65.90968409 48.59082031 69.30908203 C48.60093971 71.46402281 48.60945816 73.61897182 48.61621094 75.77392578 C48.63371902 76.79269806 48.65122711 77.81147034 48.66926575 78.8611145 C48.66634018 79.80574554 48.66341461 80.75037659 48.66040039 81.72363281 C48.66626663 82.5546048 48.67213287 83.38557678 48.67817688 84.24172974 C48.19042969 86.39111328 48.19042969 86.39111328 46.35585022 88.18984985 C42.50544354 90.32585653 38.96395233 88.89515261 34.90667725 87.74206543 C32.27565716 86.93051088 29.66644626 86.06824413 27.05761719 85.18798828 C26.10275421 84.86832092 25.14789124 84.54865356 24.16409302 84.21929932 C22.15432793 83.54342656 20.14570774 82.86414081 18.13818359 82.18164062 C15.07324208 81.14375879 12.00138458 80.12849384 8.92871094 79.11376953 C6.97121373 78.45238661 5.01416626 77.78967078 3.05761719 77.12548828 C2.14293671 76.82632507 1.22825623 76.52716187 0.28585815 76.21893311 C-4.82214175 74.45240973 -8.43622169 72.8327309 -11.80957031 68.39111328 C-14.34147463 61.47893359 -14.13147628 53.54799972 -14.05957031 46.26611328 C-14.05352783 45.2698291 -14.04748535 44.27354492 -14.04125977 43.24707031 C-13.61703229 11.19604186 -13.61703229 11.19604186 -7.14550781 2.03564453 C-4.63826018 0.27050866 -3.05775747 -0.18815716 0 0 Z " fill="#9EAACD" transform="translate(340.8095703125,152.60888671875)"/>
<path d="M0 0 C9.38055349 9.23623728 8.06626439 32.13599828 8.18286133 44.45141602 C8.18996175 48.63954297 8.17534773 52.81497666 8 57 C7.9685791 57.79229004 7.9371582 58.58458008 7.90478516 59.40087891 C7.84983887 60.17222168 7.79489258 60.94356445 7.73828125 61.73828125 C7.69356689 62.41544189 7.64885254 63.09260254 7.6027832 63.7902832 C6.66154242 67.24073698 5.33439072 69.26665299 3 72 C0.07938575 73.60884446 -2.97420361 74.58222697 -6.1484375 75.578125 C-7.03858551 75.8756366 -7.92873352 76.17314819 -8.84585571 76.47967529 C-11.68282456 77.42287742 -14.52827036 78.33673445 -17.375 79.25 C-19.28188405 79.87828721 -21.18814256 80.50847638 -23.09375 81.140625 C-27.36132936 82.55227108 -31.6343094 83.94570906 -35.91400146 85.32019043 C-37.7363044 85.9140638 -39.548149 86.53983733 -41.35791016 87.17089844 C-44.73058914 88.22926268 -47.4878054 88.33133911 -51 88 C-53.12413859 86.43446994 -53.89854315 85.54199768 -54.38768005 82.92895508 C-54.39308304 82.13384521 -54.39848602 81.33873535 -54.40405273 80.51953125 C-54.41673691 79.61428711 -54.42942108 78.70904297 -54.44248962 77.77636719 C-54.43955399 76.79829102 -54.43661835 75.82021484 -54.43359375 74.8125 C-54.4388356 73.79961914 -54.44407745 72.78673828 -54.44947815 71.74316406 C-54.45590766 69.59457312 -54.4545494 67.44594702 -54.44604492 65.29736328 C-54.43760374 62.04003309 -54.46617213 58.78449749 -54.49804688 55.52734375 C-54.49966092 53.43489635 -54.49907747 51.34244589 -54.49609375 49.25 C-54.50732773 48.28811768 -54.51856171 47.32623535 -54.53013611 46.33520508 C-54.4166528 35.07922019 -50.32748148 25.48827063 -43 17 C-37.15207831 11.32895306 -30.52297999 7.94929855 -23 5 C-22.32243652 4.7323584 -21.64487305 4.4647168 -20.94677734 4.18896484 C-18.70121958 3.31280648 -16.44698651 2.46453621 -14.1875 1.625 C-13.11145508 1.21205688 -13.11145508 1.21205688 -12.01367188 0.79077148 C-7.69191314 -0.7594027 -4.51580361 -1.54262488 0 0 Z " fill="#9EAACD" transform="translate(174,153)"/>
<path d="M0 0 C3.30211668 1.53821623 4.9280286 4.2702089 6.921875 7.19921875 C7.35798096 7.82997314 7.79408691 8.46072754 8.2434082 9.1105957 C9.57501651 11.06392885 10.87937864 13.03231869 12.171875 15.01171875 C12.54425293 15.58148438 12.91663086 16.15125 13.30029297 16.73828125 C24.2542218 33.85094379 29.91623247 53.11169369 30.671875 73.32421875 C31.29918429 89.61967182 34.22563913 103.31732821 40.12304688 118.59863281 C40.51427734 119.61795898 40.90550781 120.63728516 41.30859375 121.6875 C41.66655029 122.59411377 42.02450684 123.50072754 42.39331055 124.43481445 C43.2130078 127.14786072 43.46845054 129.1962003 43.171875 132.01171875 C41.171875 134.01171875 41.171875 134.01171875 38.90234375 134.4375 C35.11717879 133.84725253 33.12273616 131.78828899 30.484375 129.19921875 C29.96182129 128.7000293 29.43926758 128.20083984 28.90087891 127.68652344 C27.30624004 126.14563644 25.73583849 124.58368462 24.171875 123.01171875 C22.85896484 121.69880859 22.85896484 121.69880859 21.51953125 120.359375 C7.24111801 105.35914624 -5.33811116 86.11909475 -5.03125 64.89453125 C-4.828125 62.01171875 -4.828125 62.01171875 -4.32054138 60.17922974 C-3.72199244 57.54454607 -3.72357788 55.15113075 -3.74633789 52.44873047 C-3.7528688 51.33432587 -3.75939972 50.21992126 -3.76612854 49.07174683 C-3.78328163 47.27472824 -3.78328163 47.27472824 -3.80078125 45.44140625 C-3.81342158 42.91145967 -3.82578297 40.38151168 -3.83789062 37.8515625 C-3.8627783 33.8572137 -3.89042008 29.86293542 -3.92407227 25.86865234 C-3.95414518 22.01789874 -3.97200515 18.1672393 -3.98828125 14.31640625 C-4.00847069 12.51331497 -4.00847069 12.51331497 -4.02906799 10.67379761 C-4.03413612 9.01164719 -4.03413612 9.01164719 -4.03930664 7.31591797 C-4.04676407 6.33759003 -4.0542215 5.35926208 -4.06190491 4.35128784 C-3.77371407 1.46719753 -3.09601994 0.01984628 0 0 Z " fill="#FC014F" transform="translate(397.828125,210.98828125)"/>
<path d="M0 0 C1.32 0.66 2.64 1.32 4 2 C3.99777939 2.63369507 3.99555878 3.26739014 3.99327087 3.92028809 C3.97107956 10.53930088 3.95603575 17.15830304 3.94506836 23.77734375 C3.9400519 26.24479604 3.93323719 28.71224537 3.92456055 31.1796875 C3.91237712 34.73438244 3.9067447 38.28903793 3.90234375 41.84375 C3.89718246 42.93989624 3.89202118 44.03604248 3.88670349 45.16540527 C3.88628845 50.88282413 4.16609066 56.3443177 5 62 C6.55769967 82.53938278 -3.52708117 99.90127721 -16.45019531 115.24804688 C-32.7587269 133.68377823 -32.7587269 133.68377823 -38.5625 134.25 C-41 134 -41 134 -43 132 C-42.72090038 125.75309373 -40.36982487 120.33662441 -38.125 114.5625 C-33.12934937 101.18993555 -30.95879488 88.77705691 -30.39916992 74.56420898 C-29.25471892 48.03375398 -19.79470834 18.73316247 0 0 Z " fill="#FC004F" transform="translate(111,211)"/>
<path d="M0 0 C0.495 0.495 0.495 0.495 1 1 C0.59484055 6.53519311 -0.51377064 10.81376831 -2.75 15.9375 C-7.2950492 26.78435813 -10.56203897 37.84829064 -12.5625 49.4375 C-14.13431457 58.39662713 -16.59425814 65.12922717 -21.875 72.5625 C-25.27325354 77.43060813 -27.2615485 82.0353121 -29.0625 87.625 C-31.34732194 94.69904002 -34.27810063 100.1875391 -39 106 C-39.680625 107.010625 -40.36125 108.02125 -41.0625 109.0625 C-43 111 -43 111 -46.0625 112 C-49 112 -49 112 -50.8125 110.9375 C-57.74328116 99.62938337 -52.81320299 77.13999457 -50 65 C-43.2170367 38.62180939 -28.03960375 18.10719378 -7.03515625 1.109375 C-4.52012734 -0.26158126 -2.82395028 -0.28669546 0 0 Z " fill="#FC004F" transform="translate(86,229)"/>
<path d="M0 0 C5.66522319 0.6035394 9.68095291 5.58061152 13.75 9.29296875 C14.28254395 9.77491699 14.81508789 10.25686523 15.36376953 10.75341797 C36.44510104 30.090001 49.6286493 56.74627436 50.88891602 85.45776367 C50.98962588 88.86185597 51.0335752 92.26255542 51.0625 95.66796875 C51.09150391 96.82941406 51.12050781 97.99085938 51.15039062 99.1875 C51.15876953 100.30253906 51.16714844 101.41757812 51.17578125 102.56640625 C51.19036377 103.57106934 51.20494629 104.57573242 51.2199707 105.61083984 C50.62310457 109.01716261 49.45659323 110.20686915 46.75 112.29296875 C43.56491775 112.2830309 42.16917538 111.64026242 39.72265625 109.61328125 C33.28398395 102.21341657 28.69664375 94.69990173 25.8125 85.29296875 C24.12935804 79.86483594 21.61579642 75.63268113 18.48828125 70.91796875 C13.08311942 62.75556706 10.99869977 55.21359624 9.4765625 45.64453125 C7.62623327 34.17450673 3.94661134 23.71461786 -0.6081543 13.08081055 C-0.94886963 12.27168213 -1.28958496 11.46255371 -1.640625 10.62890625 C-1.95032227 9.9126709 -2.26001953 9.19643555 -2.57910156 8.45849609 C-3.35437278 5.95607408 -3.43543829 3.89854325 -3.25 1.29296875 C-2.25 0.29296875 -2.25 0.29296875 0 0 Z " fill="#FC004F" transform="translate(425.25,228.70703125)"/>
<path d="M0 0 C0.66 0.33 1.32 0.66 2 1 C2.71435547 3.30297852 2.71435547 3.30297852 3.3671875 6.37890625 C3.61098145 7.51521484 3.85477539 8.65152344 4.10595703 9.82226562 C4.35974121 11.05654297 4.61352539 12.29082031 4.875 13.5625 C5.14038574 14.83158203 5.40577148 16.10066406 5.67919922 17.40820312 C8.11316897 29.22232922 10.18623485 41.07549776 12 53 C12.18336914 54.19351074 12.36673828 55.38702148 12.55566406 56.61669922 C13.13075366 60.38883939 13.69304568 64.16264223 14.25 67.9375 C14.42547363 69.10474609 14.60094727 70.27199219 14.78173828 71.47460938 C16.61754929 84.24192468 16.61754929 84.24192468 16 90 C13.34211484 93.27940584 11.71684992 93.89678011 7.5546875 94.49609375 C6.34039062 94.47675781 5.12609375 94.45742188 3.875 94.4375 C2.65554687 94.43621094 1.43609375 94.43492187 0.1796875 94.43359375 C-3 94 -3 94 -4.82421875 92.93359375 C-15.77609316 74.92303616 -7.94143059 44.02554714 -4.5 25.1875 C-4.06476742 22.7301074 -3.63116373 20.27242573 -3.19921875 17.81445312 C-2.15150821 11.87284902 -1.0839745 5.93508955 0 0 Z " fill="#9CA8CB" transform="translate(154,366)"/>
<path d="M0 0 C1.91124576 2.86686865 2.38699457 4.14787542 2.96142578 7.41357422 C3.12144073 8.30656219 3.28145569 9.19955017 3.44631958 10.11959839 C3.61098724 11.0881778 3.77565491 12.0567572 3.9453125 13.0546875 C4.12005096 14.06604767 4.29478943 15.07740784 4.474823 16.11941528 C4.84346328 18.27245713 5.20802272 20.42620102 5.56884766 22.58056641 C6.11287029 25.80314823 6.68260675 29.02044055 7.25390625 32.23828125 C15.28490242 78.93509227 15.28490242 78.93509227 6 93 C3.06077067 94.46961466 0.39591028 94.20919862 -2.875 94.25 C-4.72738281 94.28867187 -4.72738281 94.28867187 -6.6171875 94.328125 C-10.32049758 93.96891247 -11.45988761 93.64233226 -14 91 C-15.78777243 80.10097309 -13.18396333 68.10497144 -11.5 57.3125 C-11.37083191 56.46091309 -11.24166382 55.60932617 -11.10858154 54.73193359 C-8.29906565 36.28813682 -4.3418575 18.13695706 0 0 Z " fill="#9DA8CB" transform="translate(354,366)"/>
</svg>
